<?xml version="1.0" encoding="utf-8"?>
<svg viewBox="0 0 464 385" xmlns="http://www.w3.org/2000/svg">
  <path style="opacity: 1; vector-effect: none; fill: rgb(51, 51, 51); fill-opacity: 1; fill-rule: nonzero; stroke: none; stroke-width: 0.372952; stroke-linecap: butt; stroke-linejoin: miter; stroke-miterlimit: 4; stroke-dasharray: none; stroke-dashoffset: 0; stroke-opacity: 1;" d="M 367.517 100.82 C 340.115 100.82 317.901 78.728 317.901 51.476 C 317.902 24.224 340.117 2.133 367.517 2.133 C 394.919 2.133 417.132 24.224 417.132 51.476 C 417.134 78.728 394.921 100.82 367.517 100.82 Z M 367.517 92.313 C 390.196 92.313 408.58 74.029 408.58 51.476 C 408.58 28.922 390.196 10.64 367.517 10.64 C 344.842 10.64 326.456 28.922 326.456 51.476 C 326.456 74.029 344.842 92.313 367.517 92.313 Z" id="circle1581"/>
  <path style="opacity: 1; vector-effect: none; fill: rgb(153, 153, 153); fill-opacity: 1; fill-rule: nonzero; stroke: none; stroke-width: 0.308655; stroke-linecap: butt; stroke-linejoin: miter; stroke-miterlimit: 4; stroke-dasharray: none; stroke-dashoffset: 0; stroke-opacity: 1;" d="M 367.517 92.313 C 344.842 92.313 326.456 74.029 326.456 51.476 C 326.456 28.922 344.842 10.64 367.517 10.64 C 390.196 10.64 408.58 28.922 408.58 51.476 C 408.58 74.029 390.196 92.313 367.517 92.313 Z M 367.517 85.354 C 386.331 85.354 401.583 70.187 401.581 51.476 C 401.581 32.767 386.331 17.6 367.517 17.6 C 348.705 17.6 333.456 32.767 333.456 51.476 C 333.453 70.187 348.705 85.354 367.517 85.354 Z" id="circle1583"/>
  <path style="opacity: 1; vector-effect: none; fill: rgb(102, 102, 102); fill-opacity: 1; fill-rule: nonzero; stroke: none; stroke-width: 0.256048; stroke-linecap: butt; stroke-linejoin: miter; stroke-miterlimit: 4; stroke-dasharray: none; stroke-dashoffset: 0; stroke-opacity: 1;" d="M 367.517 85.354 C 348.705 85.354 333.453 70.187 333.456 51.476 C 333.456 32.767 348.705 17.6 367.517 17.6 C 386.331 17.6 401.581 32.767 401.581 51.476 C 401.583 70.187 386.331 85.354 367.517 85.354 Z M 367.517 78.779 C 382.681 78.779 394.972 66.555 394.971 51.476 C 394.972 36.397 382.681 24.172 367.517 24.172 C 352.357 24.172 340.064 36.397 340.064 51.476 C 340.064 66.555 352.357 78.779 367.517 78.779 Z" id="circle1585"/>
  <circle r="19.623" cy="329.608" cx="55.637" id="circle1627" style="opacity: 1; vector-effect: none; fill: rgb(153, 153, 153); fill-opacity: 1; fill-rule: nonzero; stroke: none; stroke-width: 0.122109; stroke-linecap: butt; stroke-linejoin: miter; stroke-miterlimit: 4; stroke-dasharray: none; stroke-dashoffset: 0; stroke-opacity: 1;" transform="matrix(1.005508, 0, 0, -1, 1.37062, 385.483612)"/>
  <path id="path1679" d="M 158.719 254.423 C 158.183 253.86 157.543 253.395 157.108 252.749 C 156.205 251.415 155.519 249.931 155.075 248.384 C 154.633 246.838 154.428 245.237 154.423 243.629 C 154.419 242.267 154.636 240.913 154.906 239.576 C 155.26 239.39 155.637 239.252 155.98 239.043 C 158.152 241.144 159.601 243.975 160.029 246.958 C 160.385 249.439 160.043 252.013 159.051 254.317 C 158.945 254.365 158.828 254.378 158.719 254.423 Z" style="fill: rgb(51, 51, 51); fill-opacity: 1; stroke: none; stroke-width: 0.264583px; stroke-linecap: butt; stroke-linejoin: miter; stroke-opacity: 1;"/>
  <path style="opacity: 1; vector-effect: none; fill: rgb(51, 51, 51); fill-opacity: 1; fill-rule: nonzero; stroke: none; stroke-width: 0.33443; stroke-linecap: butt; stroke-linejoin: miter; stroke-miterlimit: 4; stroke-dasharray: none; stroke-dashoffset: 0; stroke-opacity: 1;" d="M 57.315 109.621 C 27.469 109.621 3.273 85.558 3.273 55.877 C 3.273 26.196 27.469 2.133 57.315 2.133 C 87.159 2.133 111.355 26.196 111.355 55.877 C 111.355 85.558 87.159 109.621 57.315 109.621 Z M 57.315 99.54 C 81.562 99.54 101.216 79.991 101.216 55.877 C 101.216 31.765 81.56 12.217 57.315 12.215 C 33.068 12.215 13.41 31.762 13.41 55.877 C 13.41 79.991 33.068 99.54 57.315 99.54 Z" id="circle1619"/>
  <path style="opacity: 1; vector-effect: none; fill: rgb(153, 153, 153); fill-opacity: 1; fill-rule: nonzero; stroke: none; stroke-width: 0.271699; stroke-linecap: butt; stroke-linejoin: miter; stroke-miterlimit: 4; stroke-dasharray: none; stroke-dashoffset: 0; stroke-opacity: 1;" d="M 57.315 99.54 C 33.068 99.54 13.41 79.991 13.41 55.877 C 13.41 31.762 33.068 12.215 57.315 12.215 C 81.56 12.217 101.216 31.765 101.216 55.877 C 101.216 79.991 81.562 99.54 57.315 99.54 Z M 57.315 91.008 C 76.824 91.008 92.64 75.279 92.64 55.877 C 92.64 36.473 76.824 20.744 57.315 20.744 C 37.803 20.742 21.987 36.472 21.987 55.877 C 21.987 75.281 37.803 91.01 57.315 91.008 Z" id="circle1621"/>
  <path style="opacity: 1; vector-effect: none; fill: rgb(102, 102, 102); fill-opacity: 1; fill-rule: nonzero; stroke: none; stroke-width: 0.218619; stroke-linecap: butt; stroke-linejoin: miter; stroke-miterlimit: 4; stroke-dasharray: none; stroke-dashoffset: 0; stroke-opacity: 1;" d="M 57.315 91.008 C 37.803 91.01 21.987 75.281 21.987 55.877 C 21.987 36.472 37.803 20.742 57.315 20.744 C 76.824 20.744 92.64 36.473 92.64 55.877 C 92.64 75.279 76.824 91.008 57.315 91.008 Z M 57.315 83.449 C 72.626 83.449 85.038 71.105 85.038 55.877 C 85.038 40.648 72.626 28.305 57.315 28.305 C 42.002 28.305 29.59 40.648 29.59 55.877 C 29.59 71.105 42.002 83.449 57.315 83.449 Z" id="circle1623"/>
  <path style="opacity: 1; vector-effect: none; fill: rgb(77, 77, 77); fill-opacity: 1; fill-rule: nonzero; stroke: none; stroke-width: 0.17157; stroke-linecap: butt; stroke-linejoin: miter; stroke-miterlimit: 4; stroke-dasharray: none; stroke-dashoffset: 0; stroke-opacity: 1;" d="M 57.315 83.449 C 42.002 83.449 29.59 71.105 29.59 55.877 C 29.59 40.648 42.002 28.305 57.315 28.305 C 72.626 28.305 85.038 40.648 85.038 55.877 C 85.038 71.105 72.626 83.449 57.315 83.449 Z M 57.315 75.5 C 68.211 75.5 77.044 66.713 77.046 55.877 C 77.044 45.04 68.211 36.255 57.315 36.255 C 46.416 36.253 37.581 45.038 37.581 55.877 C 37.581 66.715 46.416 75.5 57.315 75.5 Z" id="circle1625"/>
  <path id="path1547" d="M 136.151 39.643 C 113.292 44 92.527 58.079 79.861 77.498 C 67.197 96.921 62.734 121.398 67.455 144.065 C 68.318 148.201 69.472 152.275 70.808 156.283 C 78.863 180.448 93.782 202.306 113.389 218.673 L 151.894 202.962 C 136.812 179.284 130.705 150.098 135.035 122.403 C 136.024 116.065 137.571 109.727 140.618 104.073 C 145.163 95.644 152.831 89.196 161.283 84.631 C 171.538 79.099 183.65 76.089 194.994 78.804 C 200.666 80.161 206.031 82.955 210.142 87.069 C 214.259 91.184 217.068 96.638 217.69 102.407 C 218.06 105.823 217.675 109.27 217.39 112.694 C 217.106 116.119 216.926 119.606 217.69 122.957 C 218.321 125.72 219.578 128.305 221.041 130.735 C 229.26 144.37 243.884 153.16 259.112 157.992 C 277.694 163.89 297.698 164.612 316.997 161.811 C 336.299 159.01 354.962 152.772 372.846 145.032 C 401.652 132.566 428.713 116.127 453.014 96.33 C 441.006 91.116 428.387 87.286 415.498 84.941 C 381.285 78.716 345.759 82.994 311.636 76.3 C 304.341 74.87 297.1 72.927 290.384 69.755 C 283.667 66.584 277.466 62.132 272.934 56.269 C 271.931 54.973 271.011 53.611 269.954 52.36 C 268.895 51.11 267.679 49.957 266.221 49.201 C 264.556 48.336 262.651 48.025 260.774 48.001 C 258.898 47.977 257.03 48.221 255.164 48.416 C 235.277 50.472 215.335 46.395 195.681 42.756 C 176.025 39.118 155.787 35.901 136.151 39.643 Z" style="fill-opacity: 1; stroke: none; stroke-width: 0.264583px; stroke-linecap: butt; stroke-linejoin: miter; stroke-opacity: 1; fill: rgb(11, 146, 9);"/>
  <path id="path1551" d="M 3.511 94.491 C 3.288 94.489 3.06 94.489 2.842 94.533 C 2.621 94.579 2.407 94.674 2.255 94.838 C 2.16 94.943 2.092 95.073 2.054 95.208 C 2.014 95.343 2.004 95.486 2.016 95.627 C 2.037 95.91 2.141 96.178 2.255 96.437 C 2.744 97.537 3.473 98.512 4.197 99.471 C 9.14 106.016 14.39 112.414 20.718 117.644 C 27.05 122.871 34.565 126.914 42.702 128.144 C 49.795 129.214 57.251 128.156 64.028 130.5 C 66.376 131.314 68.587 132.525 70.53 134.067 C 75.309 98.138 97.18 64.831 128.335 46.031 C 128.849 45.72 129.378 45.404 129.743 44.929 C 129.927 44.693 130.066 44.419 130.122 44.126 C 130.178 43.832 130.147 43.52 130.009 43.253 C 129.845 42.938 129.548 42.709 129.222 42.565 C 128.895 42.42 128.544 42.35 128.195 42.282 C 125.75 41.801 123.286 41.337 120.795 41.309 C 115.041 41.245 109.44 43.54 104.804 46.927 C 100.168 50.314 96.407 54.744 93.009 59.361 C 86.475 68.238 80.916 78.172 72.067 84.771 C 63.111 91.451 51.678 93.987 40.512 94.77 C 28.203 95.633 15.849 94.579 3.511 94.491 Z" style="fill-opacity: 1; stroke: none; stroke-width: 0.264583px; stroke-linecap: butt; stroke-linejoin: miter; stroke-opacity: 1; fill: rgb(28, 132, 39);"/>
  <path id="path1555" d="M 77.848 147.191 C 82.002 159.049 87.441 170.459 94.04 181.165 C 98.66 188.658 103.896 195.861 110.429 201.785 C 112.442 203.608 114.601 205.324 117.084 206.433 C 119.566 207.544 122.42 208.011 125.042 207.284 C 125.872 207.051 126.686 206.695 127.342 206.136 C 128 205.576 128.492 204.799 128.594 203.943 C 128.672 203.315 128.536 202.677 128.302 202.087 C 128.068 201.499 127.74 200.952 127.412 200.409 C 122.57 192.392 117.764 184.335 113.785 175.863 C 108.567 164.746 104.821 153.012 101.149 141.301 C 98.614 133.222 96.085 125.014 95.818 116.557 C 95.4 103.452 100.719 90.292 110.034 81.014 C 117.187 73.888 126.438 69.101 136.099 66.089 C 142.451 64.107 149.024 62.852 155.647 62.162 C 162.137 61.484 168.672 61.346 175.195 61.179 C 196.377 60.638 217.593 59.774 238.58 56.86 C 249.843 55.294 261.137 53.131 272.495 53.737 C 272.591 53.741 272.684 53.745 272.781 53.739 C 272.874 53.732 272.97 53.711 273.054 53.667 C 273.174 53.604 273.269 53.492 273.322 53.366 C 273.374 53.238 273.388 53.097 273.372 52.962 C 273.339 52.688 273.2 52.441 273.054 52.209 C 271.72 50.087 269.713 48.396 267.4 47.418 C 265.314 46.539 263.026 46.237 260.76 46.229 C 258.498 46.219 256.246 46.494 253.995 46.724 C 235.3 48.645 216.414 47.61 197.727 45.613 C 177.165 43.416 156.175 40.075 136.013 44.642 C 114.354 49.548 95.028 63.874 84.115 83.118 C 73.2 102.36 70.868 126.218 77.848 147.191 Z" style="fill-opacity: 1; stroke: none; stroke-width: 0.264583px; stroke-linecap: butt; stroke-linejoin: miter; stroke-opacity: 1; fill: rgb(41, 181, 62);"/>
  <path id="path1559" d="M 135.841 162.438 C 133.11 161.841 130.415 161.088 127.776 160.173 C 117.753 156.696 108.448 150.863 101.621 142.781 C 101.465 142.288 101.304 141.796 101.149 141.302 C 98.614 133.222 96.085 125.016 95.818 116.557 C 95.4 103.454 100.719 90.292 110.034 81.014 C 117.187 73.888 126.441 69.101 136.099 66.089 C 142.453 64.107 149.024 62.852 155.647 62.162 C 162.137 61.484 168.669 61.346 175.195 61.181 C 196.377 60.638 217.593 59.774 238.58 56.858 C 249.345 55.362 260.137 53.33 270.987 53.68 C 271.641 54.542 272.276 55.416 272.938 56.269 C 277.47 62.132 283.669 66.583 290.386 69.755 C 296.81 72.787 303.716 74.693 310.686 76.106 C 312.163 78.897 312.942 82.163 312.23 85.235 C 311.573 88.069 309.662 90.55 307.194 92.11 C 305.056 93.46 302.565 94.141 300.086 94.661 C 293.861 95.968 287.485 96.375 281.131 96.722 C 266.858 97.503 252.567 97.999 238.282 98.59 C 233.132 98.803 227.869 99.05 223.079 100.946 C 221.163 101.702 219.3 102.758 218.043 104.381 C 217.969 104.477 217.902 104.575 217.83 104.674 C 217.813 103.918 217.775 103.159 217.692 102.405 C 217.07 96.636 214.258 91.184 210.144 87.07 C 206.033 82.957 200.668 80.161 194.997 78.804 C 183.652 76.089 171.54 79.097 161.287 84.631 C 152.833 89.196 145.166 95.642 140.622 104.073 C 137.575 109.727 136.028 116.065 135.038 122.403 C 132.965 135.662 133.29 149.263 135.841 162.438 Z" style="fill-opacity: 1; stroke: none; stroke-width: 0.264583px; stroke-linecap: butt; stroke-linejoin: miter; stroke-opacity: 1; fill: rgb(77, 77, 77);"/>
  <path id="path1561" d="M 252.316 142.398 C 245.495 139.014 238.779 135.419 232.212 131.567 C 229.462 129.955 226.703 128.28 223.643 127.375 C 222.114 126.924 220.517 126.668 218.92 126.733 C 217.326 126.796 215.735 127.185 214.34 127.955 C 212.867 128.772 211.645 129.997 210.725 131.403 C 209.805 132.807 209.177 134.388 208.755 136.009 C 207.142 142.191 208.47 148.733 210.151 154.896 C 211.072 158.272 212.108 161.644 213.72 164.755 C 215.331 167.866 217.555 170.728 220.484 172.669 C 223.283 174.523 226.619 175.467 229.967 175.79 C 233.315 176.115 236.692 175.849 240.032 175.445 C 248.031 174.481 255.988 172.738 264.046 172.945 C 271.73 173.145 279.244 175.118 286.665 177.113 C 313.062 184.207 340.486 191.82 367.365 186.832 C 368.733 186.577 370.105 186.29 371.382 185.743 C 372.661 185.194 373.851 184.369 374.626 183.222 C 375.646 181.717 375.862 179.829 376.008 178.023 C 376.277 174.625 376.396 171.213 376.6 167.81 C 376.768 164.973 376.981 162.04 376.008 159.367 C 374.984 156.561 372.711 154.323 370.082 152.886 C 368.289 151.909 366.328 151.27 364.356 150.727 C 361.527 149.946 358.599 149.342 355.668 149.548 C 352.082 149.801 348.695 151.251 345.488 152.87 C 342.284 154.492 339.15 156.311 335.726 157.402 C 332.979 158.278 330.101 158.664 327.234 158.975 C 320.418 159.71 313.54 160.033 306.699 159.564 C 292.631 158.599 278.975 154.305 266.024 148.763 C 261.392 146.78 256.83 144.636 252.316 142.398 Z" style="fill-opacity: 1; stroke: none; stroke-width: 0.264583px; stroke-linecap: butt; stroke-linejoin: miter; stroke-opacity: 1; fill: rgb(77, 77, 77);"/>
  <path id="path1565" d="M 318.992 151.777 C 309.941 151.872 300.867 151.016 291.971 149.341 C 280.11 147.104 268.431 143.379 258.044 137.259 C 251.058 133.142 244.745 128 238.636 122.679 C 233.296 118.027 228.031 113.159 224.116 107.266 C 222.972 105.547 221.943 103.726 221.317 101.767 C 221.89 101.462 222.478 101.183 223.079 100.946 C 227.869 99.05 233.132 98.803 238.282 98.59 C 252.567 97.999 266.858 97.503 281.131 96.722 C 287.485 96.375 293.861 95.968 300.086 94.661 C 302.565 94.141 305.056 93.46 307.194 92.11 C 309.662 90.55 311.573 88.069 312.23 85.235 C 312.942 82.163 312.163 78.897 310.686 76.106 C 311.004 76.169 311.32 76.238 311.638 76.3 C 345.761 82.994 381.287 78.718 415.5 84.942 C 426.386 86.923 437.07 89.972 447.365 94.009 C 447.218 95.574 446.814 97.11 446.117 98.519 C 444.743 101.289 442.35 103.454 439.711 105.083 C 437.074 106.711 434.172 107.86 431.315 109.072 C 402.368 121.368 376.452 141.112 345.867 148.507 C 337.071 150.635 328.044 151.68 318.992 151.777 Z" style="fill-opacity: 1; stroke: none; stroke-width: 0.264583px; stroke-linecap: butt; stroke-linejoin: miter; stroke-opacity: 1; fill: rgb(41, 181, 62);"/>
  <circle r="1.866" cy="300.249" cx="302.332" id="circle1647" style="opacity: 1; vector-effect: none; fill: rgb(51, 51, 51); fill-opacity: 1; fill-rule: nonzero; stroke: none; stroke-width: 0.304271; stroke-linecap: butt; stroke-linejoin: miter; stroke-miterlimit: 4; stroke-dasharray: none; stroke-dashoffset: 0; stroke-opacity: 1;" transform="matrix(1.005508, 0, 0, -1, 1.37062, 385.483612)"/>
  <path id="path1573" d="M 281.19 64.321 C 279.885 62.194 278.749 59.963 277.834 57.646 C 276.86 55.183 276.128 52.592 276.091 49.947 C 276.058 47.304 276.767 44.59 278.426 42.523 C 279.923 40.658 282.099 39.421 284.384 38.682 C 286.666 37.943 289.069 37.661 291.459 37.417 C 309.979 35.531 328.666 35.665 347.18 33.686 C 353.569 33.004 359.93 32.071 366.333 31.527 C 369.301 31.275 372.391 31.124 375.153 32.228 C 376.534 32.779 377.806 33.65 378.704 34.832 C 379.602 36.014 380.105 37.516 379.957 38.989 C 379.915 39.406 379.824 39.822 379.841 40.241 C 379.85 40.45 379.886 40.662 379.969 40.854 C 380.052 41.046 380.181 41.224 380.352 41.345 C 380.53 41.471 380.745 41.536 380.96 41.569 C 381.174 41.603 381.393 41.606 381.611 41.622 C 382.705 41.704 383.772 42.124 384.634 42.8 C 385.493 43.477 386.15 44.407 386.504 45.442 C 386.858 46.476 386.91 47.61 386.661 48.673 C 386.412 49.739 385.864 50.729 385.102 51.516 C 383.833 52.823 381.964 53.53 380.143 53.391 C 378.27 56.919 375.478 59.962 372.117 62.137 C 368.788 64.292 364.906 65.596 360.946 65.887 C 356.563 72.435 350.501 77.861 343.492 81.505 C 336.482 85.152 328.544 87.009 320.636 86.854 C 312.728 86.699 304.87 84.531 298.01 80.614 C 291.153 76.695 285.31 71.037 281.19 64.321 Z" style="fill: rgb(51, 51, 51); fill-opacity: 1; stroke: none; stroke-width: 0.264583px; stroke-linecap: butt; stroke-linejoin: miter; stroke-opacity: 1;"/>
  <path id="path1571" d="M 409.862 84.017 C 377.727 79.21 344.577 82.55 312.63 76.485 C 312.78 75.279 313.062 74.09 313.513 72.961 C 313.834 72.161 314.241 71.368 314.895 70.803 C 315.472 70.301 316.207 70.01 316.957 69.852 C 317.705 69.693 318.476 69.659 319.242 69.622 C 335.94 68.844 352.586 66.338 369.295 66.874 C 369.923 66.894 370.56 66.92 371.17 66.779 C 371.881 66.613 372.524 66.228 373.099 65.778 C 373.673 65.328 374.185 64.81 374.726 64.322 C 378.111 61.267 382.486 59.53 386.869 58.233 C 390.216 57.243 393.658 56.468 397.15 56.41 C 400.642 56.351 404.206 57.044 407.206 58.823 C 408.358 59.506 409.434 60.36 410.169 61.474 C 410.845 62.503 411.206 63.706 411.451 64.911 C 412.738 71.219 411.101 77.687 409.862 84.017 Z" style="fill: rgb(51, 51, 51); fill-opacity: 1; stroke: none; stroke-width: 0.264583px; stroke-linecap: butt; stroke-linejoin: miter; stroke-opacity: 1;"/>
  <circle style="opacity: 1; vector-effect: none; fill: rgb(77, 77, 77); fill-opacity: 1; fill-rule: nonzero; stroke: none; stroke-width: 0.364963; stroke-linecap: butt; stroke-linejoin: miter; stroke-miterlimit: 4; stroke-dasharray: none; stroke-dashoffset: 0; stroke-opacity: 1;" id="circle1579" cx="358.839" cy="337.068" r="18.726" transform="matrix(1.005508, 0, 0, -1, 1.37062, 385.483612)"/>
  <circle r="15.611" cy="340.309" cx="362.079" id="circle1577" style="opacity: 1; vector-effect: none; fill: rgb(102, 102, 102); fill-opacity: 1; fill-rule: nonzero; stroke: none; stroke-width: 0.304271; stroke-linecap: butt; stroke-linejoin: miter; stroke-miterlimit: 4; stroke-dasharray: none; stroke-dashoffset: 0; stroke-opacity: 1;" transform="matrix(1.005508, 0, 0, -1, 1.37062, 385.483612)"/>
  <path id="path1589" d="M 25.29 70.886 C 24.627 69.478 24.393 67.891 24.504 66.34 C 24.617 64.791 25.065 63.276 25.709 61.861 C 26.902 59.238 28.751 56.957 30.82 54.945 C 32.889 52.933 35.186 51.169 37.436 49.363 C 39.829 47.442 42.209 45.45 44.975 44.114 C 46.358 43.447 47.833 42.95 49.356 42.744 C 50.879 42.54 52.454 42.633 53.913 43.114 C 55.843 43.748 57.549 45.087 58.522 46.863 C 58.871 47.505 59.127 48.201 59.235 48.923 C 59.343 49.644 59.302 50.394 59.079 51.089 C 58.856 51.785 58.447 52.425 57.884 52.893 C 57.32 53.362 56.601 53.651 55.868 53.667 C 54.878 53.687 53.925 53.23 52.935 53.251 C 52.362 53.263 51.801 53.436 51.293 53.703 C 50.787 53.97 50.334 54.325 49.914 54.716 C 49.079 55.495 48.373 56.412 47.491 57.138 C 46.249 58.158 44.721 58.745 43.3 59.498 C 42.1 60.136 40.96 60.904 39.986 61.852 C 39.012 62.797 38.203 63.928 37.717 65.194 C 37.214 66.499 37.063 67.905 36.796 69.278 C 36.528 70.65 36.119 72.047 35.203 73.108 C 34.548 73.868 33.655 74.414 32.689 74.685 C 31.719 74.954 30.678 74.948 29.705 74.693 C 27.759 74.186 26.144 72.696 25.29 70.884 L 25.29 70.886 Z" style="fill: rgb(204, 204, 204); fill-opacity: 1; stroke: none; stroke-width: 0.264583px; stroke-linecap: butt; stroke-linejoin: miter; stroke-opacity: 1;"/>
  <path id="path1593" d="M 72.617 59.217 C 71.835 59.207 71.062 58.847 70.559 58.252 C 70.056 57.658 69.828 56.841 69.951 56.073 C 70.034 55.557 70.266 55.073 70.544 54.627 C 70.821 54.181 71.144 53.763 71.431 53.324 C 71.774 52.802 72.069 52.238 72.217 51.63 C 72.366 51.025 72.361 50.367 72.122 49.79 C 71.966 49.409 71.712 49.075 71.479 48.734 C 71.245 48.393 71.023 48.032 70.939 47.629 C 70.873 47.324 70.89 47.006 70.974 46.705 C 71.054 46.404 71.2 46.124 71.383 45.872 C 71.753 45.37 72.273 44.995 72.814 44.684 C 73.662 44.198 74.616 43.847 75.596 43.857 C 76.084 43.861 76.576 43.958 77.021 44.162 C 77.466 44.365 77.861 44.678 78.146 45.076 C 78.405 45.446 78.567 45.882 78.625 46.33 C 78.682 46.777 78.642 47.236 78.525 47.673 C 78.294 48.546 77.77 49.319 77.158 49.985 C 76.893 50.275 76.609 50.55 76.379 50.868 C 76.151 51.186 75.979 51.56 75.973 51.95 C 75.967 52.35 76.137 52.733 76.339 53.08 C 76.544 53.424 76.789 53.747 76.96 54.11 C 77.202 54.622 77.287 55.202 77.228 55.764 C 77.17 56.326 76.968 56.872 76.665 57.349 C 76.246 58.011 75.63 58.549 74.917 58.878 C 74.203 59.207 73.395 59.325 72.617 59.217 Z" style="fill: rgb(204, 204, 204); fill-opacity: 1; stroke: none; stroke-width: 0.264583px; stroke-linecap: butt; stroke-linejoin: miter; stroke-opacity: 1;"/>
  <path id="path1597" d="M 46.514 43.67 C 46.94 42.496 47.634 41.401 48.608 40.614 C 49.574 39.834 50.785 39.386 52.016 39.216 C 53.249 39.044 54.506 39.142 55.728 39.364 C 58.44 39.862 61.038 41.002 63.181 42.727 C 65.323 44.451 66.996 46.766 67.877 49.363 C 68.584 51.453 68.778 53.685 68.713 55.888 C 68.691 56.738 68.629 57.593 68.778 58.428 C 68.85 58.845 68.976 59.256 69.175 59.632 C 69.377 60.006 69.653 60.342 69.999 60.59 C 70.385 60.865 70.839 61.018 71.273 61.207 C 71.708 61.394 72.143 61.63 72.419 62.013 C 72.717 62.431 72.789 62.967 72.799 63.479 C 72.806 63.988 72.76 64.507 72.863 65.008 C 73.039 65.877 73.631 66.591 74.122 67.331 C 74.364 67.702 74.591 68.09 74.727 68.512 C 74.863 68.932 74.907 69.392 74.788 69.819 C 74.701 70.124 74.533 70.409 74.288 70.612 C 74.044 70.814 73.721 70.928 73.406 70.899 C 73.166 70.881 72.94 70.78 72.742 70.644 C 72.546 70.507 72.38 70.333 72.231 70.146 C 71.931 69.775 71.689 69.352 71.332 69.035 C 70.951 68.697 70.463 68.501 69.968 68.371 C 69.474 68.243 68.965 68.175 68.468 68.054 C 66.867 67.66 65.438 66.723 64.264 65.571 C 63.088 64.42 62.144 63.057 61.263 61.67 C 60.187 59.985 59.17 58.225 57.708 56.86 C 56.592 55.817 55.25 55.039 53.858 54.403 C 52.741 53.897 51.584 53.476 50.483 52.933 C 49.382 52.389 48.327 51.708 47.537 50.773 C 46.731 49.812 46.233 48.606 46.073 47.364 C 45.914 46.123 46.085 44.848 46.514 43.67 Z" style="fill: rgb(204, 204, 204); fill-opacity: 1; stroke: none; stroke-width: 0.264583px; stroke-linecap: butt; stroke-linejoin: miter; stroke-opacity: 1;"/>
  <path id="path1601" d="M 48.473 93.874 C 48.452 93.859 48.435 93.845 48.412 93.826 C 43.229 89.752 36.154 83.763 32.518 80.604 C 28.879 77.448 28.682 77.119 30.952 76.644 C 33.224 76.169 37.964 75.548 40.663 75.401 C 43.362 75.254 44.02 75.58 48.074 79.158 C 51.452 82.137 56.844 87.073 60.823 90.757 C 56.863 92.218 52.695 93.211 48.473 93.874 Z" style="fill: rgb(204, 204, 204); fill-opacity: 1; stroke: none; stroke-width: 0.264583px; stroke-linecap: butt; stroke-linejoin: miter; stroke-opacity: 1;"/>
  <circle r="2.061" cy="303.587" cx="41.054" id="circle1603" style="opacity: 1; vector-effect: none; fill: rgb(51, 51, 51); fill-opacity: 1; fill-rule: nonzero; stroke: none; stroke-width: 0.304271; stroke-linecap: butt; stroke-linejoin: miter; stroke-miterlimit: 4; stroke-dasharray: none; stroke-dashoffset: 0; stroke-opacity: 1;" transform="matrix(1.005508, 0, 0, -1, 1.37062, 385.483612)"/>
  <circle style="opacity: 1; vector-effect: none; fill: rgb(51, 51, 51); fill-opacity: 1; fill-rule: nonzero; stroke: none; stroke-width: 0.304271; stroke-linecap: butt; stroke-linejoin: miter; stroke-miterlimit: 4; stroke-dasharray: none; stroke-dashoffset: 0; stroke-opacity: 1;" id="circle1605" cx="50.627" cy="295.782" r="2.061" transform="matrix(1.005508, 0, 0, -1, 1.37062, 385.483612)"/>
  <circle r="2.849" cy="327.856" cx="36.153" id="circle1607" style="opacity: 1; vector-effect: none; fill: rgb(51, 51, 51); fill-opacity: 1; fill-rule: nonzero; stroke: none; stroke-width: 0.304271; stroke-linecap: butt; stroke-linejoin: miter; stroke-miterlimit: 4; stroke-dasharray: none; stroke-dashoffset: 0; stroke-opacity: 1;" transform="matrix(1.005508, 0, 0, -1, 1.37062, 385.483612)"/>
  <circle style="opacity: 1; vector-effect: none; fill: rgb(51, 51, 51); fill-opacity: 1; fill-rule: nonzero; stroke: none; stroke-width: 0.304271; stroke-linecap: butt; stroke-linejoin: miter; stroke-miterlimit: 4; stroke-dasharray: none; stroke-dashoffset: 0; stroke-opacity: 1;" id="circle1609" cx="28.733" cy="317.825" r="2.849" transform="matrix(1.005508, 0, 0, -1, 1.37062, 385.483612)"/>
  <circle r="0.993" cy="344.059" cx="52.138" id="circle1611" style="opacity: 1; vector-effect: none; fill: rgb(51, 51, 51); fill-opacity: 1; fill-rule: nonzero; stroke: none; stroke-width: 0.384363; stroke-linecap: butt; stroke-linejoin: miter; stroke-miterlimit: 4; stroke-dasharray: none; stroke-dashoffset: 0; stroke-opacity: 1;" transform="matrix(1.005508, 0, 0, -1, 1.37062, 385.483612)"/>
  <circle style="opacity: 1; vector-effect: none; fill: rgb(51, 51, 51); fill-opacity: 1; fill-rule: nonzero; stroke: none; stroke-width: 0.384363; stroke-linecap: butt; stroke-linejoin: miter; stroke-miterlimit: 4; stroke-dasharray: none; stroke-dashoffset: 0; stroke-opacity: 1;" id="circle1613" cx="58.309" cy="341.484" r="0.993" transform="matrix(1.005508, 0, 0, -1, 1.37062, 385.483612)"/>
  <circle r="0.993" cy="337.454" cx="62.776" id="circle1615" style="opacity: 1; vector-effect: none; fill: rgb(51, 51, 51); fill-opacity: 1; fill-rule: nonzero; stroke: none; stroke-width: 0.384363; stroke-linecap: butt; stroke-linejoin: miter; stroke-miterlimit: 4; stroke-dasharray: none; stroke-dashoffset: 0; stroke-opacity: 1;" transform="matrix(1.005508, 0, 0, -1, 1.37062, 385.483612)"/>
  <path id="path1617" d="M 67.673 87.608 C 60.724 79.764 53.651 71.778 50.144 67.819 C 46.093 63.248 46.093 63.248 46.885 62.473 C 47.677 61.697 49.259 60.146 50.133 59.371 C 51.004 58.595 51.169 58.597 55.665 62.886 C 59.707 66.741 67.448 74.254 75.41 81.984 C 74.345 82.963 73.234 83.899 72.064 84.771 C 70.659 85.819 69.188 86.754 67.673 87.608 Z" style="fill: rgb(204, 204, 204); fill-opacity: 1; stroke: none; stroke-width: 0.264583px; stroke-linecap: butt; stroke-linejoin: miter; stroke-opacity: 1;"/>
  <circle r="2.946" cy="240.985" cx="303.185" id="circle1629" style="opacity: 1; vector-effect: none; fill-opacity: 1; fill-rule: nonzero; stroke: none; stroke-width: 0.304271; stroke-linecap: butt; stroke-linejoin: miter; stroke-miterlimit: 4; stroke-dasharray: none; stroke-dashoffset: 0; stroke-opacity: 1; fill: rgb(0, 93, 36);" transform="matrix(1.005508, 0, 0, -1, 1.37062, 385.483612)"/>
  <path id="path1631" d="M 262.734 85.516 L 275.646 85.516 C 278.027 85.516 279.945 83.977 279.945 82.064 C 279.945 80.15 278.027 78.612 275.646 78.612 L 269.37 78.612 C 266.987 78.612 261.646 79.115 260.646 82.064 C 260.215 83.337 260.353 85.516 262.734 85.516 Z" style="opacity: 1; vector-effect: none; fill: rgb(51, 51, 51); fill-opacity: 1; fill-rule: nonzero; stroke: none; stroke-width: 0.280066; stroke-linecap: butt; stroke-linejoin: miter; stroke-miterlimit: 4; stroke-dasharray: none; stroke-dashoffset: 0; stroke-opacity: 1;"/>
  <path id="path1633" d="M 251.348 75.417 L 274.286 75.417 C 276.655 75.417 276.778 73.28 276.354 72.029 C 275.355 69.095 270.022 68.641 267.652 68.641 L 251.348 68.641 C 248.978 68.641 247.07 70.152 247.07 72.029 C 247.07 73.906 248.978 75.417 251.348 75.417 Z" style="opacity: 1; vector-effect: none; fill: rgb(51, 51, 51); fill-opacity: 1; fill-rule: nonzero; stroke: none; stroke-width: 0.304271; stroke-linecap: butt; stroke-linejoin: miter; stroke-miterlimit: 4; stroke-dasharray: none; stroke-dashoffset: 0; stroke-opacity: 1;"/>
  <circle r="2.082" cy="286.48" cx="327.056" id="circle1635" style="opacity: 1; vector-effect: none; fill-opacity: 1; fill-rule: nonzero; stroke: none; stroke-width: 0.304271; stroke-linecap: butt; stroke-linejoin: miter; stroke-miterlimit: 4; stroke-dasharray: none; stroke-dashoffset: 0; stroke-opacity: 1; fill: rgb(0, 93, 36);" transform="matrix(1.005508, 0, 0, -1, 1.37062, 385.483612)"/>
  <circle style="opacity: 1; vector-effect: none; fill-opacity: 1; fill-rule: nonzero; stroke: none; stroke-width: 0.304271; stroke-linecap: butt; stroke-linejoin: miter; stroke-miterlimit: 4; stroke-dasharray: none; stroke-dashoffset: 0; stroke-opacity: 1; fill: rgb(0, 93, 36);" id="circle1637" cx="383.611" cy="282.946" r="2.082" transform="matrix(1.005508, 0, 0, -1, 1.37062, 385.483612)"/>
  <circle r="3.191" cy="284.783" cx="66.877" id="circle1639" style="opacity: 1; vector-effect: none; fill: none; fill-opacity: 1; fill-rule: nonzero; stroke: none; stroke-width: 0.304271; stroke-linecap: butt; stroke-linejoin: miter; stroke-miterlimit: 4; stroke-dasharray: none; stroke-dashoffset: 0; stroke-opacity: 1;" transform="matrix(1.005508, 0, 0, -1, 1.37062, 385.483612)"/>
  <path id="path1641" d="M 378.114 64.667 C 377.648 64.839 377.175 65.028 376.806 65.361 C 376.623 65.527 376.467 65.728 376.374 65.956 C 376.279 66.188 376.249 66.444 376.305 66.685 C 376.345 66.862 376.433 67.028 376.538 67.176 C 376.644 67.325 376.77 67.457 376.898 67.588 C 378.177 68.896 379.741 70.024 381.547 70.358 C 382.448 70.526 383.397 70.484 384.263 70.179 C 385.127 69.874 385.905 69.299 386.392 68.525 C 386.752 67.954 386.952 67.283 386.949 66.609 C 386.947 65.934 386.741 65.262 386.358 64.707 C 385.981 64.164 385.436 63.739 384.818 63.507 C 384.199 63.273 383.51 63.231 382.866 63.387 C 381.248 63.677 379.657 64.105 378.114 64.667 Z" style="fill: rgb(26, 26, 26); fill-opacity: 1; stroke: none; stroke-width: 0.264583px; stroke-linecap: butt; stroke-linejoin: miter; stroke-opacity: 1;"/>
  <circle r="1.457" cy="313.592" cx="363.367" id="circle1645" style="opacity: 1; vector-effect: none; fill: rgb(26, 26, 26); fill-opacity: 1; fill-rule: nonzero; stroke: none; stroke-width: 0.304271; stroke-linecap: butt; stroke-linejoin: miter; stroke-miterlimit: 4; stroke-dasharray: none; stroke-dashoffset: 0; stroke-opacity: 1;" transform="matrix(1.005508, 0, 0, -1, 1.37062, 385.483612)"/>
  <path id="path1649" d="M 113.391 218.671 C 110.086 215.913 106.929 212.989 103.9 209.933 C 104.704 209.774 105.484 209.619 106.436 209.444 C 117.398 207.43 138.434 204.282 149.117 202.547 C 150.097 202.389 150.59 202.305 151.403 202.17 C 151.568 202.433 151.728 202.699 151.896 202.962 L 113.391 218.671 Z" style="fill: none; stroke: none; stroke-width: 0.264583px; stroke-linecap: butt; stroke-linejoin: miter; stroke-opacity: 1;"/>
  <path id="path1651" d="M 415.977 143.041 L 400.23 125.546 C 406.34 122.015 412.339 118.294 418.217 114.392 L 427.761 139.11 C 427.469 138.917 427.092 138.784 426.571 138.763 C 424.326 138.674 419.607 140.541 416.224 142.858 C 416.138 142.916 416.063 142.98 415.977 143.041 Z" style="fill: rgb(153, 153, 153); fill-opacity: 1; stroke: none; stroke-width: 0.264583px; stroke-linecap: butt; stroke-linejoin: miter; stroke-opacity: 1;"/>
  <path id="path1653" d="M 444.476 145.764 C 446.689 146.311 448.903 147.09 450.194 148.593 C 452.279 151.025 451.783 155.134 451.218 157.361 C 450.654 159.588 450.024 159.955 445.997 159.824 C 444.93 159.79 443.245 159.618 441.801 159.51 C 441.845 159.455 441.916 159.425 441.958 159.367 C 442.415 158.754 442.752 158.07 443.017 157.354 C 443.281 156.637 443.473 155.888 443.639 155.143 C 444.095 153.086 444.392 150.994 444.524 148.893 C 444.589 147.85 444.49 146.808 444.476 145.764 Z" style="fill: rgb(234, 66, 66); fill-opacity: 1; stroke: none; stroke-width: 0.264583px; stroke-linecap: butt; stroke-linejoin: miter; stroke-opacity: 1;"/>
  <path id="path1655" d="M 438.462 159.259 C 435.296 158.92 431.956 158.436 429.1 157.742 C 423.656 156.421 420.193 154.417 419.477 152.017 C 418.758 149.617 420.794 146.863 424.177 144.547 C 427.561 142.23 432.28 140.363 434.525 140.452 C 436.775 140.544 436.554 142.593 436.838 143.602 C 437.12 144.611 437.91 144.581 440.65 144.968 C 440.722 144.975 440.837 145.012 440.911 145.021 C 440.953 146.312 441.049 147.603 440.968 148.893 C 440.837 150.994 440.542 153.086 440.084 155.143 C 439.917 155.888 439.725 156.637 439.46 157.354 C 439.212 158.032 438.883 158.672 438.462 159.259 Z" style="fill: rgb(153, 153, 153); fill-opacity: 1; stroke: none; stroke-width: 0.264583px; stroke-linecap: butt; stroke-linejoin: miter; stroke-opacity: 1;"/>
  <path id="path1657" d="M 438.462 159.259 C 438.883 158.672 439.212 158.032 439.46 157.354 C 439.725 156.637 439.917 155.888 440.084 155.143 C 440.542 153.086 440.837 150.994 440.968 148.893 C 441.049 147.603 440.951 146.312 440.911 145.021 C 441.922 145.166 443.205 145.452 444.476 145.764 C 444.494 146.808 444.589 147.85 444.524 148.893 C 444.392 150.994 444.096 153.086 443.639 155.143 C 443.473 155.888 443.281 156.637 443.017 157.354 C 442.752 158.07 442.415 158.754 441.959 159.367 C 441.916 159.425 441.845 159.455 441.801 159.51 C 440.653 159.425 439.737 159.396 438.464 159.259 L 438.462 159.259 Z" style="fill: rgb(234, 162, 66); fill-opacity: 1; stroke: none; stroke-width: 0.264583px; stroke-linecap: butt; stroke-linejoin: miter; stroke-opacity: 1;"/>
  <rect transform="matrix(0.930109, -0.367284, -0.370788, -0.928725, 425.585052, -575.277588)" ry="0.443" rx="0.443" y="-629.877" x="-583.873" height="3.688" width="26.676" id="rect1659" style="opacity: 1; vector-effect: none; fill: rgb(153, 153, 153); fill-opacity: 1; fill-rule: nonzero; stroke: none; stroke-width: 0.304271; stroke-linecap: butt; stroke-linejoin: miter; stroke-miterlimit: 4; stroke-dasharray: none; stroke-dashoffset: 0; stroke-opacity: 1;"/>
  <path id="path1661" d="M 102.726 265.605 C 102.523 266.096 102.165 266.523 101.712 266.807 C 101.263 267.094 100.72 267.234 100.188 267.208 C 99.653 267.181 99.13 266.985 98.711 266.655 C 98.289 266.328 97.977 265.866 97.825 265.358 C 97.762 265.145 97.724 264.923 97.616 264.732 C 97.536 264.596 97.426 264.481 97.303 264.383 C 97.18 264.281 97.048 264.196 96.917 264.108 C 95.77 263.319 94.858 262.231 94.125 261.052 C 92.618 258.63 91.837 255.822 91.472 252.998 C 90.956 249.015 91.245 244.898 92.586 241.11 C 93.927 237.321 96.351 233.876 99.639 231.545 C 100.123 231.201 100.63 230.879 101.176 230.643 C 102.435 230.094 103.852 230.012 105.223 230.086 C 109.191 230.3 113.099 231.783 116.109 234.362 C 119.12 236.938 121.193 240.611 121.702 244.528 C 122.191 248.327 121.212 252.256 119.195 255.517 C 117.18 258.78 114.165 261.383 110.74 263.134 C 108.24 264.413 105.515 265.252 102.726 265.605 Z" style="fill: rgb(153, 153, 153); fill-opacity: 1; stroke: none; stroke-width: 0.264583px; stroke-linecap: butt; stroke-linejoin: miter; stroke-opacity: 1;"/>
  <path id="path1665" d="M 97.885 265.512 C 97.864 265.461 97.839 265.408 97.824 265.358 C 97.76 265.145 97.724 264.923 97.616 264.732 C 97.536 264.596 97.426 264.481 97.303 264.383 C 97.18 264.283 97.046 264.196 96.917 264.108 C 95.77 263.319 94.858 262.231 94.125 261.054 C 92.618 258.633 91.839 255.822 91.473 252.998 C 90.956 249.015 91.245 244.9 92.586 241.11 C 93.929 237.323 96.353 233.878 99.639 231.546 C 99.829 231.411 100.025 231.285 100.22 231.161 C 100.22 231.169 100.222 231.174 100.22 231.182 C 99.811 237.877 98.897 251.261 98.36 258.956 C 98.031 263.679 97.998 263.998 97.885 265.512 Z" style="fill: rgb(249, 249, 249); stroke: none; stroke-width: 0.264583px; stroke-linecap: butt; stroke-linejoin: miter; stroke-opacity: 1;"/>
  <path id="path1667" d="M 107.769 230.796 C 107.417 230.871 107.036 230.808 106.726 230.625 C 106.416 230.443 106.18 230.138 106.081 229.793 C 105.98 229.448 106.017 229.067 106.18 228.747 C 106.343 228.427 106.632 228.172 106.971 228.05 C 107.298 227.931 107.658 227.933 108.004 227.955 C 108.352 227.975 108.702 228.009 109.045 227.951 C 109.214 227.923 109.381 227.871 109.538 227.804 C 110.067 227.583 110.515 227.211 110.944 226.831 C 111.371 226.454 111.798 226.061 112.303 225.79 C 112.969 225.437 113.766 225.316 114.499 225.497 C 115.234 225.676 115.895 226.16 116.252 226.823 C 116.524 227.327 116.619 227.921 116.558 228.492 C 116.499 229.063 116.295 229.614 116.005 230.112 C 115.822 230.43 115.603 230.724 115.42 231.045 C 115.239 231.363 115.091 231.71 115.067 232.076 C 115.047 232.375 115.113 232.674 115.136 232.975 C 115.149 233.124 115.152 233.276 115.126 233.424 C 115.103 233.573 115.053 233.718 114.969 233.844 C 114.816 234.067 114.548 234.207 114.278 234.207 C 114.005 234.207 113.739 234.067 113.586 233.844 L 107.769 230.796 Z" style="fill: rgb(153, 153, 153); fill-opacity: 1; stroke: none; stroke-width: 0.264583px; stroke-linecap: butt; stroke-linejoin: miter; stroke-opacity: 1;"/>
  <circle r="1.613" cy="157.498" cx="111.6" id="circle1671" style="opacity: 1; vector-effect: none; fill: rgb(51, 51, 51); fill-opacity: 1; fill-rule: nonzero; stroke: none; stroke-width: 0.304271; stroke-linecap: butt; stroke-linejoin: miter; stroke-miterlimit: 4; stroke-dasharray: none; stroke-dashoffset: 0; stroke-opacity: 1;" transform="matrix(1.005508, 0, 0, -1, 1.37062, 385.483612)"/>
  <path id="path1677" d="M 158.719 254.423 C 154.373 256.311 149.654 257.31 144.914 257.369 C 138.667 257.447 132.395 255.957 126.938 252.93 C 125.334 252.041 123.755 250.983 122.748 249.457 C 122.017 248.348 121.628 247.035 121.533 245.713 C 121.436 244.389 121.63 243.056 121.993 241.78 C 122.726 239.229 124.128 236.93 125.401 234.6 C 126.308 232.942 127.158 231.247 127.776 229.461 C 128.913 226.174 129.224 222.606 128.693 219.17 L 133.417 217.304 C 134.872 223.108 134.726 229.303 132.942 235.018 C 132.822 235.402 132.691 235.79 132.641 236.191 C 132.587 236.593 132.618 237.016 132.801 237.378 C 133.012 237.791 133.399 238.084 133.78 238.349 C 136.427 240.188 139.515 241.392 142.714 241.82 C 146.885 242.381 151.191 241.537 154.906 239.576 C 154.636 240.913 154.419 242.267 154.423 243.629 C 154.428 245.237 154.633 246.838 155.075 248.384 C 155.519 249.931 156.205 251.415 157.108 252.749 C 157.543 253.395 158.183 253.86 158.719 254.423 Z" style="fill: rgb(153, 153, 153); fill-opacity: 1; stroke: none; stroke-width: 0.264583px; stroke-linecap: butt; stroke-linejoin: miter; stroke-opacity: 1;"/>
  <path id="path1691" d="M 156.137 251.072 C 155.704 250.209 155.342 249.31 155.075 248.384 C 154.633 246.838 154.428 245.237 154.423 243.629 C 154.422 243.025 154.467 242.422 154.538 241.822 L 157.807 241.251 C 158.958 242.962 159.737 244.92 160.029 246.958 C 160.178 247.995 160.196 249.051 160.105 250.095 L 156.137 251.072 Z" style="fill: rgb(153, 153, 153); fill-opacity: 1; stroke: none; stroke-width: 0.264583px; stroke-linecap: butt; stroke-linejoin: miter; stroke-opacity: 1;"/>
  <path id="path1687" d="M 164.854 250.453 L 162.804 250.854 L 162.483 251.638 C 162.494 251.774 162.467 251.91 162.411 252.033 C 162.352 252.153 162.26 252.259 162.146 252.337 C 162.036 252.414 161.904 252.461 161.769 252.472 C 161.633 252.484 161.496 252.456 161.372 252.398 C 161.171 252.305 161.021 252.131 160.879 251.958 C 159.992 250.873 159.211 249.69 158.679 248.396 C 158.145 247.101 157.86 245.694 157.966 244.3 C 158.059 243.076 158.467 241.856 159.25 240.911 C 159.351 240.792 159.455 240.678 159.578 240.582 C 159.7 240.485 159.838 240.407 159.989 240.371 C 160.154 240.335 160.331 240.345 160.488 240.409 C 160.645 240.47 160.786 240.576 160.879 240.716 L 162.752 240.349 C 162.693 240.662 162.494 240.937 162.458 241.252 C 162.254 243 162.392 244.785 162.89 246.473 C 163.308 247.894 163.974 249.238 164.84 250.442 C 164.844 250.446 164.848 250.45 164.852 250.453 L 164.854 250.453 Z" style="fill-opacity: 1; stroke: none; stroke-width: 0.264583px; stroke-linecap: butt; stroke-linejoin: miter; stroke-opacity: 1; fill: rgb(77, 77, 77);"/>
  <path id="path1689" d="M 164.852 250.453 C 164.848 250.45 164.844 250.446 164.838 250.44 C 163.974 249.238 163.307 247.892 162.888 246.473 C 162.392 244.785 162.255 242.998 162.457 241.252 C 162.495 240.937 162.691 240.662 162.75 240.349 L 188.651 235.293 C 188.76 235.094 188.952 234.939 189.172 234.878 C 189.401 234.813 189.657 234.848 189.86 234.972 C 190.062 235.096 190.21 235.305 190.255 235.538 C 191.131 235.582 191.993 235.891 192.694 236.414 C 193.397 236.934 193.939 237.667 194.233 238.49 C 194.525 239.312 194.567 240.221 194.352 241.064 C 194.135 241.91 193.665 242.689 193.012 243.272 C 192.817 243.447 192.606 243.604 192.415 243.779 C 192.222 243.957 192.043 244.155 191.93 244.391 C 191.803 244.657 191.761 244.965 191.618 245.223 C 191.454 245.516 191.157 245.73 190.824 245.797 C 190.493 245.861 190.136 245.776 189.872 245.568 L 164.852 250.453 Z" style="fill-opacity: 1; stroke: none; stroke-width: 0.264583px; stroke-linecap: butt; stroke-linejoin: miter; stroke-opacity: 1; fill: rgb(77, 77, 77);"/>
  <path id="path1693" d="M 124.737 233.814 C 123.9 233.687 123.151 233.581 122.372 233.466 C 124.83 227.387 125.55 220.627 124.41 214.176 L 126.686 213.247 C 127.415 220.142 126.749 227.175 124.737 233.814 Z" style="fill: rgb(51, 51, 51); fill-opacity: 1; stroke: none; stroke-width: 0.264583px; stroke-linecap: butt; stroke-linejoin: miter; stroke-opacity: 1;"/>
  <path id="path1695" d="M 117.53 235.752 C 117.082 235.265 116.617 234.793 116.111 234.362 C 115.212 233.592 114.226 232.931 113.187 232.362 C 114.4 232.007 115.561 231.478 116.598 230.759 C 118.221 229.633 119.55 228.086 120.418 226.318 C 121.287 224.548 121.693 222.558 121.588 220.591 C 121.501 218.943 121.036 217.327 120.276 215.862 L 121.383 215.411 C 122.785 218.033 123.482 221.029 123.34 223.998 C 123.148 227.921 121.495 231.758 118.77 234.6 C 118.378 235.008 117.962 235.387 117.53 235.752 Z" style="fill: rgb(51, 51, 51); fill-opacity: 1; stroke: none; stroke-width: 0.264583px; stroke-linecap: butt; stroke-linejoin: miter; stroke-opacity: 1;"/>
  <path id="path1697" d="M 120.534 218.428 L 119.616 216.131 L 136.871 209.091 L 137.87 211.592 C 137.843 211.6 137.817 211.604 137.793 211.612 L 120.534 218.428 Z" style="opacity: 1; vector-effect: none; fill: rgb(51, 51, 51); fill-opacity: 1; fill-rule: nonzero; stroke: none; stroke-width: 0.304271; stroke-linecap: butt; stroke-linejoin: miter; stroke-miterlimit: 4; stroke-dasharray: none; stroke-dashoffset: 0; stroke-opacity: 1;"/>
  <path id="path1699" d="M 155.21 294.199 C 153.473 292.821 151.345 291.929 149.132 291.723 C 148.928 291.703 148.721 291.691 148.518 291.651 C 148.316 291.613 148.114 291.547 147.945 291.43 C 147.789 291.324 147.665 291.178 147.572 291.013 C 147.479 290.849 147.421 290.67 147.384 290.487 C 147.312 290.12 147.334 289.743 147.354 289.368 C 147.618 284.593 147.503 279.801 147.158 275.03 C 146.472 265.583 144.883 256.199 142.417 247.049 C 142.782 246.589 143.32 246.269 143.9 246.165 C 144.471 246.06 145.077 246.168 145.578 246.459 C 147.216 259.841 149.295 273.165 151.809 286.411 C 151.811 286.427 151.816 286.444 151.822 286.458 C 151.825 286.475 151.833 286.486 151.847 286.5 C 151.854 286.507 151.867 286.514 151.879 286.52 C 151.892 286.525 151.908 286.525 151.921 286.528 C 151.95 286.528 151.974 286.525 152.001 286.514 C 154.163 286.029 156.423 285.993 158.603 286.391 C 157.502 287.393 156.576 288.58 155.98 289.935 C 155.394 291.27 155.152 292.743 155.212 294.199 L 155.21 294.199 Z" style="fill: rgb(153, 153, 153); fill-opacity: 1; stroke: none; stroke-width: 0.264583px; stroke-linecap: butt; stroke-linejoin: miter; stroke-opacity: 1;"/>
  <path id="path1701" d="M 170.291 306.945 C 167.852 306.817 165.438 306.2 163.24 305.14 C 160.432 303.787 157.946 301.665 156.497 298.917 C 155.773 297.544 155.317 296.025 155.212 294.478 C 155.108 292.931 155.356 291.356 155.98 289.935 C 156.793 288.081 158.218 286.536 159.873 285.362 C 161.528 284.191 163.411 283.368 165.334 282.714 C 166.748 282.232 168.205 281.83 169.698 281.763 C 171.194 281.695 172.733 281.98 173.991 282.783 C 174.883 283.352 175.604 284.163 176.148 285.069 C 176.694 285.973 177.065 286.972 177.342 287.991 C 178.285 291.459 178.114 295.217 176.859 298.588 C 175.606 301.957 173.277 304.921 170.291 306.945 Z" style="fill: rgb(153, 153, 153); fill-opacity: 1; stroke: none; stroke-width: 0.264583px; stroke-linecap: butt; stroke-linejoin: miter; stroke-opacity: 1;"/>
  <path id="path1675" d="M 115.475 244.215 C 115.874 242.341 116.291 240.496 116.566 238.443 C 116.811 236.635 116.922 234.638 117.064 232.683 C 120.173 233.11 124.043 233.681 128.594 234.382 L 128.594 244.495 C 123.381 244.406 118.647 244.316 115.475 244.215 Z" style="fill: rgb(180, 180, 180); fill-opacity: 1; stroke: none; stroke-width: 0.264583px; stroke-linecap: butt; stroke-linejoin: miter; stroke-opacity: 1;"/>
  <path id="path1673" d="M 115.475 244.215 C 115.122 244.204 114.316 244.198 114.016 244.187 C 111.022 244.073 110.826 243.941 110.535 242.986 C 110.246 242.032 109.872 240.276 109.919 238.344 C 109.969 236.414 110.447 234.32 110.865 233.208 C 111.285 232.093 111.648 231.96 114.59 232.32 C 115.109 232.382 116.397 232.594 117.064 232.685 C 116.922 234.638 116.811 236.636 116.566 238.443 C 116.291 240.496 115.874 242.343 115.475 244.217 L 115.475 244.215 Z" style="fill: rgb(234, 162, 66); fill-opacity: 1; stroke: none; stroke-width: 0.264583px; stroke-linecap: butt; stroke-linejoin: miter; stroke-opacity: 1;"/>
  <path id="path1681" d="M 132.898 251.212 C 131.276 251.661 129.595 251.882 127.939 251.577 C 125.442 251.116 123.119 249.769 121.486 247.836 C 122.835 243.668 125.898 240.081 129.809 238.077 C 129.937 238.325 130.133 238.531 130.25 238.78 C 131.182 240.727 131.886 242.781 132.346 244.888 C 132.663 246.336 132.862 247.809 132.944 249.287 C 132.983 249.93 132.906 250.57 132.898 251.212 Z" style="fill: rgb(180, 180, 180); fill-opacity: 1; stroke: none; stroke-width: 0.264583px; stroke-linecap: butt; stroke-linejoin: miter; stroke-opacity: 1;"/>
  <path id="path1683" d="M 132.898 251.212 C 132.908 250.57 132.98 249.927 132.944 249.287 C 132.862 247.809 132.663 246.336 132.346 244.888 C 131.886 242.781 131.182 240.727 130.25 238.78 C 130.133 238.531 129.938 238.323 129.809 238.077 C 129.82 238.074 129.823 238.069 129.831 238.066 C 130.025 237.966 130.219 237.871 130.425 237.805 C 130.633 237.738 130.849 237.702 131.065 237.721 C 131.316 237.741 131.557 237.844 131.77 237.978 C 131.98 238.113 132.166 238.282 132.348 238.458 C 133.745 239.811 134.773 241.521 135.381 243.366 C 135.987 245.208 136.174 247.179 136.001 249.11 C 135.985 249.306 135.959 249.502 135.904 249.691 C 135.846 249.878 135.753 250.059 135.608 250.193 C 135.519 250.269 135.416 250.33 135.309 250.386 C 134.563 250.798 133.723 250.983 132.9 251.212 L 132.898 251.212 Z" style="fill: rgb(51, 51, 51); fill-opacity: 1; stroke: none; stroke-width: 0.264583px; stroke-linecap: butt; stroke-linejoin: miter; stroke-opacity: 1;"/>
  <path id="path1567" d="M 412.736 120.484 C 412.324 120.451 411.916 120.355 411.551 120.166 C 411.184 119.98 410.862 119.699 410.651 119.347 C 410.45 119.008 410.358 118.608 410.364 118.213 C 410.37 117.819 410.469 117.428 410.628 117.068 C 410.948 116.344 411.494 115.748 412.048 115.182 C 415.335 111.827 419.216 109.116 423.078 106.433 C 424.125 105.705 425.182 104.971 426.09 104.076 C 426.998 103.181 427.76 102.104 428.106 100.879 C 428.181 100.607 428.237 100.327 428.245 100.043 C 428.254 99.762 428.214 99.473 428.106 99.213 C 427.994 98.947 427.813 98.713 427.597 98.522 C 427.379 98.332 427.126 98.185 426.859 98.073 C 426.324 97.85 425.745 97.768 425.172 97.687 C 417.553 96.592 409.998 95.111 402.414 93.798 C 391.791 91.959 381.115 90.447 370.44 88.937 C 369.649 88.825 368.852 88.713 368.105 88.429 C 367.36 88.145 366.661 87.674 366.251 86.992 C 365.959 86.505 365.83 85.925 365.86 85.357 C 365.889 84.789 366.074 84.234 366.371 83.748 C 366.962 82.775 367.967 82.101 369.044 81.717 C 370.506 81.197 372.097 81.17 373.652 81.161 C 388.786 81.071 403.905 81.96 419.028 82.55 C 426.386 82.838 433.751 83.052 441.089 83.66 C 447.234 84.171 453.572 85.028 458.82 88.242 C 459.892 88.899 460.917 89.658 461.704 90.635 C 462.489 91.612 463.022 92.824 463.011 94.076 C 462.999 95.087 462.632 96.076 462.069 96.921 C 461.505 97.763 460.754 98.468 459.938 99.074 C 458.849 99.883 457.647 100.523 456.448 101.158 C 443.344 108.075 429.97 114.538 416.097 119.764 C 415.015 120.172 413.888 120.578 412.736 120.484 Z" style="fill: rgb(153, 153, 153); fill-opacity: 1; stroke: none; stroke-width: 0.264583px; stroke-linecap: butt; stroke-linejoin: miter; stroke-opacity: 1;"/>
  <path id="path1856" d="M 259.401 183.089 C 257.391 188.374 254.538 193.341 250.98 197.745 C 249.996 198.959 248.965 200.131 247.971 201.335 C 238.834 212.421 233.381 226.169 230.528 240.221 C 223.995 272.357 230.984 306.997 249.475 334.141 L 309.026 305.725 C 300.392 300.801 293.654 292.682 290.425 283.322 C 287.196 273.96 287.507 263.436 291.28 254.279 C 292.426 251.499 293.884 248.824 294.589 245.903 C 295.553 241.914 295.047 237.705 294.025 233.731 C 293.006 229.757 291.484 225.925 290.377 221.973 C 288.964 216.912 288.238 211.663 286.518 206.696 C 285.657 204.212 284.546 201.802 283.031 199.649 C 281.517 197.496 279.59 195.605 277.296 194.305 C 275.436 193.253 273.327 192.581 271.73 191.166 C 270.158 189.769 269.248 187.801 268.141 186.015 C 267.586 185.124 266.968 184.26 266.196 183.544 C 265.426 182.827 264.491 182.262 263.46 182.04 C 262.043 181.738 260.491 182.141 259.401 183.089 Z" style="fill-opacity: 1; stroke: none; stroke-width: 0.264583px; stroke-linecap: butt; stroke-linejoin: miter; stroke-opacity: 1; fill: rgb(77, 77, 77);" transform="matrix(-1, 0, 0, -1, 537.157471, 516.082336)"/>
  <path id="path1860" d="M 239.736 257.073 C 237.397 259.403 235.731 262.346 234.655 265.461 C 233.582 268.573 233.087 271.862 232.896 275.148 C 232.513 281.722 233.328 288.319 232.93 294.891 C 232.907 295.279 232.878 295.67 232.93 296.054 C 233.042 296.898 233.526 297.654 234.125 298.261 C 234.722 298.868 235.439 299.346 236.126 299.848 C 240.665 303.14 244.313 307.497 248.633 311.067 C 250.792 312.854 253.136 314.451 255.723 315.541 C 258.312 316.63 261.156 317.2 263.946 316.897 C 264.553 316.831 265.155 316.724 265.752 316.598 C 271.213 315.432 276.259 312.427 279.871 308.193 C 283.483 303.957 285.639 298.516 285.903 292.968 C 278.169 289.357 271.807 282.921 268.309 275.169 C 266.471 271.095 265.407 266.702 263.52 262.648 C 262.574 260.621 261.42 258.676 259.924 257.011 C 258.429 255.344 256.58 253.961 254.474 253.185 C 251.956 252.257 249.137 252.238 246.556 252.974 C 243.976 253.711 241.632 255.183 239.736 257.073 Z" style="fill-opacity: 1; stroke: none; stroke-width: 0.264583px; stroke-linecap: butt; stroke-linejoin: miter; stroke-opacity: 1; fill: rgb(41, 181, 62);" transform="matrix(-1, 0, 0, -1, 518.693665, 569.430359)"/>
  <path id="path1884" d="M 167.527 66.004 C 165.357 68.996 162.624 71.578 159.506 73.575 C 157.926 74.588 156.237 75.458 154.822 76.692 C 153.687 77.68 152.741 78.898 152.164 80.287 C 151.589 81.676 151.397 83.235 151.72 84.705 C 151.938 85.69 152.39 86.63 153.072 87.379 C 154.002 88.396 155.31 89.001 156.636 89.381 C 157.964 89.764 159.339 89.947 160.682 90.271 C 166.667 91.716 171.578 95.823 176.588 99.397 C 184.338 104.93 193.259 109.546 202.779 109.639 C 204.774 109.658 206.831 109.46 208.589 108.526 C 209.171 108.217 209.714 107.826 210.16 107.341 C 210.608 106.856 210.951 106.273 211.118 105.635 C 211.283 104.997 211.263 104.306 211.017 103.694 C 210.769 103.082 210.291 102.557 209.683 102.292 C 209.234 102.097 208.735 102.047 208.244 102.047 C 207.757 102.045 207.267 102.089 206.776 102.07 C 204.938 101.994 203.237 101.013 201.881 99.77 C 200.523 98.528 199.442 97.022 198.26 95.615 C 195.924 92.836 193.176 90.423 190.83 87.652 C 188.483 84.883 186.504 81.628 186.124 78.029 C 185.936 76.227 186.162 74.385 186.779 72.685 L 167.527 66.006 L 167.527 66.004 Z" style="fill: rgb(51, 51, 51); fill-opacity: 1; stroke: none; stroke-width: 0.264583px; stroke-linecap: butt; stroke-linejoin: miter; stroke-opacity: 1;" transform="matrix(-0.940985, 0.338448, -0.338448, -0.940985, 381.806976, 109.068825)"/>
  <path id="path1864" d="M 228.131 210.361 L 287.683 181.945 C 279.735 177.288 271.244 173.586 262.584 170.48 C 242.899 163.413 201.473 171.899 201.945 154.295 L 203.343 102.42 C 195.716 97.347 186.041 95.423 177.04 97.189 C 176.494 97.295 175.947 97.417 175.408 97.55 C 173.784 116.201 166.071 184.269 181.813 195.104 C 187.776 199.209 228.131 210.361 228.131 210.361 Z" style="fill: rgb(102, 102, 102); fill-opacity: 1; stroke: none; stroke-width: 0.142485px; stroke-linecap: butt; stroke-linejoin: miter; stroke-opacity: 1;"/>
  <path id="path1866" d="M 232.793 276.462 C 239.232 273.904 245.323 270.473 250.838 266.293 C 252.381 265.125 253.894 263.885 255.109 262.384 C 256.328 260.88 257.247 259.088 257.455 257.17 C 257.559 256.214 257.48 255.233 257.154 254.329 C 256.901 253.63 256.489 252.998 255.974 252.461 C 255.564 252.47 255.157 252.492 254.747 252.534 C 254.14 252.598 253.541 252.705 252.943 252.833 C 247.483 253.999 242.437 257.001 238.826 261.238 C 235.214 265.474 233.058 270.914 232.792 276.462 L 232.793 276.462 Z" style="fill: rgb(51, 51, 51); fill-opacity: 1; stroke: none; stroke-width: 0.142485px; stroke-linecap: butt; stroke-linejoin: miter; stroke-opacity: 1;"/>
  <path id="path1868" d="M 232.793 276.462 C 239.232 273.904 245.323 270.473 250.838 266.293 C 252.381 265.125 253.894 263.885 255.109 262.384 C 255.286 262.166 255.452 261.944 255.614 261.714 C 247.62 257.914 239.26 254.872 230.685 252.647 C 222.193 250.447 213.512 249.051 204.846 247.677 C 200.593 247.003 196.338 246.332 192.083 245.667 C 191.731 243.385 190.491 241.247 188.681 239.8 C 187.122 238.55 185.153 237.815 183.153 237.736 C 180.923 235.538 178.222 233.814 175.283 232.714 C 171.751 231.39 167.879 230.974 164.144 231.521 C 161.825 233.77 160.402 236.905 160.236 240.121 C 160.179 241.188 160.258 242.274 160.597 243.289 C 160.937 244.306 161.546 245.249 162.414 245.879 C 163.447 246.629 164.78 246.9 165.798 247.673 C 166.382 248.118 166.837 248.708 167.217 249.332 C 167.598 249.956 167.913 250.619 168.26 251.263 C 168.609 251.907 168.994 252.535 169.501 253.065 C 170.009 253.592 170.645 254.019 171.361 254.178 C 171.51 254.212 171.661 254.232 171.813 254.254 C 176.24 254.839 180.752 254.039 185.196 254.479 C 186.46 254.603 187.711 254.828 188.957 255.077 C 204.537 258.193 219.294 265.251 231.493 275.379 C 232.348 275.744 232.809 276.103 232.793 276.462 Z" style="fill: rgb(246, 152, 152); fill-opacity: 1; stroke: none; stroke-width: 0.142485px; stroke-linecap: butt; stroke-linejoin: miter; stroke-opacity: 1;"/>
  <path id="path1870" d="M 253.987 380.192 C 257.801 380.204 261.627 379.512 265.244 378.283 C 269.836 376.721 274.216 374.229 277.312 370.511 C 278.862 368.652 280.074 366.503 280.758 364.186 C 281.441 361.871 281.59 359.389 281.088 357.027 C 280.218 352.939 277.506 349.497 275.983 345.605 C 274.562 341.976 274.24 337.943 274.985 334.123 C 274.554 334.151 274.118 334.135 273.696 334.042 C 272.665 333.823 271.73 333.256 270.959 332.541 C 270.188 331.825 269.572 330.961 269.018 330.068 C 267.908 328.282 267 326.316 265.426 324.919 C 263.829 323.504 261.722 322.83 259.86 321.78 C 258.479 320.997 257.229 319.995 256.124 318.853 L 256.204 322.126 C 254.835 320.306 253.221 318.665 251.418 317.262 C 248.959 315.346 246.009 313.841 242.884 313.839 C 241.321 313.839 239.744 314.23 238.421 315.055 C 237.095 315.88 236.036 317.152 235.575 318.638 C 235.215 319.797 235.22 321.033 235.042 322.234 C 234.849 323.539 234.437 324.802 233.98 326.04 C 232.788 329.267 231.277 332.391 230.42 335.72 C 229.564 339.051 229.414 342.71 230.898 345.817 C 231.017 346.069 231.15 346.318 231.254 346.581 C 231.355 346.845 231.43 347.121 231.428 347.403 C 231.428 347.763 231.303 348.11 231.15 348.438 C 230.999 348.763 230.815 349.078 230.685 349.413 C 230.317 350.351 230.374 351.398 230.566 352.388 C 230.758 353.376 231.077 354.338 231.215 355.335 C 231.605 358.066 230.641 360.828 230.79 363.582 C 230.955 366.648 232.496 369.507 234.513 371.831 C 238.141 376.019 243.347 378.725 248.815 379.722 C 250.522 380.035 252.254 380.186 253.987 380.192 Z" style="fill: rgb(246, 152, 152); fill-opacity: 1; stroke: none; stroke-width: 0.142485px; stroke-linecap: butt; stroke-linejoin: miter; stroke-opacity: 1;"/>
  <path style="fill-opacity: 1; stroke: none; stroke-width: 0.264583px; stroke-linecap: butt; stroke-linejoin: miter; stroke-opacity: 1; fill: rgb(41, 181, 62);" d="M 232.25 334.283 C 238.422 329.79 246.209 327.595 253.804 328.208 C 261.398 328.821 268.738 332.236 274.12 337.661 C 276.436 339.998 278.394 342.69 279.93 345.607 C 283.6 352.571 284.756 360.93 282.666 368.528 C 280.578 376.123 275.148 382.821 267.974 385.994 C 267.047 386.404 266.085 386.76 265.083 386.889 C 264.078 387.018 263.021 386.904 262.13 386.425 C 261.926 386.317 261.73 386.186 261.567 386.02 C 261.404 385.852 261.276 385.648 261.223 385.422 C 261.171 385.209 261.189 384.987 261.232 384.772 C 261.276 384.559 261.347 384.352 261.404 384.142 C 261.827 382.579 261.49 380.851 260.622 379.487 C 259.75 378.123 258.378 377.115 256.861 376.564 C 255.44 376.045 253.903 375.915 252.391 375.958 C 250.878 376.005 249.377 376.221 247.871 376.38 C 245.738 376.608 243.512 376.709 241.514 375.924 C 240.265 375.434 239.164 374.614 238.227 373.65 C 237.292 372.688 236.51 371.581 235.792 370.445 C 229.088 359.84 227.733 345.999 232.25 334.283 Z" id="path1872" transform="matrix(0, 1, -1, 0, 614.179932, 100.865334)"/>
  <circle transform="matrix(0, 1, 1.005508, 0, 144.653336, 516.619141)" style="opacity: 1; vector-effect: none; fill: none; fill-opacity: 1; fill-rule: nonzero; stroke-width: 0.281436; stroke-linecap: butt; stroke-linejoin: miter; stroke-miterlimit: 4; stroke-dasharray: none; stroke-dashoffset: 0; stroke-opacity: 1; stroke: rgb(0, 93, 36);" id="circle1876" cx="-160.617" cy="106.53" r="6.63"/>
  <circle transform="matrix(0, 1, 1.005508, 0, 144.653336, 516.619141)" r="4.127" cy="106.53" cx="-160.617" id="circle1878" style="opacity: 1; vector-effect: none; fill: none; fill-opacity: 1; fill-rule: nonzero; stroke-width: 0.281436; stroke-linecap: butt; stroke-linejoin: miter; stroke-miterlimit: 4; stroke-dasharray: none; stroke-dashoffset: 0; stroke-opacity: 1; stroke: rgb(0, 93, 36);"/>
  <circle transform="matrix(0, 1, 1.005508, 0, 142.087906, 507.101868)" style="opacity: 1; vector-effect: none; fill-opacity: 1; fill-rule: nonzero; stroke: none; stroke-width: 0.0547001; stroke-linecap: butt; stroke-linejoin: miter; stroke-miterlimit: 4; stroke-dasharray: none; stroke-dashoffset: 0; stroke-opacity: 1; fill: rgb(0, 93, 36);" id="circle1880" cx="-163.632" cy="105.722" r="1.288"/>
  <circle transform="matrix(0, 1, 1.005508, 0, 158.661758, 502.550049)" r="1.288" cy="110.944" cx="-165.074" id="circle1882" style="opacity: 1; vector-effect: none; fill-opacity: 1; fill-rule: nonzero; stroke: none; stroke-width: 0.0547001; stroke-linecap: butt; stroke-linejoin: miter; stroke-miterlimit: 4; stroke-dasharray: none; stroke-dashoffset: 0; stroke-opacity: 1; fill: rgb(0, 93, 36);"/>
  <path id="path1685" d="M 132.623 246.467 C 132.542 245.94 132.459 245.41 132.346 244.888 C 132.108 243.788 131.797 242.703 131.427 241.64 C 131.991 241.307 132.59 241.032 133.22 240.847 C 134.794 240.39 136.466 240.434 138.109 240.432 C 145.077 240.419 152.137 239.442 158.511 236.641 C 161.325 235.402 163.984 233.814 166.409 231.928 C 166.429 231.448 166.579 230.974 166.838 230.569 C 167.095 230.162 167.459 229.826 167.887 229.599 C 168.312 229.372 168.797 229.258 169.279 229.271 C 169.761 229.283 170.24 229.42 170.655 229.667 C 171.057 229.909 171.396 230.254 171.641 230.652 C 172.046 231.31 172.193 232.127 172.015 232.88 C 171.838 233.631 171.336 234.306 170.655 234.676 C 170.146 234.952 169.546 235.057 168.975 234.972 C 164.298 238.006 159.201 240.393 153.869 242.042 C 152.466 242.476 151.048 242.857 149.624 243.219 C 144.029 244.639 138.348 245.711 132.623 246.465 L 132.623 246.467 Z" style="fill: rgb(180, 180, 180); fill-opacity: 1; stroke: none; stroke-width: 0.264583px; stroke-linecap: butt; stroke-linejoin: miter; stroke-opacity: 1;"/>
  <rect style="opacity: 1; vector-effect: none; fill-opacity: 1; fill-rule: nonzero; stroke: none; stroke-width: 0.304271; stroke-linecap: butt; stroke-linejoin: miter; stroke-miterlimit: 4; stroke-dasharray: none; stroke-dashoffset: 0; stroke-opacity: 1; fill: rgb(156, 234, 66);" id="rect1916" width="98.269" height="116.323" x="318.821" y="-304.757" rx="2.531" ry="2.531" transform="matrix(1, 0, 0, -1, 0, 0)"/>
  <path style="opacity: 1; vector-effect: none; fill-opacity: 1; fill-rule: nonzero; stroke: none; stroke-width: 0.304271; stroke-linecap: butt; stroke-linejoin: miter; stroke-miterlimit: 4; stroke-dasharray: none; stroke-dashoffset: 0; stroke-opacity: 1; fill: rgb(46, 199, 0);" d="M 329.401 304.757 C 323.541 304.757 318.821 300.065 318.821 294.236 L 318.821 273.27 L 417.092 273.27 L 417.092 294.236 C 417.092 300.065 412.371 304.757 406.512 304.757 L 329.401 304.757 Z" id="rect1918"/>
  <rect style="opacity: 1; vector-effect: none; fill-opacity: 1; fill-rule: nonzero; stroke: none; stroke-width: 0.304271; stroke-linecap: butt; stroke-linejoin: miter; stroke-miterlimit: 4; stroke-dasharray: none; stroke-dashoffset: 0; stroke-opacity: 1; fill: rgb(0, 93, 36);" id="rect1923" width="9.184" height="18.267" x="363.366" y="-283.478" rx="0.583" ry="0.583" transform="matrix(1, 0, 0, -1, 0, 0)"/>
</svg>