<?xml version="1.0" encoding="utf-8"?>
<svg viewBox="0 0 500 500" xmlns="http://www.w3.org/2000/svg">
  <path style="opacity:1;vector-effect:none;fill:#333333;fill-opacity:1;fill-rule:nonzero;stroke:none;stroke-width:0.37295169;stroke-linecap:butt;stroke-linejoin:miter;stroke-miterlimit:4;stroke-dasharray:none;stroke-dashoffset:0;stroke-opacity:1" d="M 310.017 306.073 C 295.713 306.073 284.117 317.669 284.117 331.973 C 284.118 346.277 295.714 357.872 310.017 357.872 C 324.321 357.872 335.916 346.277 335.916 331.973 C 335.917 317.669 324.322 306.073 310.017 306.073 Z M 310.017 310.538 C 321.855 310.538 331.452 320.135 331.452 331.973 C 331.452 343.811 321.855 353.407 310.017 353.407 C 298.18 353.407 288.583 343.811 288.583 331.973 C 288.583 320.135 298.18 310.538 310.017 310.538 Z" id="circle1581"/>
  <path style="opacity:1;vector-effect:none;fill:#999999;fill-opacity:1;fill-rule:nonzero;stroke:none;stroke-width:0.3086547;stroke-linecap:butt;stroke-linejoin:miter;stroke-miterlimit:4;stroke-dasharray:none;stroke-dashoffset:0;stroke-opacity:1" d="M 310.017 310.538 C 298.18 310.538 288.583 320.135 288.583 331.973 C 288.583 343.811 298.18 353.407 310.017 353.407 C 321.855 353.407 331.452 343.811 331.452 331.973 C 331.452 320.135 321.855 310.538 310.017 310.538 Z M 310.017 314.191 C 319.838 314.191 327.799 322.152 327.798 331.973 C 327.798 341.793 319.838 349.754 310.017 349.754 C 300.197 349.754 292.237 341.793 292.237 331.973 C 292.236 322.152 300.197 314.191 310.017 314.191 L 310.017 314.191 Z" id="circle1583"/>
  <path style="opacity:1;vector-effect:none;fill:#666666;fill-opacity:1;fill-rule:nonzero;stroke:none;stroke-width:0.25604811;stroke-linecap:butt;stroke-linejoin:miter;stroke-miterlimit:4;stroke-dasharray:none;stroke-dashoffset:0;stroke-opacity:1" d="M 310.017 314.191 C 300.197 314.191 292.236 322.152 292.237 331.973 C 292.237 341.793 300.197 349.754 310.017 349.754 C 319.838 349.754 327.798 341.793 327.798 331.973 C 327.799 322.152 319.838 314.191 310.017 314.191 L 310.017 314.191 Z M 310.017 317.642 C 317.932 317.642 324.349 324.058 324.348 331.973 C 324.349 339.888 317.932 346.304 310.017 346.304 C 302.103 346.304 295.686 339.888 295.686 331.973 C 295.686 324.058 302.103 317.642 310.017 317.642 Z" id="circle1585"/>
  <circle r="10.3" cy="329.663" cx="148.09" id="circle1627" style="opacity:1;vector-effect:none;fill:#999999;fill-opacity:1;fill-rule:nonzero;stroke:none;stroke-width:0.12210884;stroke-linecap:butt;stroke-linejoin:miter;stroke-miterlimit:4;stroke-dasharray:none;stroke-dashoffset:0;stroke-opacity:1"/>
  <path id="path1679" d="M 201.024 225.45 C 200.744 225.746 200.41 225.99 200.182 226.329 C 199.711 227.029 199.353 227.808 199.122 228.62 C 198.891 229.431 198.783 230.272 198.781 231.116 C 198.779 231.831 198.892 232.541 199.033 233.243 C 199.218 233.341 199.415 233.413 199.594 233.523 C 200.728 232.42 201.484 230.934 201.707 229.368 C 201.893 228.066 201.714 226.715 201.197 225.506 C 201.141 225.481 201.08 225.474 201.024 225.45 L 201.024 225.45 Z" style="fill:#333333;fill-opacity:1;stroke:none;stroke-width:0.26458332px;stroke-linecap:butt;stroke-linejoin:miter;stroke-opacity:1"/>
  <path style="opacity:1;vector-effect:none;fill:#333333;fill-opacity:1;fill-rule:nonzero;stroke:none;stroke-width:0.3344301;stroke-linecap:butt;stroke-linejoin:miter;stroke-miterlimit:4;stroke-dasharray:none;stroke-dashoffset:0;stroke-opacity:1" d="M 148.09 301.454 C 132.511 301.454 119.88 314.084 119.88 329.663 C 119.88 345.242 132.511 357.872 148.09 357.872 C 163.669 357.872 176.299 345.242 176.299 329.663 C 176.299 314.084 163.669 301.454 148.09 301.454 Z M 148.09 306.745 C 160.747 306.745 171.007 317.006 171.007 329.663 C 171.007 342.319 160.746 352.579 148.09 352.58 C 135.433 352.58 125.172 342.32 125.172 329.663 C 125.172 317.006 135.433 306.745 148.09 306.745 Z" id="circle1619"/>
  <path style="opacity:1;vector-effect:none;fill:#999999;fill-opacity:1;fill-rule:nonzero;stroke:none;stroke-width:0.27169883;stroke-linecap:butt;stroke-linejoin:miter;stroke-miterlimit:4;stroke-dasharray:none;stroke-dashoffset:0;stroke-opacity:1" d="M 148.09 306.745 C 135.433 306.745 125.172 317.006 125.172 329.663 C 125.172 342.32 135.433 352.58 148.09 352.58 C 160.746 352.579 171.007 342.319 171.007 329.663 C 171.007 317.006 160.747 306.745 148.09 306.745 Z M 148.09 311.223 C 158.274 311.223 166.53 319.479 166.53 329.663 C 166.53 339.847 158.274 348.103 148.09 348.103 C 137.905 348.104 129.649 339.848 129.649 329.663 C 129.649 319.478 137.905 311.222 148.09 311.223 L 148.09 311.223 Z" id="circle1621"/>
  <path style="opacity:1;vector-effect:none;fill:#666666;fill-opacity:1;fill-rule:nonzero;stroke:none;stroke-width:0.21861851;stroke-linecap:butt;stroke-linejoin:miter;stroke-miterlimit:4;stroke-dasharray:none;stroke-dashoffset:0;stroke-opacity:1" d="M 148.09 311.223 C 137.905 311.222 129.649 319.478 129.649 329.663 C 129.649 339.848 137.905 348.104 148.09 348.103 C 158.274 348.103 166.53 339.847 166.53 329.663 C 166.53 319.479 158.274 311.223 148.09 311.223 L 148.09 311.223 Z M 148.09 315.191 C 156.083 315.191 162.562 321.67 162.562 329.663 C 162.562 337.656 156.083 344.135 148.09 344.135 C 140.097 344.135 133.618 337.656 133.618 329.663 C 133.618 321.67 140.097 315.191 148.09 315.191 Z" id="circle1623"/>
  <path style="opacity:1;vector-effect:none;fill:#4d4d4d;fill-opacity:1;fill-rule:nonzero;stroke:none;stroke-width:0.17157005;stroke-linecap:butt;stroke-linejoin:miter;stroke-miterlimit:4;stroke-dasharray:none;stroke-dashoffset:0;stroke-opacity:1" d="M 148.09 315.191 C 140.097 315.191 133.618 321.67 133.618 329.663 C 133.618 337.656 140.097 344.135 148.09 344.135 C 156.083 344.135 162.562 337.656 162.562 329.663 C 162.562 321.67 156.083 315.191 148.09 315.191 Z M 148.09 319.363 C 153.778 319.363 158.389 323.975 158.39 329.663 C 158.389 335.351 153.778 339.962 148.09 339.962 C 142.401 339.963 137.789 335.352 137.789 329.663 C 137.789 323.974 142.401 319.363 148.09 319.363 Z" id="circle1625"/>
  <path id="path1547" d="M 189.244 338.184 C 177.311 335.897 166.472 328.507 159.861 318.314 C 153.25 308.12 150.92 295.272 153.385 283.375 C 153.835 281.204 154.437 279.066 155.135 276.962 C 159.339 264.278 167.127 252.805 177.362 244.215 L 197.462 252.461 C 189.589 264.889 186.401 280.208 188.661 294.745 C 189.178 298.072 189.985 301.398 191.576 304.366 C 193.948 308.79 197.951 312.175 202.363 314.57 C 207.716 317.474 214.039 319.054 219.96 317.629 C 222.921 316.917 225.721 315.45 227.868 313.291 C 230.016 311.131 231.483 308.268 231.808 305.24 C 232.001 303.447 231.8 301.638 231.651 299.841 C 231.503 298.043 231.409 296.213 231.808 294.454 C 232.137 293.004 232.793 291.647 233.557 290.372 C 237.847 283.215 245.481 278.601 253.43 276.065 C 263.13 272.969 273.572 272.59 283.647 274.06 C 293.722 275.531 303.464 278.805 312.8 282.867 C 327.836 289.41 341.963 298.039 354.648 308.43 C 348.379 311.167 341.793 313.177 335.064 314.408 C 317.205 317.675 298.66 315.43 280.848 318.943 C 277.04 319.694 273.26 320.714 269.754 322.379 C 266.248 324.043 263.011 326.38 260.645 329.457 C 260.122 330.137 259.642 330.852 259.09 331.509 C 258.537 332.165 257.902 332.77 257.141 333.167 C 256.272 333.621 255.277 333.784 254.298 333.797 C 253.318 333.81 252.343 333.681 251.369 333.579 C 240.988 332.5 230.579 334.64 220.319 336.55 C 210.059 338.459 199.494 340.148 189.244 338.184 L 189.244 338.184 Z" style="fill-opacity: 1; stroke: none; stroke-width: 0.264583px; stroke-linecap: butt; stroke-linejoin: miter; stroke-opacity: 1; fill: rgb(11, 146, 9);"/>
  <path id="path1551" d="M 120.005 309.395 C 119.888 309.396 119.769 309.396 119.655 309.373 C 119.54 309.349 119.428 309.299 119.349 309.213 C 119.299 309.158 119.264 309.09 119.244 309.019 C 119.223 308.948 119.218 308.873 119.224 308.799 C 119.235 308.651 119.289 308.51 119.349 308.374 C 119.604 307.797 119.984 307.285 120.363 306.781 C 122.943 303.346 125.683 299.988 128.987 297.243 C 132.292 294.499 136.215 292.377 140.462 291.732 C 144.165 291.17 148.057 291.725 151.594 290.495 C 152.82 290.068 153.974 289.432 154.989 288.623 C 157.484 307.481 168.9 324.963 185.163 334.831 C 185.431 334.994 185.707 335.16 185.898 335.409 C 185.994 335.533 186.067 335.677 186.096 335.831 C 186.125 335.985 186.109 336.149 186.037 336.289 C 185.952 336.454 185.796 336.574 185.626 336.65 C 185.456 336.726 185.272 336.763 185.09 336.799 C 183.814 337.051 182.528 337.295 181.227 337.309 C 178.224 337.343 175.3 336.138 172.88 334.361 C 170.46 332.583 168.497 330.257 166.723 327.834 C 163.312 323.175 160.41 317.961 155.791 314.497 C 151.116 310.991 145.148 309.66 139.319 309.249 C 132.894 308.796 126.445 309.349 120.005 309.395 L 120.005 309.395 Z" style="fill-opacity: 1; stroke: none; stroke-width: 0.264583px; stroke-linecap: butt; stroke-linejoin: miter; stroke-opacity: 1; fill: rgb(28, 132, 39);"/>
  <path id="path1555" d="M 158.809 281.734 C 160.977 275.51 163.816 269.521 167.261 263.902 C 169.673 259.969 172.406 256.188 175.816 253.079 C 176.867 252.122 177.994 251.221 179.29 250.639 C 180.586 250.056 182.075 249.811 183.444 250.193 C 183.878 250.315 184.302 250.502 184.645 250.795 C 184.988 251.089 185.245 251.497 185.299 251.946 C 185.339 252.276 185.268 252.611 185.146 252.92 C 185.024 253.229 184.852 253.516 184.681 253.801 C 182.154 258.009 179.645 262.238 177.568 266.685 C 174.844 272.52 172.889 278.679 170.972 284.826 C 169.649 289.066 168.329 293.374 168.189 297.813 C 167.971 304.692 170.747 311.599 175.61 316.469 C 179.344 320.209 184.173 322.722 189.216 324.303 C 192.532 325.343 195.963 326.002 199.42 326.364 C 202.808 326.72 206.219 326.792 209.624 326.88 C 220.681 327.164 231.756 327.617 242.711 329.147 C 248.591 329.969 254.486 331.104 260.415 330.786 C 260.465 330.784 260.514 330.782 260.564 330.785 C 260.613 330.789 260.663 330.8 260.707 330.823 C 260.77 330.856 260.819 330.915 260.847 330.981 C 260.874 331.048 260.881 331.122 260.873 331.193 C 260.856 331.337 260.783 331.466 260.707 331.588 C 260.011 332.702 258.963 333.59 257.755 334.103 C 256.667 334.564 255.472 334.723 254.29 334.727 C 253.109 334.732 251.933 334.588 250.758 334.467 C 240.999 333.459 231.141 334.002 221.386 335.05 C 210.653 336.204 199.696 337.957 189.171 335.56 C 177.865 332.985 167.777 325.465 162.08 315.365 C 156.382 305.265 155.165 292.742 158.809 281.734 L 158.809 281.734 Z" style="fill-opacity: 1; stroke: none; stroke-width: 0.264583px; stroke-linecap: butt; stroke-linejoin: miter; stroke-opacity: 1; fill: rgb(41, 181, 62);"/>
  <path id="path1559" d="M 189.081 273.731 C 187.656 274.045 186.249 274.44 184.871 274.92 C 179.639 276.745 174.782 279.807 171.218 284.049 C 171.137 284.308 171.053 284.566 170.972 284.825 C 169.649 289.066 168.329 293.373 168.189 297.813 C 167.971 304.691 170.747 311.599 175.61 316.469 C 179.344 320.209 184.174 322.722 189.216 324.303 C 192.533 325.343 195.963 326.002 199.42 326.364 C 202.808 326.72 206.218 326.792 209.624 326.879 C 220.681 327.164 231.756 327.617 242.711 329.148 C 248.331 329.933 253.964 331 259.628 330.816 C 259.969 330.364 260.301 329.905 260.646 329.457 C 263.012 326.38 266.248 324.044 269.754 322.379 C 273.107 320.787 276.712 319.787 280.351 319.045 C 281.122 317.58 281.529 315.866 281.157 314.253 C 280.814 312.766 279.816 311.464 278.528 310.645 C 277.412 309.936 276.112 309.579 274.818 309.306 C 271.568 308.62 268.24 308.406 264.923 308.224 C 257.472 307.814 250.013 307.554 242.556 307.244 C 239.868 307.132 237.12 307.002 234.62 306.007 C 233.62 305.61 232.647 305.056 231.991 304.204 C 231.952 304.154 231.917 304.102 231.88 304.05 C 231.871 304.447 231.851 304.845 231.808 305.241 C 231.483 308.269 230.015 311.131 227.868 313.29 C 225.721 315.449 222.921 316.917 219.961 317.629 C 214.039 319.054 207.716 317.475 202.364 314.57 C 197.951 312.175 193.949 308.791 191.577 304.366 C 189.986 301.398 189.179 298.072 188.662 294.745 C 187.58 287.785 187.749 280.647 189.081 273.731 L 189.081 273.731 Z" style="fill-opacity: 1; stroke: none; stroke-width: 0.264583px; stroke-linecap: butt; stroke-linejoin: miter; stroke-opacity: 1; fill: rgb(77, 77, 77);"/>
  <path id="path1561" d="M 249.883 284.25 C 246.322 286.026 242.816 287.913 239.388 289.935 C 237.953 290.781 236.512 291.66 234.915 292.135 C 234.117 292.372 233.283 292.506 232.45 292.472 C 231.618 292.439 230.787 292.235 230.059 291.83 C 229.29 291.402 228.652 290.759 228.172 290.021 C 227.692 289.284 227.364 288.454 227.144 287.603 C 226.302 284.358 226.995 280.925 227.872 277.69 C 228.353 275.918 228.894 274.148 229.735 272.515 C 230.576 270.882 231.737 269.38 233.266 268.361 C 234.727 267.388 236.469 266.893 238.216 266.723 C 239.964 266.552 241.727 266.692 243.47 266.904 C 247.646 267.41 251.8 268.325 256.006 268.216 C 260.017 268.111 263.939 267.076 267.813 266.029 C 281.592 262.305 295.908 258.309 309.939 260.927 C 310.653 261.061 311.369 261.212 312.036 261.499 C 312.703 261.787 313.324 262.22 313.729 262.822 C 314.261 263.612 314.374 264.603 314.45 265.551 C 314.591 267.335 314.653 269.125 314.759 270.911 C 314.847 272.401 314.958 273.94 314.45 275.343 C 313.916 276.816 312.73 277.991 311.357 278.745 C 310.421 279.258 309.397 279.593 308.368 279.878 C 306.891 280.288 305.363 280.605 303.833 280.497 C 301.961 280.364 300.193 279.603 298.519 278.753 C 296.846 277.902 295.21 276.947 293.423 276.374 C 291.989 275.915 290.487 275.712 288.99 275.549 C 285.432 275.163 281.842 274.994 278.271 275.24 C 270.927 275.746 263.799 278 257.038 280.909 C 254.62 281.95 252.239 283.075 249.883 284.25 L 249.883 284.25 Z" style="fill-opacity: 1; stroke: none; stroke-width: 0.264583px; stroke-linecap: butt; stroke-linejoin: miter; stroke-opacity: 1; fill: rgb(77, 77, 77);"/>
  <path id="path1565" d="M 284.687 279.327 C 279.962 279.277 275.225 279.726 270.582 280.606 C 264.39 281.78 258.294 283.735 252.872 286.947 C 249.225 289.108 245.929 291.807 242.741 294.6 C 239.953 297.042 237.205 299.597 235.161 302.69 C 234.564 303.592 234.027 304.548 233.7 305.576 C 233.999 305.736 234.306 305.883 234.62 306.007 C 237.12 307.002 239.868 307.132 242.556 307.244 C 250.013 307.554 257.472 307.814 264.923 308.224 C 268.24 308.406 271.568 308.62 274.818 309.306 C 276.112 309.579 277.412 309.936 278.528 310.645 C 279.816 311.464 280.814 312.766 281.157 314.253 C 281.529 315.866 281.122 317.58 280.351 319.045 C 280.517 319.012 280.682 318.976 280.848 318.943 C 298.66 315.43 317.205 317.674 335.064 314.407 C 340.747 313.368 346.324 311.767 351.698 309.648 C 351.621 308.827 351.41 308.021 351.046 307.281 C 350.329 305.827 349.08 304.691 347.703 303.836 C 346.326 302.981 344.811 302.378 343.32 301.742 C 328.209 295.288 314.681 284.925 298.716 281.043 C 294.124 279.927 289.412 279.378 284.687 279.327 L 284.687 279.327 Z" style="fill-opacity: 1; stroke: none; stroke-width: 0.264583px; stroke-linecap: butt; stroke-linejoin: miter; stroke-opacity: 1; fill: rgb(41, 181, 62);"/>
  <circle r="0.979" cy="314.253" cx="277.575" id="circle1647" style="opacity:1;vector-effect:none;fill:#333333;fill-opacity:1;fill-rule:nonzero;stroke:none;stroke-width:0.30427083;stroke-linecap:butt;stroke-linejoin:miter;stroke-miterlimit:4;stroke-dasharray:none;stroke-dashoffset:0;stroke-opacity:1"/>
  <path id="path1573" d="M 264.954 325.231 C 264.273 326.347 263.68 327.518 263.202 328.735 C 262.694 330.027 262.312 331.387 262.293 332.775 C 262.275 334.163 262.645 335.587 263.511 336.672 C 264.292 337.651 265.429 338.3 266.621 338.688 C 267.812 339.076 269.067 339.224 270.314 339.352 C 279.982 340.342 289.737 340.272 299.401 341.31 C 302.736 341.668 306.057 342.158 309.399 342.444 C 310.948 342.576 312.561 342.655 314.003 342.076 C 314.724 341.786 315.388 341.329 315.857 340.709 C 316.325 340.089 316.588 339.3 316.511 338.527 C 316.489 338.308 316.441 338.09 316.45 337.87 C 316.455 337.76 316.474 337.649 316.517 337.548 C 316.56 337.447 316.628 337.354 316.717 337.29 C 316.81 337.224 316.922 337.19 317.034 337.173 C 317.146 337.155 317.26 337.153 317.374 337.145 C 317.945 337.102 318.502 336.882 318.952 336.527 C 319.401 336.171 319.744 335.683 319.928 335.14 C 320.113 334.597 320.14 334.002 320.01 333.444 C 319.88 332.885 319.594 332.365 319.196 331.952 C 318.534 331.266 317.559 330.895 316.608 330.968 C 315.63 329.116 314.173 327.519 312.418 326.377 C 310.68 325.246 308.654 324.562 306.587 324.409 C 304.299 320.972 301.134 318.124 297.476 316.211 C 293.817 314.297 289.673 313.322 285.545 313.404 C 281.417 313.485 277.315 314.623 273.734 316.679 C 270.154 318.736 267.104 321.706 264.954 325.231 L 264.954 325.231 Z" style="fill:#333333;fill-opacity:1;stroke:none;stroke-width:0.26458332px;stroke-linecap:butt;stroke-linejoin:miter;stroke-opacity:1"/>
  <path id="path1571" d="M 332.121 314.893 C 315.347 317.416 298.042 315.663 281.366 318.846 C 281.444 319.479 281.591 320.103 281.827 320.696 C 281.994 321.116 282.207 321.532 282.548 321.829 C 282.849 322.092 283.233 322.245 283.624 322.328 C 284.015 322.411 284.417 322.429 284.817 322.448 C 293.534 322.857 302.223 324.172 310.945 323.891 C 311.273 323.88 311.605 323.867 311.924 323.941 C 312.295 324.028 312.631 324.23 312.931 324.466 C 313.23 324.702 313.497 324.974 313.78 325.23 C 315.547 326.834 317.831 327.746 320.119 328.426 C 321.866 328.946 323.663 329.353 325.486 329.383 C 327.309 329.414 329.169 329.05 330.735 328.116 C 331.336 327.758 331.897 327.31 332.281 326.725 C 332.635 326.185 332.823 325.554 332.951 324.921 C 333.622 321.61 332.768 318.215 332.121 314.893 L 332.121 314.893 Z" style="fill:#333333;fill-opacity:1;stroke:none;stroke-width:0.26458332px;stroke-linecap:butt;stroke-linejoin:miter;stroke-opacity:1"/>
  <circle style="opacity:1;vector-effect:none;fill:#4d4d4d;fill-opacity:1;fill-rule:nonzero;stroke:none;stroke-width:0.36496314;stroke-linecap:butt;stroke-linejoin:miter;stroke-miterlimit:4;stroke-dasharray:none;stroke-dashoffset:0;stroke-opacity:1" id="circle1579" cx="307.234" cy="333.579" r="9.829"/>
  <circle r="8.194" cy="335.28" cx="308.935" id="circle1577" style="opacity:1;vector-effect:none;fill:#666666;fill-opacity:1;fill-rule:nonzero;stroke:none;stroke-width:0.30427083;stroke-linecap:butt;stroke-linejoin:miter;stroke-miterlimit:4;stroke-dasharray:none;stroke-dashoffset:0;stroke-opacity:1"/>
  <path id="path1589" d="M 131.374 321.785 C 131.028 322.524 130.906 323.357 130.964 324.171 C 131.023 324.984 131.257 325.779 131.593 326.522 C 132.216 327.899 133.181 329.096 134.261 330.152 C 135.341 331.208 136.54 332.134 137.715 333.082 C 138.964 334.09 140.206 335.136 141.65 335.837 C 142.372 336.187 143.142 336.448 143.937 336.556 C 144.732 336.663 145.554 336.614 146.316 336.362 C 147.323 336.029 148.214 335.326 148.721 334.394 C 148.904 334.057 149.037 333.692 149.094 333.313 C 149.15 332.934 149.129 332.541 149.012 332.176 C 148.896 331.811 148.682 331.475 148.388 331.229 C 148.094 330.983 147.719 330.831 147.336 330.823 C 146.819 330.812 146.322 331.052 145.805 331.041 C 145.506 331.035 145.213 330.944 144.948 330.804 C 144.684 330.664 144.447 330.477 144.228 330.272 C 143.792 329.863 143.424 329.382 142.963 329.001 C 142.315 328.466 141.517 328.157 140.776 327.762 C 140.149 327.427 139.554 327.024 139.046 326.527 C 138.537 326.031 138.115 325.437 137.861 324.773 C 137.599 324.088 137.52 323.35 137.38 322.629 C 137.241 321.909 137.027 321.176 136.549 320.619 C 136.207 320.22 135.741 319.933 135.236 319.791 C 134.73 319.65 134.187 319.653 133.679 319.787 C 132.663 320.053 131.82 320.835 131.374 321.786 L 131.374 321.785 Z" style="fill:#cccccc;fill-opacity:1;stroke:none;stroke-width:0.26458332px;stroke-linecap:butt;stroke-linejoin:miter;stroke-opacity:1"/>
  <path id="path1593" d="M 156.078 327.91 C 155.67 327.915 155.267 328.104 155.004 328.416 C 154.741 328.728 154.622 329.157 154.686 329.56 C 154.73 329.831 154.851 330.085 154.996 330.319 C 155.14 330.553 155.309 330.772 155.459 331.003 C 155.638 331.277 155.792 331.573 155.869 331.892 C 155.947 332.21 155.945 332.555 155.82 332.858 C 155.738 333.058 155.606 333.233 155.484 333.412 C 155.362 333.591 155.246 333.78 155.202 333.992 C 155.168 334.152 155.177 334.319 155.22 334.477 C 155.262 334.635 155.338 334.782 155.434 334.914 C 155.627 335.178 155.898 335.375 156.181 335.538 C 156.624 335.793 157.121 335.977 157.633 335.972 C 157.888 335.97 158.145 335.919 158.377 335.812 C 158.609 335.705 158.816 335.541 158.964 335.332 C 159.1 335.138 159.184 334.909 159.214 334.674 C 159.244 334.439 159.223 334.198 159.162 333.969 C 159.041 333.511 158.768 333.105 158.448 332.755 C 158.31 332.603 158.162 332.459 158.042 332.292 C 157.923 332.125 157.833 331.929 157.83 331.724 C 157.827 331.514 157.915 331.313 158.021 331.131 C 158.128 330.95 158.256 330.781 158.345 330.59 C 158.471 330.322 158.516 330.017 158.485 329.722 C 158.455 329.427 158.349 329.141 158.191 328.89 C 157.972 328.543 157.651 328.261 157.279 328.088 C 156.906 327.915 156.484 327.853 156.078 327.91 L 156.078 327.91 Z" style="fill:#cccccc;fill-opacity:1;stroke:none;stroke-width:0.26458332px;stroke-linecap:butt;stroke-linejoin:miter;stroke-opacity:1"/>
  <path id="path1597" d="M 142.453 336.07 C 142.675 336.686 143.037 337.261 143.546 337.674 C 144.05 338.083 144.682 338.318 145.325 338.408 C 145.968 338.498 146.624 338.447 147.263 338.33 C 148.678 338.069 150.035 337.47 151.153 336.565 C 152.271 335.66 153.145 334.445 153.604 333.082 C 153.973 331.985 154.074 330.813 154.041 329.657 C 154.029 329.211 153.997 328.762 154.074 328.324 C 154.112 328.105 154.178 327.889 154.282 327.692 C 154.387 327.496 154.531 327.319 154.712 327.189 C 154.913 327.045 155.151 326.964 155.377 326.865 C 155.604 326.767 155.831 326.643 155.975 326.442 C 156.131 326.223 156.168 325.942 156.173 325.673 C 156.177 325.405 156.153 325.133 156.207 324.87 C 156.299 324.414 156.608 324.039 156.864 323.651 C 156.991 323.456 157.109 323.253 157.18 323.031 C 157.251 322.81 157.274 322.569 157.212 322.345 C 157.167 322.185 157.079 322.035 156.951 321.929 C 156.823 321.823 156.655 321.763 156.49 321.778 C 156.365 321.788 156.247 321.84 156.144 321.912 C 156.042 321.984 155.955 322.075 155.877 322.173 C 155.721 322.368 155.594 322.59 155.408 322.757 C 155.209 322.934 154.954 323.037 154.696 323.105 C 154.438 323.172 154.172 323.208 153.913 323.272 C 153.077 323.478 152.331 323.97 151.718 324.575 C 151.104 325.179 150.612 325.894 150.151 326.622 C 149.59 327.507 149.059 328.43 148.296 329.147 C 147.713 329.694 147.013 330.103 146.286 330.436 C 145.703 330.702 145.099 330.923 144.524 331.208 C 143.95 331.494 143.399 331.851 142.987 332.342 C 142.566 332.846 142.306 333.479 142.223 334.131 C 142.14 334.783 142.229 335.452 142.453 336.07 L 142.453 336.07 Z" style="fill:#cccccc;fill-opacity:1;stroke:none;stroke-width:0.26458332px;stroke-linecap:butt;stroke-linejoin:miter;stroke-opacity:1"/>
  <path id="path1601" d="M 143.475 309.719 C 143.464 309.727 143.455 309.734 143.443 309.744 C 140.737 311.883 137.044 315.026 135.146 316.684 C 133.247 318.341 133.144 318.513 134.329 318.763 C 135.515 319.012 137.989 319.338 139.398 319.415 C 140.807 319.492 141.15 319.321 143.267 317.443 C 145.03 315.88 147.845 313.289 149.922 311.355 C 147.854 310.588 145.679 310.067 143.475 309.719 L 143.475 309.719 Z" style="fill:#cccccc;fill-opacity:1;stroke:none;stroke-width:0.26458332px;stroke-linecap:butt;stroke-linejoin:miter;stroke-opacity:1"/>
  <circle r="1.082" cy="316.005" cx="140.436" id="circle1603" style="opacity:1;vector-effect:none;fill:#333333;fill-opacity:1;fill-rule:nonzero;stroke:none;stroke-width:0.30427083;stroke-linecap:butt;stroke-linejoin:miter;stroke-miterlimit:4;stroke-dasharray:none;stroke-dashoffset:0;stroke-opacity:1"/>
  <circle style="opacity:1;vector-effect:none;fill:#333333;fill-opacity:1;fill-rule:nonzero;stroke:none;stroke-width:0.30427083;stroke-linecap:butt;stroke-linejoin:miter;stroke-miterlimit:4;stroke-dasharray:none;stroke-dashoffset:0;stroke-opacity:1" id="circle1605" cx="145.461" cy="311.908" r="1.082"/>
  <circle r="1.495" cy="328.744" cx="137.864" id="circle1607" style="opacity:1;vector-effect:none;fill:#333333;fill-opacity:1;fill-rule:nonzero;stroke:none;stroke-width:0.30427083;stroke-linecap:butt;stroke-linejoin:miter;stroke-miterlimit:4;stroke-dasharray:none;stroke-dashoffset:0;stroke-opacity:1"/>
  <circle style="opacity:1;vector-effect:none;fill:#333333;fill-opacity:1;fill-rule:nonzero;stroke:none;stroke-width:0.30427083;stroke-linecap:butt;stroke-linejoin:miter;stroke-miterlimit:4;stroke-dasharray:none;stroke-dashoffset:0;stroke-opacity:1" id="circle1609" cx="133.969" cy="323.478" r="1.495"/>
  <circle r="0.521" cy="337.248" cx="146.254" id="circle1611" style="opacity:1;vector-effect:none;fill:#333333;fill-opacity:1;fill-rule:nonzero;stroke:none;stroke-width:0.38436279;stroke-linecap:butt;stroke-linejoin:miter;stroke-miterlimit:4;stroke-dasharray:none;stroke-dashoffset:0;stroke-opacity:1"/>
  <circle style="opacity:1;vector-effect:none;fill:#333333;fill-opacity:1;fill-rule:nonzero;stroke:none;stroke-width:0.38436279;stroke-linecap:butt;stroke-linejoin:miter;stroke-miterlimit:4;stroke-dasharray:none;stroke-dashoffset:0;stroke-opacity:1" id="circle1613" cx="149.493" cy="335.897" r="0.521"/>
  <circle r="0.521" cy="333.781" cx="151.837" id="circle1615" style="opacity:1;vector-effect:none;fill:#333333;fill-opacity:1;fill-rule:nonzero;stroke:none;stroke-width:0.38436279;stroke-linecap:butt;stroke-linejoin:miter;stroke-miterlimit:4;stroke-dasharray:none;stroke-dashoffset:0;stroke-opacity:1"/>
  <path id="path1617" d="M 153.498 313.008 C 149.871 317.125 146.179 321.317 144.348 323.395 C 142.234 325.794 142.234 325.794 142.647 326.201 C 143.06 326.608 143.886 327.422 144.342 327.829 C 144.797 328.236 144.883 328.235 147.23 325.984 C 149.34 323.961 153.381 320.017 157.537 315.96 C 156.981 315.446 156.401 314.955 155.79 314.497 C 155.057 313.947 154.289 313.456 153.498 313.008 L 153.498 313.008 Z" style="fill:#cccccc;fill-opacity:1;stroke:none;stroke-width:0.26458332px;stroke-linecap:butt;stroke-linejoin:miter;stroke-opacity:1"/>
  <circle r="1.546" cy="283.147" cx="278.023" id="circle1629" style="opacity: 1; vector-effect: none; fill-opacity: 1; fill-rule: nonzero; stroke: none; stroke-width: 0.304271; stroke-linecap: butt; stroke-linejoin: miter; stroke-miterlimit: 4; stroke-dasharray: none; stroke-dashoffset: 0; stroke-opacity: 1; fill: rgb(0, 93, 36);"/>
  <path id="path1631" d="M 255.32 314.106 L 262.06 314.106 C 263.303 314.106 264.304 314.914 264.304 315.918 C 264.304 316.922 263.303 317.73 262.06 317.73 L 258.784 317.73 C 257.54 317.73 254.752 317.466 254.23 315.918 C 254.005 315.25 254.077 314.106 255.32 314.106 L 255.32 314.106 Z" style="opacity:1;vector-effect:none;fill:#333333;fill-opacity:1;fill-rule:nonzero;stroke:none;stroke-width:0.28006619;stroke-linecap:butt;stroke-linejoin:miter;stroke-miterlimit:4;stroke-dasharray:none;stroke-dashoffset:0;stroke-opacity:1"/>
  <path id="path1633" d="M 249.376 319.407 L 261.35 319.407 C 262.587 319.407 262.651 320.528 262.429 321.185 C 261.908 322.725 259.124 322.963 257.887 322.963 L 249.376 322.963 C 248.139 322.963 247.143 322.17 247.143 321.185 C 247.143 320.2 248.139 319.407 249.376 319.407 Z" style="opacity:1;vector-effect:none;fill:#333333;fill-opacity:1;fill-rule:nonzero;stroke:none;stroke-width:0.30427083;stroke-linecap:butt;stroke-linejoin:miter;stroke-miterlimit:4;stroke-dasharray:none;stroke-dashoffset:0;stroke-opacity:1"/>
  <circle r="1.093" cy="307.026" cx="290.552" id="circle1635" style="opacity: 1; vector-effect: none; fill-opacity: 1; fill-rule: nonzero; stroke: none; stroke-width: 0.304271; stroke-linecap: butt; stroke-linejoin: miter; stroke-miterlimit: 4; stroke-dasharray: none; stroke-dashoffset: 0; stroke-opacity: 1; fill: rgb(0, 93, 36);"/>
  <circle style="opacity: 1; vector-effect: none; fill-opacity: 1; fill-rule: nonzero; stroke: none; stroke-width: 0.304271; stroke-linecap: butt; stroke-linejoin: miter; stroke-miterlimit: 4; stroke-dasharray: none; stroke-dashoffset: 0; stroke-opacity: 1; fill: rgb(0, 93, 36);" id="circle1637" cx="320.237" cy="305.171" r="1.093"/>
  <circle r="1.675" cy="306.136" cx="153.99" id="circle1639" style="opacity:1;vector-effect:none;fill:none;fill-opacity:1;fill-rule:nonzero;stroke:none;stroke-width:0.30427083;stroke-linecap:butt;stroke-linejoin:miter;stroke-miterlimit:4;stroke-dasharray:none;stroke-dashoffset:0;stroke-opacity:1"/>
  <path id="path1641" d="M 315.549 325.049 C 315.305 324.959 315.058 324.86 314.866 324.685 C 314.77 324.598 314.689 324.492 314.64 324.372 C 314.591 324.251 314.575 324.116 314.604 323.99 C 314.625 323.897 314.671 323.81 314.726 323.732 C 314.781 323.654 314.847 323.585 314.914 323.516 C 315.582 322.829 316.398 322.237 317.34 322.062 C 317.811 321.974 318.306 321.996 318.758 322.156 C 319.21 322.316 319.615 322.618 319.87 323.024 C 320.058 323.324 320.162 323.676 320.161 324.03 C 320.16 324.384 320.052 324.737 319.852 325.028 C 319.655 325.313 319.371 325.536 319.048 325.658 C 318.725 325.781 318.365 325.803 318.029 325.721 C 317.185 325.569 316.354 325.344 315.549 325.049 L 315.549 325.049 Z" style="fill:#1a1a1a;fill-opacity:1;stroke:none;stroke-width:0.26458332px;stroke-linecap:butt;stroke-linejoin:miter;stroke-opacity:1"/>
  <circle r="0.765" cy="321.257" cx="309.611" id="circle1645" style="opacity:1;vector-effect:none;fill:#1a1a1a;fill-opacity:1;fill-rule:nonzero;stroke:none;stroke-width:0.30427083;stroke-linecap:butt;stroke-linejoin:miter;stroke-miterlimit:4;stroke-dasharray:none;stroke-dashoffset:0;stroke-opacity:1"/>
  <path id="path1649" d="M 177.362 244.216 C 175.637 245.663 173.989 247.198 172.408 248.802 C 172.828 248.885 173.235 248.967 173.732 249.059 C 179.454 250.116 190.435 251.768 196.011 252.679 C 196.523 252.762 196.78 252.806 197.205 252.877 C 197.291 252.739 197.374 252.599 197.462 252.461 L 177.362 244.216 Z" style="fill:none;stroke:none;stroke-width:0.26458332px;stroke-linecap:butt;stroke-linejoin:miter;stroke-opacity:1"/>
  <path id="path1651" d="M 339.465 283.026 L 331.245 292.209 C 334.434 294.062 337.566 296.015 340.634 298.063 L 345.616 285.089 C 345.464 285.19 345.267 285.26 344.996 285.271 C 343.823 285.318 341.36 284.338 339.594 283.122 C 339.549 283.091 339.51 283.058 339.465 283.026 L 339.465 283.026 Z" style="fill:#999999;fill-opacity:1;stroke:none;stroke-width:0.26458332px;stroke-linecap:butt;stroke-linejoin:miter;stroke-opacity:1"/>
  <path id="path1653" d="M 350.19 282.483 C 351.345 282.196 352.501 281.787 353.174 280.998 C 354.263 279.722 354.004 277.565 353.71 276.396 C 353.415 275.227 353.086 275.035 350.984 275.103 C 350.427 275.121 349.547 275.211 348.793 275.268 C 348.817 275.297 348.853 275.313 348.875 275.343 C 349.114 275.665 349.29 276.024 349.428 276.4 C 349.566 276.776 349.666 277.169 349.753 277.56 C 349.991 278.64 350.146 279.738 350.215 280.841 C 350.249 281.388 350.197 281.935 350.19 282.483 L 350.19 282.483 Z" style="fill:#ea4242;fill-opacity:1;stroke:none;stroke-width:0.26458332px;stroke-linecap:butt;stroke-linejoin:miter;stroke-opacity:1"/>
  <path id="path1655" d="M 347.05 275.4 C 345.398 275.578 343.654 275.832 342.164 276.196 C 339.321 276.889 337.514 277.941 337.14 279.201 C 336.765 280.461 337.828 281.906 339.594 283.122 C 341.36 284.338 343.823 285.318 344.996 285.271 C 346.17 285.223 346.055 284.148 346.203 283.618 C 346.35 283.088 346.762 283.104 348.192 282.901 C 348.23 282.897 348.29 282.878 348.329 282.873 C 348.351 282.195 348.401 281.518 348.359 280.841 C 348.29 279.738 348.136 278.64 347.897 277.56 C 347.81 277.169 347.71 276.776 347.572 276.4 C 347.442 276.044 347.27 275.708 347.05 275.4 L 347.05 275.4 Z" style="fill:#999999;fill-opacity:1;stroke:none;stroke-width:0.26458332px;stroke-linecap:butt;stroke-linejoin:miter;stroke-opacity:1"/>
  <path id="path1657" d="M 347.05 275.4 C 347.27 275.708 347.442 276.044 347.572 276.4 C 347.71 276.776 347.81 277.169 347.897 277.56 C 348.136 278.64 348.29 279.738 348.359 280.841 C 348.401 281.518 348.35 282.195 348.329 282.873 C 348.856 282.797 349.526 282.647 350.19 282.483 C 350.199 281.935 350.249 281.388 350.215 280.841 C 350.146 279.738 349.992 278.64 349.753 277.56 C 349.666 277.169 349.566 276.776 349.428 276.4 C 349.29 276.024 349.114 275.665 348.876 275.343 C 348.853 275.313 348.817 275.297 348.793 275.268 C 348.194 275.313 347.716 275.328 347.051 275.4 L 347.05 275.4 Z" style="fill:#eaa242;fill-opacity:1;stroke:none;stroke-width:0.26458332px;stroke-linecap:butt;stroke-linejoin:miter;stroke-opacity:1"/>
  <rect transform="matrix(0.929417, 0.369032, -0.369032, 0.929417, 17.193407, -178.265076)" ry="0.443" rx="0.443" y="330.362" x="305.01" height="1.934" width="13.936" id="rect1659" style="opacity:1;vector-effect:none;fill:#999999;fill-opacity:1;fill-rule:nonzero;stroke:none;stroke-width:0.30427083;stroke-linecap:butt;stroke-linejoin:miter;stroke-miterlimit:4;stroke-dasharray:none;stroke-dashoffset:0;stroke-opacity:1"/>
  <path id="path1661" d="M 171.796 219.581 C 171.69 219.323 171.503 219.099 171.267 218.95 C 171.032 218.8 170.749 218.726 170.471 218.74 C 170.192 218.754 169.919 218.857 169.7 219.03 C 169.48 219.202 169.317 219.444 169.238 219.711 C 169.205 219.822 169.185 219.939 169.128 220.039 C 169.087 220.111 169.029 220.171 168.965 220.223 C 168.901 220.276 168.832 220.321 168.764 220.367 C 168.165 220.781 167.689 221.352 167.306 221.971 C 166.52 223.242 166.112 224.716 165.921 226.198 C 165.652 228.289 165.803 230.45 166.503 232.438 C 167.203 234.427 168.468 236.235 170.185 237.459 C 170.438 237.639 170.702 237.808 170.987 237.932 C 171.644 238.22 172.384 238.263 173.1 238.224 C 175.171 238.112 177.211 237.333 178.782 235.98 C 180.354 234.628 181.436 232.7 181.701 230.644 C 181.957 228.65 181.446 226.588 180.393 224.876 C 179.341 223.163 177.767 221.797 175.979 220.878 C 174.674 220.207 173.252 219.766 171.796 219.581 L 171.796 219.581 Z" style="fill:#999999;fill-opacity:1;stroke:none;stroke-width:0.26458332px;stroke-linecap:butt;stroke-linejoin:miter;stroke-opacity:1"/>
  <path id="path1665" d="M 169.269 219.63 C 169.258 219.657 169.245 219.684 169.237 219.711 C 169.204 219.822 169.185 219.939 169.128 220.039 C 169.087 220.111 169.029 220.171 168.965 220.223 C 168.901 220.275 168.831 220.321 168.764 220.367 C 168.165 220.781 167.689 221.352 167.306 221.97 C 166.52 223.241 166.113 224.716 165.922 226.198 C 165.652 228.289 165.803 230.449 166.503 232.438 C 167.204 234.426 168.469 236.234 170.185 237.458 C 170.284 237.529 170.386 237.595 170.488 237.66 C 170.488 237.656 170.489 237.653 170.488 237.649 C 170.274 234.135 169.797 227.11 169.517 223.071 C 169.345 220.592 169.328 220.425 169.269 219.63 L 169.269 219.63 Z" style="fill:#f9f9f9;stroke:none;stroke-width:0.26458332px;stroke-linecap:butt;stroke-linejoin:miter;stroke-opacity:1"/>
  <path id="path1667" d="M 174.429 237.852 C 174.245 237.812 174.046 237.845 173.884 237.941 C 173.722 238.037 173.599 238.197 173.547 238.378 C 173.495 238.559 173.514 238.759 173.599 238.927 C 173.684 239.095 173.835 239.229 174.012 239.293 C 174.183 239.355 174.37 239.354 174.551 239.343 C 174.733 239.332 174.916 239.314 175.095 239.345 C 175.183 239.36 175.27 239.387 175.352 239.422 C 175.628 239.538 175.862 239.734 176.086 239.933 C 176.309 240.131 176.532 240.337 176.795 240.479 C 177.143 240.665 177.559 240.728 177.942 240.633 C 178.326 240.539 178.67 240.285 178.857 239.937 C 178.999 239.672 179.048 239.361 179.017 239.061 C 178.986 238.761 178.879 238.472 178.728 238.211 C 178.632 238.044 178.518 237.889 178.423 237.721 C 178.328 237.554 178.251 237.372 178.238 237.18 C 178.228 237.023 178.262 236.866 178.274 236.708 C 178.281 236.63 178.282 236.55 178.269 236.472 C 178.257 236.394 178.231 236.318 178.187 236.252 C 178.107 236.135 177.968 236.061 177.826 236.061 C 177.684 236.061 177.545 236.135 177.465 236.252 L 174.429 237.852 Z" style="fill:#999999;fill-opacity:1;stroke:none;stroke-width:0.26458332px;stroke-linecap:butt;stroke-linejoin:miter;stroke-opacity:1"/>
  <circle r="0.847" cy="239.326" cx="177.464" id="circle1671" style="opacity:1;vector-effect:none;fill:#333333;fill-opacity:1;fill-rule:nonzero;stroke:none;stroke-width:0.30427083;stroke-linecap:butt;stroke-linejoin:miter;stroke-miterlimit:4;stroke-dasharray:none;stroke-dashoffset:0;stroke-opacity:1"/>
  <path id="path1677" d="M 201.024 225.45 C 198.755 224.459 196.292 223.935 193.817 223.904 C 190.556 223.863 187.283 224.645 184.434 226.234 C 183.597 226.701 182.772 227.256 182.247 228.057 C 181.865 228.639 181.662 229.328 181.612 230.022 C 181.562 230.717 181.663 231.417 181.853 232.086 C 182.235 233.425 182.967 234.632 183.632 235.855 C 184.105 236.725 184.549 237.615 184.871 238.552 C 185.465 240.278 185.627 242.15 185.35 243.954 L 187.816 244.933 C 188.575 241.887 188.499 238.635 187.568 235.636 C 187.505 235.434 187.437 235.23 187.41 235.02 C 187.383 234.809 187.399 234.587 187.495 234.397 C 187.604 234.18 187.806 234.026 188.005 233.887 C 189.387 232.922 190.999 232.29 192.669 232.065 C 194.846 231.771 197.094 232.214 199.033 233.243 C 198.892 232.541 198.779 231.831 198.781 231.116 C 198.783 230.272 198.891 229.431 199.122 228.62 C 199.353 227.808 199.711 227.029 200.182 226.329 C 200.41 225.99 200.744 225.746 201.024 225.45 L 201.024 225.45 Z" style="fill:#999999;fill-opacity:1;stroke:none;stroke-width:0.26458332px;stroke-linecap:butt;stroke-linejoin:miter;stroke-opacity:1"/>
  <path id="path1691" d="M 199.676 227.209 C 199.45 227.662 199.261 228.134 199.122 228.62 C 198.891 229.431 198.783 230.272 198.781 231.116 C 198.78 231.433 198.804 231.749 198.841 232.064 L 200.548 232.364 C 201.148 231.466 201.555 230.438 201.707 229.368 C 201.785 228.824 201.795 228.27 201.747 227.722 L 199.676 227.209 Z" style="fill:#999999;fill-opacity:1;stroke:none;stroke-width:0.26458332px;stroke-linecap:butt;stroke-linejoin:miter;stroke-opacity:1"/>
  <path id="path1687" d="M 204.226 227.534 L 203.156 227.324 L 202.989 226.912 C 202.994 226.841 202.98 226.769 202.951 226.705 C 202.92 226.642 202.872 226.586 202.813 226.545 C 202.755 226.505 202.686 226.48 202.616 226.474 C 202.545 226.468 202.473 226.483 202.408 226.513 C 202.303 226.562 202.225 226.653 202.151 226.744 C 201.688 227.313 201.281 227.935 201.003 228.614 C 200.724 229.293 200.575 230.032 200.631 230.764 C 200.679 231.406 200.892 232.046 201.301 232.542 C 201.353 232.605 201.408 232.665 201.472 232.715 C 201.535 232.766 201.608 232.807 201.687 232.826 C 201.773 232.845 201.865 232.839 201.947 232.806 C 202.029 232.774 202.102 232.718 202.151 232.645 L 203.129 232.837 C 203.098 232.673 202.994 232.529 202.975 232.363 C 202.869 231.446 202.941 230.509 203.201 229.623 C 203.419 228.877 203.767 228.172 204.219 227.54 C 204.221 227.538 204.223 227.536 204.225 227.534 L 204.226 227.534 Z" style="fill-opacity: 1; stroke: none; stroke-width: 0.264583px; stroke-linecap: butt; stroke-linejoin: miter; stroke-opacity: 1; fill: rgb(77, 77, 77);"/>
  <path id="path1689" d="M 204.226 227.534 C 204.224 227.536 204.222 227.538 204.219 227.541 C 203.768 228.172 203.42 228.878 203.201 229.623 C 202.942 230.509 202.87 231.447 202.976 232.363 C 202.996 232.529 203.098 232.673 203.129 232.837 L 216.649 235.491 C 216.706 235.596 216.806 235.677 216.921 235.709 C 217.041 235.743 217.174 235.725 217.28 235.66 C 217.386 235.595 217.463 235.485 217.487 235.363 C 217.944 235.34 218.393 235.177 218.76 234.903 C 219.127 234.63 219.41 234.245 219.563 233.813 C 219.716 233.382 219.737 232.905 219.625 232.462 C 219.512 232.018 219.266 231.609 218.926 231.303 C 218.824 231.211 218.714 231.129 218.614 231.037 C 218.513 230.944 218.42 230.84 218.361 230.716 C 218.294 230.576 218.273 230.415 218.198 230.279 C 218.112 230.125 217.957 230.013 217.784 229.978 C 217.611 229.944 217.425 229.989 217.287 230.098 L 204.226 227.534 Z" style="fill-opacity: 1; stroke: none; stroke-width: 0.264583px; stroke-linecap: butt; stroke-linejoin: miter; stroke-opacity: 1; fill: rgb(77, 77, 77);"/>
  <path id="path1693" d="M 183.285 236.268 C 182.848 236.334 182.457 236.39 182.051 236.45 C 183.333 239.641 183.709 243.189 183.114 246.575 L 184.302 247.063 C 184.683 243.444 184.335 239.752 183.285 236.268 L 183.285 236.268 Z" style="fill:#333333;fill-opacity:1;stroke:none;stroke-width:0.26458332px;stroke-linecap:butt;stroke-linejoin:miter;stroke-opacity:1"/>
  <path id="path1695" d="M 179.523 235.25 C 179.289 235.506 179.046 235.754 178.782 235.98 C 178.313 236.384 177.798 236.731 177.256 237.03 C 177.889 237.216 178.495 237.493 179.036 237.871 C 179.883 238.462 180.577 239.274 181.03 240.202 C 181.484 241.131 181.696 242.176 181.641 243.208 C 181.596 244.073 181.353 244.921 180.956 245.69 L 181.534 245.927 C 182.266 244.551 182.63 242.978 182.555 241.42 C 182.455 239.361 181.593 237.347 180.17 235.855 C 179.966 235.641 179.748 235.442 179.523 235.25 L 179.523 235.25 Z" style="fill:#333333;fill-opacity:1;stroke:none;stroke-width:0.26458332px;stroke-linecap:butt;stroke-linejoin:miter;stroke-opacity:1"/>
  <path id="path1697" d="M 181.091 244.343 L 180.612 245.549 L 189.619 249.244 L 190.14 247.931 C 190.126 247.927 190.113 247.925 190.1 247.921 L 181.091 244.343 Z" style="opacity:1;vector-effect:none;fill:#333333;fill-opacity:1;fill-rule:nonzero;stroke:none;stroke-width:0.30427083;stroke-linecap:butt;stroke-linejoin:miter;stroke-miterlimit:4;stroke-dasharray:none;stroke-dashoffset:0;stroke-opacity:1"/>
  <path id="path1699" d="M 199.192 204.573 C 198.285 205.296 197.174 205.764 196.019 205.872 C 195.912 205.883 195.804 205.889 195.699 205.91 C 195.593 205.93 195.488 205.965 195.4 206.026 C 195.319 206.082 195.253 206.159 195.205 206.245 C 195.156 206.331 195.126 206.425 195.107 206.521 C 195.069 206.714 195.08 206.912 195.091 207.109 C 195.229 209.615 195.169 212.13 194.989 214.634 C 194.631 219.593 193.801 224.518 192.514 229.321 C 192.705 229.562 192.985 229.73 193.288 229.785 C 193.586 229.84 193.902 229.783 194.164 229.63 C 195.019 222.607 196.104 215.613 197.416 208.661 C 197.418 208.652 197.42 208.643 197.423 208.636 C 197.425 208.627 197.429 208.621 197.436 208.614 C 197.44 208.61 197.447 208.606 197.453 208.603 C 197.46 208.601 197.468 208.601 197.475 208.599 C 197.49 208.599 197.503 208.601 197.517 208.606 C 198.645 208.861 199.825 208.88 200.963 208.671 C 200.388 208.145 199.905 207.522 199.594 206.811 C 199.288 206.11 199.162 205.337 199.193 204.573 L 199.192 204.573 Z" style="fill:#999999;fill-opacity:1;stroke:none;stroke-width:0.26458332px;stroke-linecap:butt;stroke-linejoin:miter;stroke-opacity:1"/>
  <path id="path1701" d="M 207.064 197.883 C 205.791 197.95 204.531 198.274 203.384 198.83 C 201.918 199.54 200.62 200.654 199.864 202.096 C 199.486 202.817 199.248 203.614 199.193 204.426 C 199.138 205.238 199.268 206.065 199.594 206.811 C 200.018 207.784 200.762 208.595 201.626 209.211 C 202.49 209.826 203.473 210.257 204.477 210.601 C 205.215 210.854 205.976 211.065 206.755 211.1 C 207.535 211.136 208.339 210.986 208.996 210.565 C 209.461 210.266 209.838 209.84 210.122 209.365 C 210.406 208.89 210.6 208.366 210.745 207.831 C 211.237 206.011 211.148 204.038 210.493 202.269 C 209.839 200.501 208.623 198.945 207.064 197.883 L 207.064 197.883 Z" style="fill:#999999;fill-opacity:1;stroke:none;stroke-width:0.26458332px;stroke-linecap:butt;stroke-linejoin:miter;stroke-opacity:1"/>
  <path id="path1675" d="M 178.45 230.808 C 178.658 231.792 178.876 232.761 179.02 233.838 C 179.147 234.787 179.206 235.835 179.28 236.861 C 180.903 236.637 182.923 236.337 185.299 235.969 L 185.299 230.661 C 182.577 230.708 180.106 230.755 178.45 230.808 L 178.45 230.808 Z" style="fill:#b4b4b4;fill-opacity:1;stroke:none;stroke-width:0.26458332px;stroke-linecap:butt;stroke-linejoin:miter;stroke-opacity:1"/>
  <path id="path1673" d="M 178.45 230.808 C 178.266 230.814 177.845 230.817 177.689 230.823 C 176.126 230.883 176.023 230.952 175.872 231.453 C 175.72 231.954 175.525 232.876 175.55 233.89 C 175.576 234.903 175.825 236.002 176.044 236.586 C 176.263 237.171 176.452 237.241 177.988 237.052 C 178.259 237.019 178.931 236.908 179.28 236.86 C 179.206 235.835 179.147 234.786 179.02 233.838 C 178.876 232.76 178.658 231.791 178.45 230.807 L 178.45 230.808 Z" style="fill:#eaa242;fill-opacity:1;stroke:none;stroke-width:0.26458332px;stroke-linecap:butt;stroke-linejoin:miter;stroke-opacity:1"/>
  <path id="path1681" d="M 187.545 227.136 C 186.698 226.9 185.821 226.784 184.956 226.944 C 183.653 227.186 182.44 227.893 181.588 228.908 C 182.292 231.095 183.891 232.978 185.933 234.03 C 185.999 233.9 186.101 233.792 186.163 233.661 C 186.649 232.639 187.017 231.561 187.257 230.455 C 187.422 229.695 187.526 228.922 187.569 228.146 C 187.589 227.809 187.549 227.473 187.545 227.136 L 187.545 227.136 Z" style="fill:#b4b4b4;fill-opacity:1;stroke:none;stroke-width:0.26458332px;stroke-linecap:butt;stroke-linejoin:miter;stroke-opacity:1"/>
  <path id="path1683" d="M 187.545 227.136 C 187.55 227.473 187.588 227.81 187.569 228.146 C 187.526 228.922 187.422 229.695 187.257 230.455 C 187.017 231.561 186.649 232.639 186.163 233.661 C 186.101 233.792 186 233.901 185.933 234.03 C 185.938 234.032 185.94 234.034 185.944 234.036 C 186.045 234.088 186.147 234.138 186.254 234.173 C 186.362 234.208 186.475 234.227 186.588 234.217 C 186.719 234.206 186.845 234.152 186.956 234.082 C 187.066 234.011 187.163 233.922 187.258 233.83 C 187.987 233.12 188.524 232.222 188.841 231.254 C 189.157 230.287 189.255 229.252 189.165 228.239 C 189.156 228.136 189.143 228.033 189.114 227.934 C 189.084 227.836 189.035 227.741 188.959 227.671 C 188.913 227.63 188.859 227.599 188.804 227.569 C 188.414 227.353 187.976 227.256 187.546 227.136 L 187.545 227.136 Z" style="fill:#333333;fill-opacity:1;stroke:none;stroke-width:0.26458332px;stroke-linecap:butt;stroke-linejoin:miter;stroke-opacity:1"/>
  <path id="path1567" d="M 333.621 295.752 C 333.407 295.769 333.194 295.82 333.003 295.919 C 332.811 296.017 332.643 296.164 332.533 296.349 C 332.428 296.527 332.38 296.737 332.383 296.944 C 332.386 297.151 332.438 297.356 332.521 297.545 C 332.688 297.925 332.973 298.238 333.262 298.535 C 334.978 300.296 337.004 301.719 339.02 303.127 C 339.567 303.509 340.118 303.894 340.592 304.364 C 341.066 304.834 341.464 305.399 341.644 306.042 C 341.684 306.185 341.713 306.332 341.717 306.481 C 341.722 306.629 341.701 306.78 341.644 306.917 C 341.586 307.056 341.492 307.179 341.379 307.279 C 341.265 307.379 341.133 307.456 340.994 307.515 C 340.715 307.632 340.412 307.675 340.113 307.718 C 336.136 308.293 332.192 309.07 328.233 309.759 C 322.688 310.724 317.115 311.518 311.543 312.31 C 311.13 312.369 310.714 312.428 310.324 312.577 C 309.935 312.726 309.57 312.973 309.356 313.331 C 309.204 313.587 309.136 313.891 309.152 314.189 C 309.167 314.487 309.264 314.779 309.419 315.034 C 309.727 315.545 310.252 315.899 310.814 316.1 C 311.578 316.373 312.408 316.387 313.219 316.392 C 321.119 316.439 329.012 315.972 336.906 315.663 C 340.747 315.512 344.591 315.399 348.422 315.08 C 351.629 314.812 354.938 314.362 357.678 312.675 C 358.237 312.33 358.772 311.932 359.183 311.419 C 359.593 310.907 359.871 310.27 359.865 309.613 C 359.859 309.082 359.667 308.563 359.373 308.12 C 359.079 307.678 358.687 307.308 358.261 306.99 C 357.693 306.565 357.065 306.229 356.439 305.896 C 349.599 302.265 342.618 298.873 335.376 296.13 C 334.811 295.916 334.223 295.703 333.621 295.752 L 333.621 295.752 Z" style="fill:#999999;fill-opacity:1;stroke:none;stroke-width:0.26458332px;stroke-linecap:butt;stroke-linejoin:miter;stroke-opacity:1"/>
  <path id="path1856" d="M 253.58 262.892 C 252.531 260.118 251.042 257.511 249.184 255.199 C 248.671 254.562 248.132 253.947 247.614 253.315 C 242.844 247.496 239.998 240.28 238.508 232.905 C 235.098 216.037 238.746 197.855 248.399 183.608 L 279.484 198.523 C 274.978 201.107 271.46 205.369 269.774 210.282 C 268.089 215.196 268.251 220.72 270.221 225.526 C 270.819 226.985 271.58 228.389 271.948 229.922 C 272.451 232.016 272.187 234.225 271.654 236.311 C 271.122 238.397 270.327 240.408 269.75 242.482 C 269.012 245.139 268.633 247.894 267.735 250.501 C 267.286 251.805 266.705 253.07 265.915 254.2 C 265.125 255.33 264.119 256.323 262.921 257.005 C 261.95 257.557 260.85 257.91 260.016 258.653 C 259.195 259.386 258.72 260.419 258.142 261.356 C 257.852 261.824 257.53 262.277 257.127 262.653 C 256.725 263.029 256.237 263.326 255.699 263.442 C 254.959 263.601 254.149 263.39 253.58 262.892 L 253.58 262.892 Z" style="fill-opacity: 1; stroke: none; stroke-width: 0.264583px; stroke-linecap: butt; stroke-linejoin: miter; stroke-opacity: 1; fill: rgb(77, 77, 77);" transform="matrix(-1, 0, 0, -1, 516.74115, 447.102112)"/>
  <path id="path1860" d="M 243.316 224.059 C 242.095 222.836 241.225 221.292 240.664 219.657 C 240.104 218.023 239.845 216.297 239.745 214.572 C 239.545 211.122 239.971 207.659 239.763 204.209 C 239.751 204.006 239.736 203.801 239.763 203.599 C 239.822 203.156 240.074 202.759 240.387 202.441 C 240.699 202.122 241.072 201.871 241.432 201.608 C 243.801 199.88 245.705 197.593 247.96 195.719 C 249.087 194.781 250.311 193.943 251.661 193.371 C 253.012 192.799 254.497 192.5 255.954 192.659 C 256.271 192.694 256.585 192.75 256.896 192.816 C 259.747 193.428 262.381 195.005 264.266 197.228 C 266.152 199.451 267.277 202.307 267.415 205.219 C 263.378 207.114 260.057 210.492 258.231 214.561 C 257.271 216.7 256.716 219.005 255.731 221.133 C 255.238 222.197 254.635 223.218 253.854 224.092 C 253.074 224.967 252.109 225.693 251.009 226.1 C 249.695 226.587 248.223 226.597 246.876 226.211 C 245.529 225.824 244.306 225.051 243.316 224.059 L 243.316 224.059 Z" style="fill-opacity: 1; stroke: none; stroke-width: 0.264583px; stroke-linecap: butt; stroke-linejoin: miter; stroke-opacity: 1; fill: rgb(41, 181, 62);" transform="matrix(-1, 0, 0, -1, 507.105011, 419.101044)"/>
  <path id="path1884" d="M 205.658 324.339 C 204.519 322.77 203.086 321.416 201.454 320.368 C 200.627 319.837 199.744 319.38 199.002 318.733 C 198.407 318.215 197.911 317.576 197.607 316.847 C 197.304 316.119 197.201 315.301 197.367 314.53 C 197.479 314.013 197.713 313.52 198.068 313.128 C 198.552 312.594 199.234 312.277 199.926 312.077 C 200.619 311.876 201.337 311.78 202.038 311.61 C 205.161 310.852 207.719 308.698 210.329 306.823 C 214.367 303.921 219.019 301.5 223.991 301.451 C 225.033 301.441 226.108 301.545 227.028 302.035 C 227.332 302.197 227.617 302.402 227.851 302.656 C 228.085 302.911 228.266 303.217 228.354 303.551 C 228.441 303.886 228.432 304.248 228.305 304.569 C 228.177 304.891 227.928 305.166 227.611 305.305 C 227.377 305.407 227.116 305.433 226.86 305.433 C 226.605 305.434 226.349 305.411 226.093 305.421 C 225.133 305.461 224.246 305.975 223.54 306.627 C 222.833 307.279 222.271 308.069 221.656 308.807 C 220.441 310.265 219.01 311.531 217.79 312.984 C 216.569 314.437 215.541 316.144 215.35 318.032 C 215.255 318.977 215.376 319.943 215.701 320.835 L 205.658 324.338 L 205.658 324.339 Z" style="fill:#333333;fill-opacity:1;stroke:none;stroke-width:0.26458332px;stroke-linecap:butt;stroke-linejoin:miter;stroke-opacity:1" transform="matrix(-0.94039, -0.340097, 0.340097, -0.94039, 306.596832, 679.527283)"/>
  <path id="path1864" d="M 237.257 248.578 L 268.343 263.493 C 264.195 265.937 259.762 267.88 255.242 269.511 C 244.966 273.22 223.341 268.766 223.588 278.006 L 224.317 305.234 C 220.336 307.897 215.286 308.907 210.587 307.98 C 210.302 307.924 210.017 307.86 209.735 307.79 C 208.888 298.001 204.861 262.273 213.079 256.586 C 216.191 254.432 237.257 248.578 237.257 248.578 L 237.257 248.578 Z" style="fill:#666666;fill-opacity:1;stroke:none;stroke-width:0.14248502px;stroke-linecap:butt;stroke-linejoin:miter;stroke-opacity:1"/>
  <path id="path1866" d="M 239.691 213.882 C 243.052 215.225 246.231 217.026 249.11 219.22 C 249.916 219.833 250.705 220.484 251.34 221.272 C 251.976 222.061 252.456 223.002 252.564 224.009 C 252.618 224.51 252.577 225.025 252.407 225.5 C 252.275 225.866 252.06 226.198 251.791 226.48 C 251.577 226.475 251.364 226.464 251.151 226.442 C 250.834 226.408 250.521 226.352 250.209 226.285 C 247.359 225.673 244.725 224.097 242.84 221.873 C 240.954 219.65 239.829 216.794 239.69 213.882 L 239.691 213.882 Z" style="fill:#333333;fill-opacity:1;stroke:none;stroke-width:0.14248502px;stroke-linecap:butt;stroke-linejoin:miter;stroke-opacity:1"/>
  <path id="path1868" d="M 239.691 213.882 C 243.052 215.225 246.231 217.026 249.11 219.22 C 249.916 219.833 250.705 220.484 251.34 221.272 C 251.432 221.386 251.519 221.503 251.603 221.623 C 247.43 223.618 243.066 225.215 238.59 226.382 C 234.157 227.537 229.626 228.27 225.102 228.991 C 222.882 229.345 220.661 229.697 218.44 230.046 C 218.256 231.244 217.609 232.366 216.664 233.126 C 215.85 233.782 214.822 234.167 213.778 234.209 C 212.614 235.363 211.204 236.268 209.67 236.845 C 207.826 237.54 205.805 237.758 203.855 237.471 C 202.645 236.291 201.902 234.645 201.815 232.957 C 201.786 232.397 201.827 231.827 202.004 231.294 C 202.181 230.761 202.499 230.266 202.952 229.935 C 203.492 229.541 204.187 229.399 204.719 228.993 C 205.024 228.76 205.261 228.45 205.46 228.122 C 205.659 227.795 205.823 227.447 206.004 227.109 C 206.186 226.771 206.387 226.441 206.652 226.163 C 206.917 225.886 207.249 225.662 207.623 225.579 C 207.701 225.561 207.78 225.55 207.859 225.539 C 210.17 225.232 212.525 225.652 214.845 225.421 C 215.505 225.356 216.158 225.238 216.808 225.107 C 224.941 223.472 232.644 219.767 239.012 214.451 C 239.458 214.259 239.699 214.071 239.691 213.882 L 239.691 213.882 Z" style="fill:#f69898;fill-opacity:1;stroke:none;stroke-width:0.14248502px;stroke-linecap:butt;stroke-linejoin:miter;stroke-opacity:1"/>
  <path id="path1870" d="M 250.754 159.437 C 252.745 159.431 254.742 159.794 256.63 160.439 C 259.027 161.259 261.313 162.567 262.93 164.518 C 263.739 165.494 264.371 166.622 264.728 167.838 C 265.085 169.053 265.163 170.356 264.9 171.596 C 264.446 173.741 263.031 175.548 262.236 177.591 C 261.494 179.496 261.326 181.612 261.715 183.618 C 261.49 183.603 261.263 183.611 261.042 183.66 C 260.504 183.775 260.016 184.073 259.613 184.448 C 259.211 184.824 258.889 185.277 258.6 185.746 C 258.021 186.683 257.547 187.715 256.725 188.448 C 255.891 189.191 254.791 189.545 253.82 190.096 C 253.098 190.507 252.446 191.033 251.869 191.632 L 251.912 189.914 C 251.196 190.87 250.354 191.731 249.413 192.467 C 248.129 193.473 246.59 194.263 244.958 194.264 C 244.142 194.264 243.319 194.059 242.628 193.626 C 241.936 193.193 241.383 192.525 241.143 191.745 C 240.955 191.137 240.958 190.488 240.865 189.858 C 240.764 189.173 240.549 188.51 240.31 187.86 C 239.688 186.166 238.899 184.527 238.452 182.779 C 238.005 181.031 237.926 179.11 238.701 177.48 C 238.764 177.347 238.833 177.216 238.887 177.078 C 238.94 176.94 238.979 176.795 238.978 176.647 C 238.978 176.458 238.913 176.276 238.833 176.104 C 238.754 175.933 238.658 175.768 238.59 175.592 C 238.398 175.1 238.428 174.55 238.528 174.031 C 238.628 173.512 238.794 173.007 238.867 172.484 C 239.07 171.05 238.567 169.601 238.645 168.155 C 238.731 166.546 239.536 165.045 240.588 163.825 C 242.482 161.627 245.2 160.207 248.054 159.683 C 248.945 159.519 249.849 159.44 250.754 159.437 L 250.754 159.437 Z" style="fill:#f69898;fill-opacity:1;stroke:none;stroke-width:0.14248502px;stroke-linecap:butt;stroke-linejoin:miter;stroke-opacity:1"/>
  <path style="fill-opacity: 1; stroke: none; stroke-width: 0.264583px; stroke-linecap: butt; stroke-linejoin: miter; stroke-opacity: 1; fill: rgb(41, 181, 62);" d="M 239.337 183.467 C 242.576 185.812 246.664 186.958 250.65 186.638 C 254.636 186.318 258.489 184.535 261.313 181.703 C 262.529 180.483 263.557 179.078 264.363 177.556 C 266.289 173.92 266.896 169.557 265.799 165.591 C 264.703 161.626 261.853 158.13 258.087 156.473 C 257.601 156.259 257.096 156.073 256.57 156.006 C 256.043 155.939 255.488 155.998 255.02 156.248 C 254.913 156.305 254.81 156.373 254.725 156.46 C 254.639 156.547 254.572 156.654 254.544 156.772 C 254.517 156.883 254.526 156.999 254.549 157.111 C 254.572 157.222 254.609 157.33 254.639 157.44 C 254.861 158.256 254.684 159.158 254.228 159.87 C 253.771 160.582 253.051 161.108 252.255 161.396 C 251.509 161.666 250.702 161.735 249.908 161.712 C 249.114 161.688 248.326 161.575 247.536 161.492 C 246.416 161.373 245.248 161.32 244.199 161.73 C 243.544 161.986 242.966 162.414 242.474 162.917 C 241.983 163.419 241.573 163.997 241.196 164.59 C 237.677 170.126 236.966 177.351 239.337 183.467 L 239.337 183.467 Z" id="path1872" transform="matrix(0, -1, 1, 0, 80.812057, 423.483185)"/>
  <circle transform="matrix(0, -1, 1, 0, 143.067032, 11.516322)" style="opacity: 1; vector-effect: none; fill: none; fill-opacity: 1; fill-rule: nonzero; stroke-width: 0.281436; stroke-linecap: butt; stroke-linejoin: miter; stroke-miterlimit: 4; stroke-dasharray: none; stroke-dashoffset: 0; stroke-opacity: 1; stroke: rgb(0, 93, 36);" id="circle1876" cx="-160.617" cy="106.53" r="3.48"/>
  <circle transform="matrix(0, -1, 1, 0, 143.067032, 11.516322)" r="2.166" cy="106.53" cx="-160.617" id="circle1878" style="opacity: 1; vector-effect: none; fill: none; fill-opacity: 1; fill-rule: nonzero; stroke-width: 0.281436; stroke-linecap: butt; stroke-linejoin: miter; stroke-miterlimit: 4; stroke-dasharray: none; stroke-dashoffset: 0; stroke-opacity: 1; stroke: rgb(0, 93, 36);"/>
  <circle transform="matrix(0, -1, 1, 0, 142.11174, 15.079248)" style="opacity: 1; vector-effect: none; fill-opacity: 1; fill-rule: nonzero; stroke: none; stroke-width: 0.0547001; stroke-linecap: butt; stroke-linejoin: miter; stroke-miterlimit: 4; stroke-dasharray: none; stroke-dashoffset: 0; stroke-opacity: 1; fill: rgb(0, 93, 36);" id="circle1880" cx="-163.632" cy="105.722" r="0.676"/>
  <circle transform="matrix(0, -1, 1, 0, 148.282288, 16.783264)" r="0.676" cy="110.944" cx="-165.074" id="circle1882" style="opacity: 1; vector-effect: none; fill-opacity: 1; fill-rule: nonzero; stroke: none; stroke-width: 0.0547001; stroke-linecap: butt; stroke-linejoin: miter; stroke-miterlimit: 4; stroke-dasharray: none; stroke-dashoffset: 0; stroke-opacity: 1; fill: rgb(0, 93, 36);"/>
  <path id="path1685" d="M 187.402 229.626 C 187.359 229.903 187.316 230.181 187.257 230.455 C 187.132 231.032 186.97 231.602 186.777 232.16 C 187.071 232.335 187.384 232.479 187.713 232.576 C 188.535 232.816 189.408 232.793 190.265 232.794 C 193.902 232.801 197.588 233.313 200.915 234.784 C 202.384 235.434 203.772 236.267 205.038 237.258 C 205.048 237.509 205.127 237.758 205.262 237.971 C 205.396 238.184 205.586 238.361 205.809 238.48 C 206.031 238.599 206.284 238.659 206.536 238.652 C 206.788 238.646 207.038 238.574 207.254 238.444 C 207.464 238.317 207.641 238.136 207.769 237.927 C 207.981 237.582 208.057 237.153 207.964 236.758 C 207.872 236.363 207.61 236.009 207.254 235.815 C 206.989 235.67 206.675 235.615 206.377 235.66 C 203.936 234.067 201.275 232.814 198.492 231.949 C 197.76 231.721 197.019 231.521 196.276 231.331 C 193.355 230.586 190.39 230.023 187.402 229.627 L 187.402 229.626 Z" style="fill:#b4b4b4;fill-opacity:1;stroke:none;stroke-width:0.26458332px;stroke-linecap:butt;stroke-linejoin:miter;stroke-opacity:1"/>
  <rect style="opacity: 1; vector-effect: none; fill-opacity: 1; fill-rule: nonzero; stroke: none; stroke-width: 0.304271; stroke-linecap: butt; stroke-linejoin: miter; stroke-miterlimit: 4; stroke-dasharray: none; stroke-dashoffset: 0; stroke-opacity: 1; fill: rgb(156, 234, 66);" id="rect1916" width="51.297" height="61.055" x="284.598" y="199.031" rx="2.531" ry="2.531"/>
  <path style="opacity: 1; vector-effect: none; fill-opacity: 1; fill-rule: nonzero; stroke: none; stroke-width: 0.304271; stroke-linecap: butt; stroke-linejoin: miter; stroke-miterlimit: 4; stroke-dasharray: none; stroke-dashoffset: 0; stroke-opacity: 1; fill: rgb(46, 199, 0);" d="M 290.12 199.031 C 287.061 199.031 284.598 201.494 284.598 204.553 L 284.598 215.558 L 335.895 215.558 L 335.895 204.553 C 335.895 201.494 333.431 199.031 330.372 199.031 L 290.12 199.031 Z" id="rect1918"/>
  <rect style="opacity: 1; vector-effect: none; fill-opacity: 1; fill-rule: nonzero; stroke: none; stroke-width: 0.304271; stroke-linecap: butt; stroke-linejoin: miter; stroke-miterlimit: 4; stroke-dasharray: none; stroke-dashoffset: 0; stroke-opacity: 1; fill: rgb(0, 93, 36);" id="rect1923" width="4.794" height="9.588" x="307.85" y="210.2" rx="0.583" ry="0.583"/>
</svg>