<?xml version="1.0" encoding="utf-8"?>
<svg viewBox="0 0 463 383" xmlns="http://www.w3.org/2000/svg">
  <path style="opacity: 1; vector-effect: none; fill: rgb(51, 51, 51); fill-opacity: 1; fill-rule: nonzero; stroke: none; stroke-width: 0.372952; stroke-linecap: butt; stroke-linejoin: miter; stroke-miterlimit: 4; stroke-dasharray: none; stroke-dashoffset: 0; stroke-opacity: 1;" d="M 96.131 383.351 C 68.729 383.351 46.515 361.259 46.515 334.007 C 46.516 306.755 68.731 284.664 96.131 284.664 C 123.533 284.664 145.746 306.755 145.746 334.007 C 145.748 361.259 123.535 383.351 96.131 383.351 Z M 96.131 374.844 C 118.81 374.844 137.194 356.56 137.194 334.007 C 137.194 311.453 118.81 293.171 96.131 293.171 C 73.456 293.171 55.07 311.453 55.07 334.007 C 55.07 356.56 73.456 374.844 96.131 374.844 Z" id="circle1581" transform="matrix(-1, 0, 0, -1, 192.261002, 668.014954)"/>
  <path style="opacity: 1; vector-effect: none; fill: rgb(153, 153, 153); fill-opacity: 1; fill-rule: nonzero; stroke: none; stroke-width: 0.308655; stroke-linecap: butt; stroke-linejoin: miter; stroke-miterlimit: 4; stroke-dasharray: none; stroke-dashoffset: 0; stroke-opacity: 1;" d="M 96.128 374.844 C 73.453 374.844 55.067 356.56 55.067 334.007 C 55.067 311.453 73.453 293.171 96.128 293.171 C 118.807 293.171 137.191 311.453 137.191 334.007 C 137.191 356.56 118.807 374.844 96.128 374.844 Z M 96.128 367.885 C 114.942 367.885 130.194 352.718 130.192 334.007 C 130.192 315.298 114.942 300.131 96.128 300.131 C 77.316 300.131 62.067 315.298 62.067 334.007 C 62.064 352.718 77.316 367.885 96.128 367.885 Z" id="circle1583" transform="matrix(-1, 0, 0, -1, 192.257996, 668.014954)"/>
  <path style="opacity: 1; vector-effect: none; fill: rgb(102, 102, 102); fill-opacity: 1; fill-rule: nonzero; stroke: none; stroke-width: 0.256048; stroke-linecap: butt; stroke-linejoin: miter; stroke-miterlimit: 4; stroke-dasharray: none; stroke-dashoffset: 0; stroke-opacity: 1;" d="M 96.127 367.884 C 77.315 367.884 62.063 352.717 62.066 334.006 C 62.066 315.297 77.315 300.13 96.127 300.13 C 114.941 300.13 130.191 315.297 130.191 334.006 C 130.193 352.717 114.941 367.884 96.127 367.884 Z M 96.127 361.309 C 111.291 361.309 123.582 349.085 123.581 334.006 C 123.582 318.927 111.291 306.702 96.127 306.702 C 80.967 306.702 68.674 318.927 68.674 334.006 C 68.674 349.085 80.967 361.309 96.127 361.309 Z" id="circle1585" transform="matrix(-1, 0, 0, -1, 192.257004, 668.014038)"/>
  <circle r="19.623" cy="329.608" cx="55.637" id="circle1627" style="opacity: 1; vector-effect: none; fill: rgb(153, 153, 153); fill-opacity: 1; fill-rule: nonzero; stroke: none; stroke-width: 0.122109; stroke-linecap: butt; stroke-linejoin: miter; stroke-miterlimit: 4; stroke-dasharray: none; stroke-dashoffset: 0; stroke-opacity: 1;" transform="matrix(-1.005508, 0, 0, 1, 462.276123, 0.000457)"/>
  <path id="path1679" d="M 307.777 146.441 C 307.241 145.878 306.601 145.413 306.166 144.767 C 305.263 143.433 304.577 141.949 304.133 140.402 C 303.691 138.856 303.486 137.255 303.481 135.647 C 303.477 134.285 303.694 132.931 303.964 131.594 C 304.318 131.408 304.695 131.27 305.038 131.061 C 307.21 133.162 308.659 135.993 309.087 138.976 C 309.443 141.457 309.101 144.031 308.109 146.335 C 308.003 146.383 307.886 146.396 307.777 146.441 Z" style="fill: rgb(51, 51, 51); fill-opacity: 1; stroke: none; stroke-width: 0.264583px; stroke-linecap: butt; stroke-linejoin: miter; stroke-opacity: 1;" transform="matrix(-1, 0, 0, -1, 612.704895, 277.502014)"/>
  <path style="opacity: 1; vector-effect: none; fill: rgb(51, 51, 51); fill-opacity: 1; fill-rule: nonzero; stroke: none; stroke-width: 0.33443; stroke-linecap: butt; stroke-linejoin: miter; stroke-miterlimit: 4; stroke-dasharray: none; stroke-dashoffset: 0; stroke-opacity: 1;" d="M 406.334 383.351 C 376.488 383.351 352.292 359.288 352.292 329.607 C 352.292 299.926 376.488 275.863 406.334 275.863 C 436.178 275.863 460.374 299.926 460.374 329.607 C 460.374 359.288 436.178 383.351 406.334 383.351 Z M 406.334 373.27 C 430.581 373.27 450.235 353.721 450.235 329.607 C 450.235 305.495 430.579 285.947 406.334 285.945 C 382.087 285.945 362.429 305.492 362.429 329.607 C 362.429 353.721 382.087 373.27 406.334 373.27 Z" id="circle1619" transform="matrix(-1, 0, 0, -1, 812.665955, 659.213989)"/>
  <path style="opacity: 1; vector-effect: none; fill: rgb(153, 153, 153); fill-opacity: 1; fill-rule: nonzero; stroke: none; stroke-width: 0.271699; stroke-linecap: butt; stroke-linejoin: miter; stroke-miterlimit: 4; stroke-dasharray: none; stroke-dashoffset: 0; stroke-opacity: 1;" d="M 406.336 373.269 C 382.089 373.269 362.431 353.72 362.431 329.606 C 362.431 305.491 382.089 285.944 406.336 285.944 C 430.581 285.946 450.237 305.494 450.237 329.606 C 450.237 353.72 430.583 373.269 406.336 373.269 Z M 406.336 364.737 C 425.845 364.737 441.661 349.008 441.661 329.606 C 441.661 310.202 425.845 294.473 406.336 294.473 C 386.824 294.471 371.008 310.201 371.008 329.606 C 371.008 349.01 386.824 364.739 406.336 364.737 Z" id="circle1621" transform="matrix(-1, 0, 0, -1, 812.667969, 659.213013)"/>
  <path style="opacity: 1; vector-effect: none; fill: rgb(102, 102, 102); fill-opacity: 1; fill-rule: nonzero; stroke: none; stroke-width: 0.218619; stroke-linecap: butt; stroke-linejoin: miter; stroke-miterlimit: 4; stroke-dasharray: none; stroke-dashoffset: 0; stroke-opacity: 1;" d="M 406.335 364.74 C 386.823 364.742 371.007 349.013 371.007 329.609 C 371.007 310.204 386.823 294.474 406.335 294.476 C 425.844 294.476 441.66 310.205 441.66 329.609 C 441.66 349.011 425.844 364.74 406.335 364.74 Z M 406.335 357.181 C 421.646 357.181 434.058 344.837 434.058 329.609 C 434.058 314.38 421.646 302.037 406.335 302.037 C 391.022 302.037 378.61 314.38 378.61 329.609 C 378.61 344.837 391.022 357.181 406.335 357.181 Z" id="circle1623" transform="matrix(-1, 0, 0, -1, 812.666992, 659.216003)"/>
  <path style="opacity: 1; vector-effect: none; fill: rgb(77, 77, 77); fill-opacity: 1; fill-rule: nonzero; stroke: none; stroke-width: 0.17157; stroke-linecap: butt; stroke-linejoin: miter; stroke-miterlimit: 4; stroke-dasharray: none; stroke-dashoffset: 0; stroke-opacity: 1;" d="M 406.334 357.179 C 391.021 357.179 378.609 344.835 378.609 329.607 C 378.609 314.378 391.021 302.035 406.334 302.035 C 421.645 302.035 434.057 314.378 434.057 329.607 C 434.057 344.835 421.645 357.179 406.334 357.179 Z M 406.334 349.23 C 417.23 349.23 426.063 340.443 426.065 329.607 C 426.063 318.77 417.23 309.985 406.334 309.985 C 395.435 309.983 386.6 318.768 386.6 329.607 C 386.6 340.445 395.435 349.23 406.334 349.23 Z" id="circle1625" transform="matrix(-1, 0, 0, -1, 812.666077, 659.213989)"/>
  <path id="path1547" d="M 81.166 168.48 C 58.307 172.837 37.542 186.916 24.876 206.335 C 12.212 225.758 7.749 250.235 12.47 272.902 C 13.333 277.038 14.487 281.112 15.823 285.12 C 23.878 309.285 38.797 331.143 58.404 347.51 L 96.909 331.799 C 81.827 308.121 75.72 278.935 80.05 251.24 C 81.039 244.902 82.586 238.564 85.633 232.91 C 90.178 224.481 97.846 218.033 106.298 213.468 C 116.553 207.936 128.665 204.926 140.009 207.641 C 145.681 208.998 151.046 211.792 155.157 215.906 C 159.274 220.021 162.083 225.475 162.705 231.244 C 163.075 234.66 162.69 238.107 162.405 241.531 C 162.121 244.956 161.941 248.443 162.705 251.794 C 163.336 254.557 164.593 257.142 166.056 259.572 C 174.275 273.207 188.899 281.997 204.127 286.829 C 222.709 292.727 242.713 293.449 262.012 290.648 C 281.314 287.847 299.977 281.609 317.861 273.869 C 346.667 261.403 373.728 244.964 398.029 225.167 C 386.021 219.953 373.402 216.123 360.513 213.778 C 326.3 207.553 290.774 211.831 256.651 205.137 C 249.356 203.707 242.115 201.764 235.399 198.592 C 228.682 195.421 222.481 190.969 217.949 185.106 C 216.946 183.81 216.026 182.448 214.969 181.197 C 213.91 179.947 212.694 178.794 211.236 178.038 C 209.571 177.173 207.666 176.862 205.789 176.838 C 203.913 176.814 202.045 177.058 200.179 177.253 C 180.292 179.309 160.35 175.232 140.696 171.593 C 121.04 167.955 100.802 164.738 81.166 168.48 Z" style="fill-opacity: 1; stroke: none; stroke-width: 0.264583px; stroke-linecap: butt; stroke-linejoin: miter; stroke-opacity: 1; fill: rgb(11, 146, 9);" transform="matrix(-1, 0, 0, -1, 408.661835, 514.320984)"/>
  <path id="path1551" d="M 334.999 304.6 C 334.776 304.598 334.548 304.598 334.33 304.642 C 334.109 304.688 333.895 304.783 333.743 304.947 C 333.648 305.052 333.58 305.182 333.542 305.317 C 333.502 305.452 333.492 305.595 333.504 305.736 C 333.525 306.019 333.629 306.287 333.743 306.546 C 334.232 307.646 334.961 308.621 335.685 309.58 C 340.628 316.125 345.878 322.523 352.206 327.753 C 358.538 332.98 366.053 337.023 374.19 338.253 C 381.283 339.323 388.739 338.265 395.516 340.609 C 397.864 341.423 400.075 342.634 402.018 344.176 C 406.797 308.247 428.668 274.94 459.823 256.14 C 460.337 255.829 460.866 255.513 461.231 255.038 C 461.415 254.802 461.554 254.528 461.61 254.235 C 461.666 253.941 461.635 253.629 461.497 253.362 C 461.333 253.047 461.036 252.818 460.71 252.674 C 460.383 252.529 460.032 252.459 459.683 252.391 C 457.238 251.91 454.774 251.446 452.283 251.418 C 446.529 251.354 440.928 253.649 436.292 257.036 C 431.656 260.423 427.895 264.853 424.497 269.47 C 417.963 278.347 412.404 288.281 403.555 294.88 C 394.599 301.56 383.166 304.096 372 304.879 C 359.691 305.742 347.337 304.688 334.999 304.6 Z" style="fill-opacity: 1; stroke: none; stroke-width: 0.264583px; stroke-linecap: butt; stroke-linejoin: miter; stroke-opacity: 1; fill: rgb(28, 132, 39);" transform="matrix(-1, 0, 0, -1, 795.13562, 595.592712)"/>
  <path id="path1555" d="M 194.232 282.68 C 198.386 294.538 203.825 305.948 210.424 316.654 C 215.044 324.147 220.28 331.35 226.813 337.274 C 228.826 339.097 230.985 340.813 233.468 341.922 C 235.95 343.033 238.804 343.5 241.426 342.773 C 242.256 342.54 243.07 342.184 243.726 341.625 C 244.384 341.065 244.876 340.288 244.978 339.432 C 245.056 338.804 244.92 338.166 244.686 337.576 C 244.452 336.988 244.124 336.441 243.796 335.898 C 238.954 327.881 234.148 319.824 230.169 311.352 C 224.951 300.235 221.205 288.501 217.533 276.79 C 214.998 268.711 212.469 260.503 212.202 252.046 C 211.784 238.941 217.103 225.781 226.418 216.503 C 233.571 209.377 242.822 204.59 252.483 201.578 C 258.835 199.596 265.408 198.341 272.031 197.651 C 278.521 196.973 285.056 196.835 291.579 196.668 C 312.761 196.127 333.977 195.263 354.964 192.349 C 366.227 190.783 377.521 188.62 388.879 189.226 C 388.975 189.23 389.068 189.234 389.165 189.228 C 389.258 189.221 389.354 189.2 389.438 189.156 C 389.558 189.093 389.653 188.981 389.706 188.855 C 389.758 188.727 389.772 188.586 389.756 188.451 C 389.723 188.177 389.584 187.93 389.438 187.698 C 388.104 185.576 386.097 183.885 383.784 182.907 C 381.698 182.028 379.41 181.726 377.144 181.718 C 374.882 181.708 372.63 181.983 370.379 182.213 C 351.684 184.134 332.798 183.099 314.111 181.102 C 293.549 178.905 272.559 175.564 252.397 180.131 C 230.738 185.037 211.412 199.363 200.499 218.607 C 189.584 237.849 187.252 261.707 194.232 282.68 Z" style="fill-opacity: 1; stroke: none; stroke-width: 0.264583px; stroke-linecap: butt; stroke-linejoin: miter; stroke-opacity: 1; fill: rgb(41, 181, 62);" transform="matrix(-1, 0, 0, -1, 580.031067, 520.973022)"/>
  <path id="path1559" d="M 191.196 331.844 C 188.465 331.247 185.77 330.494 183.131 329.579 C 173.108 326.102 163.803 320.269 156.976 312.187 C 156.82 311.694 156.659 311.202 156.504 310.708 C 153.969 302.628 151.44 294.422 151.173 285.963 C 150.755 272.86 156.074 259.698 165.389 250.42 C 172.542 243.294 181.796 238.507 191.454 235.495 C 197.808 233.513 204.379 232.258 211.002 231.568 C 217.492 230.89 224.024 230.752 230.55 230.587 C 251.732 230.044 272.948 229.18 293.935 226.264 C 304.7 224.768 315.492 222.736 326.342 223.086 C 326.996 223.948 327.631 224.822 328.293 225.675 C 332.825 231.538 339.024 235.989 345.741 239.161 C 352.165 242.193 359.071 244.099 366.041 245.512 C 367.518 248.303 368.297 251.569 367.585 254.641 C 366.928 257.475 365.017 259.956 362.549 261.516 C 360.411 262.866 357.92 263.547 355.441 264.067 C 349.216 265.374 342.84 265.781 336.486 266.128 C 322.213 266.909 307.922 267.405 293.637 267.996 C 288.487 268.209 283.224 268.456 278.434 270.352 C 276.518 271.108 274.655 272.164 273.398 273.787 C 273.324 273.883 273.257 273.981 273.185 274.08 C 273.168 273.324 273.13 272.565 273.047 271.811 C 272.425 266.042 269.613 260.59 265.499 256.476 C 261.388 252.363 256.023 249.567 250.352 248.21 C 239.007 245.495 226.895 248.503 216.642 254.037 C 208.188 258.602 200.521 265.048 195.977 273.479 C 192.93 279.133 191.383 285.471 190.393 291.809 C 188.32 305.068 188.645 318.669 191.196 331.844 Z" style="fill-opacity: 1; stroke: none; stroke-width: 0.264583px; stroke-linecap: butt; stroke-linejoin: miter; stroke-opacity: 1; fill: rgb(77, 77, 77);" transform="matrix(-1, 0, 0, -1, 519.002014, 554.890198)"/>
  <path id="path1561" d="M 131.193 212.724 C 124.372 209.34 117.656 205.745 111.089 201.893 C 108.339 200.281 105.58 198.606 102.52 197.701 C 100.991 197.25 99.394 196.994 97.797 197.059 C 96.203 197.122 94.612 197.511 93.217 198.281 C 91.744 199.098 90.522 200.323 89.602 201.729 C 88.682 203.133 88.054 204.714 87.632 206.335 C 86.019 212.517 87.347 219.059 89.028 225.222 C 89.949 228.598 90.985 231.97 92.597 235.081 C 94.208 238.192 96.432 241.054 99.361 242.995 C 102.16 244.849 105.496 245.793 108.844 246.116 C 112.192 246.441 115.569 246.175 118.909 245.771 C 126.908 244.807 134.865 243.064 142.923 243.271 C 150.607 243.471 158.121 245.444 165.542 247.439 C 191.939 254.533 219.363 262.146 246.242 257.158 C 247.61 256.903 248.982 256.616 250.259 256.069 C 251.538 255.52 252.728 254.695 253.503 253.548 C 254.523 252.043 254.739 250.155 254.885 248.349 C 255.154 244.951 255.273 241.539 255.477 238.136 C 255.645 235.299 255.858 232.366 254.885 229.693 C 253.861 226.887 251.588 224.649 248.959 223.212 C 247.166 222.235 245.205 221.596 243.233 221.053 C 240.404 220.272 237.476 219.668 234.545 219.874 C 230.959 220.127 227.572 221.577 224.365 223.196 C 221.161 224.818 218.027 226.637 214.603 227.728 C 211.856 228.604 208.978 228.99 206.111 229.301 C 199.295 230.036 192.417 230.359 185.576 229.89 C 171.508 228.925 157.852 224.631 144.901 219.089 C 140.269 217.106 135.707 214.962 131.193 212.724 Z" style="fill-opacity: 1; stroke: none; stroke-width: 0.264583px; stroke-linecap: butt; stroke-linejoin: miter; stroke-opacity: 1; fill: rgb(77, 77, 77);" transform="matrix(-1, 0, 0, -1, 342.523682, 455.80957)"/>
  <path id="path1565" d="M 113.957 309.371 C 104.906 309.466 95.832 308.61 86.936 306.935 C 75.075 304.698 63.396 300.973 53.009 294.853 C 46.023 290.736 39.71 285.594 33.601 280.273 C 28.261 275.621 22.996 270.753 19.081 264.86 C 17.937 263.141 16.908 261.32 16.282 259.361 C 16.855 259.056 17.443 258.777 18.044 258.54 C 22.834 256.644 28.097 256.397 33.247 256.184 C 47.532 255.593 61.823 255.097 76.096 254.316 C 82.45 253.969 88.826 253.562 95.051 252.255 C 97.53 251.735 100.021 251.054 102.159 249.704 C 104.627 248.144 106.538 245.663 107.195 242.829 C 107.907 239.757 107.128 236.491 105.651 233.7 C 105.969 233.763 106.285 233.832 106.603 233.894 C 140.726 240.588 176.252 236.312 210.465 242.536 C 221.351 244.517 232.035 247.566 242.33 251.603 C 242.183 253.168 241.779 254.704 241.082 256.113 C 239.708 258.883 237.315 261.048 234.676 262.677 C 232.039 264.305 229.137 265.454 226.28 266.666 C 197.333 278.962 171.417 298.706 140.832 306.101 C 132.036 308.229 123.009 309.274 113.957 309.371 Z" style="fill-opacity: 1; stroke: none; stroke-width: 0.264583px; stroke-linecap: butt; stroke-linejoin: miter; stroke-opacity: 1; fill: rgb(41, 181, 62);" transform="matrix(-1, 0, 0, -1, 258.612, 543.078125)"/>
  <circle r="1.866" cy="300.249" cx="302.332" id="circle1647" style="opacity: 1; vector-effect: none; fill: rgb(51, 51, 51); fill-opacity: 1; fill-rule: nonzero; stroke: none; stroke-width: 0.304271; stroke-linecap: butt; stroke-linejoin: miter; stroke-miterlimit: 4; stroke-dasharray: none; stroke-dashoffset: 0; stroke-opacity: 1;" transform="matrix(-1.005508, 0, 0, 1, 462.276123, 0.000457)"/>
  <path id="path1573" d="M 81.932 331.595 C 80.627 329.468 79.491 327.237 78.576 324.92 C 77.602 322.457 76.87 319.866 76.833 317.221 C 76.8 314.578 77.509 311.864 79.168 309.797 C 80.665 307.932 82.841 306.695 85.126 305.956 C 87.408 305.217 89.811 304.935 92.201 304.691 C 110.721 302.805 129.408 302.939 147.922 300.96 C 154.311 300.278 160.672 299.345 167.075 298.801 C 170.043 298.549 173.133 298.398 175.895 299.502 C 177.276 300.053 178.548 300.924 179.446 302.106 C 180.344 303.288 180.847 304.79 180.699 306.263 C 180.657 306.68 180.566 307.096 180.583 307.515 C 180.592 307.724 180.628 307.936 180.711 308.128 C 180.794 308.32 180.923 308.498 181.094 308.619 C 181.272 308.745 181.487 308.81 181.702 308.843 C 181.916 308.877 182.135 308.88 182.353 308.896 C 183.447 308.978 184.514 309.398 185.376 310.074 C 186.235 310.751 186.892 311.681 187.246 312.716 C 187.6 313.75 187.652 314.884 187.403 315.947 C 187.154 317.013 186.606 318.003 185.844 318.79 C 184.575 320.097 182.706 320.804 180.885 320.665 C 179.012 324.193 176.22 327.236 172.859 329.411 C 169.53 331.566 165.648 332.87 161.688 333.161 C 157.305 339.709 151.243 345.135 144.234 348.779 C 137.224 352.426 129.286 354.283 121.378 354.128 C 113.47 353.973 105.612 351.805 98.752 347.888 C 91.895 343.969 86.052 338.311 81.932 331.595 Z" style="fill: rgb(51, 51, 51); fill-opacity: 1; stroke: none; stroke-width: 0.264583px; stroke-linecap: butt; stroke-linejoin: miter; stroke-opacity: 1;" transform="matrix(-1, 0, 0, -1, 264.389343, 652.757629)"/>
  <path id="path1571" d="M 148.959 329.077 C 116.824 324.27 83.674 327.61 51.727 321.545 C 51.877 320.339 52.159 319.15 52.61 318.021 C 52.931 317.221 53.338 316.428 53.992 315.863 C 54.569 315.361 55.304 315.07 56.054 314.912 C 56.802 314.753 57.573 314.719 58.339 314.682 C 75.037 313.904 91.683 311.398 108.392 311.934 C 109.02 311.954 109.657 311.98 110.267 311.839 C 110.978 311.673 111.621 311.288 112.196 310.838 C 112.77 310.388 113.282 309.87 113.823 309.382 C 117.208 306.327 121.583 304.59 125.966 303.293 C 129.313 302.303 132.755 301.528 136.247 301.47 C 139.739 301.411 143.303 302.104 146.303 303.883 C 147.455 304.566 148.531 305.42 149.266 306.534 C 149.942 307.563 150.303 308.766 150.548 309.971 C 151.835 316.279 150.198 322.747 148.959 329.077 Z" style="fill: rgb(51, 51, 51); fill-opacity: 1; stroke: none; stroke-width: 0.264583px; stroke-linecap: butt; stroke-linejoin: miter; stroke-opacity: 1;" transform="matrix(-1, 0, 0, -1, 202.744293, 630.543579)"/>
  <circle style="opacity: 1; vector-effect: none; fill: rgb(77, 77, 77); fill-opacity: 1; fill-rule: nonzero; stroke: none; stroke-width: 0.364963; stroke-linecap: butt; stroke-linejoin: miter; stroke-miterlimit: 4; stroke-dasharray: none; stroke-dashoffset: 0; stroke-opacity: 1;" id="circle1579" cx="358.839" cy="337.068" r="18.726" transform="matrix(-1.005508, 0, 0, 1, 462.276123, 0.000457)"/>
  <circle r="15.611" cy="340.309" cx="362.079" id="circle1577" style="opacity: 1; vector-effect: none; fill: rgb(102, 102, 102); fill-opacity: 1; fill-rule: nonzero; stroke: none; stroke-width: 0.304271; stroke-linecap: butt; stroke-linejoin: miter; stroke-miterlimit: 4; stroke-dasharray: none; stroke-dashoffset: 0; stroke-opacity: 1;" transform="matrix(-1.005508, 0, 0, 1, 462.276123, 0.000457)"/>
  <path id="path1589" d="M 405.167 338.842 C 404.504 337.434 404.27 335.847 404.381 334.296 C 404.494 332.747 404.942 331.232 405.586 329.817 C 406.779 327.194 408.628 324.913 410.697 322.901 C 412.766 320.889 415.063 319.125 417.313 317.319 C 419.706 315.398 422.086 313.406 424.852 312.07 C 426.235 311.403 427.71 310.906 429.233 310.7 C 430.756 310.496 432.331 310.589 433.79 311.07 C 435.72 311.704 437.426 313.043 438.399 314.819 C 438.748 315.461 439.004 316.157 439.112 316.879 C 439.22 317.6 439.179 318.35 438.956 319.045 C 438.733 319.741 438.324 320.381 437.761 320.849 C 437.197 321.318 436.478 321.607 435.745 321.623 C 434.755 321.643 433.802 321.186 432.812 321.207 C 432.239 321.219 431.678 321.392 431.17 321.659 C 430.664 321.926 430.211 322.281 429.791 322.672 C 428.956 323.451 428.25 324.368 427.368 325.094 C 426.126 326.114 424.598 326.701 423.177 327.454 C 421.977 328.092 420.837 328.86 419.863 329.808 C 418.889 330.753 418.08 331.884 417.594 333.15 C 417.091 334.455 416.94 335.861 416.673 337.234 C 416.405 338.606 415.996 340.003 415.08 341.064 C 414.425 341.824 413.532 342.37 412.566 342.641 C 411.596 342.91 410.555 342.904 409.582 342.649 C 407.636 342.142 406.021 340.652 405.167 338.84 L 405.167 338.842 Z" style="fill: rgb(204, 204, 204); fill-opacity: 1; stroke: none; stroke-width: 0.264583px; stroke-linecap: butt; stroke-linejoin: miter; stroke-opacity: 1;" transform="matrix(-1, 0, 0, -1, 843.523743, 653.439819)"/>
  <path id="path1593" d="M 387.695 341.588 C 386.913 341.578 386.14 341.218 385.637 340.623 C 385.134 340.029 384.906 339.212 385.029 338.444 C 385.112 337.928 385.344 337.444 385.622 336.998 C 385.899 336.552 386.222 336.134 386.509 335.695 C 386.852 335.173 387.147 334.609 387.295 334.001 C 387.444 333.396 387.439 332.738 387.2 332.161 C 387.044 331.78 386.79 331.446 386.557 331.105 C 386.323 330.764 386.101 330.403 386.017 330 C 385.951 329.695 385.968 329.377 386.052 329.076 C 386.132 328.775 386.278 328.495 386.461 328.243 C 386.831 327.741 387.351 327.366 387.892 327.055 C 388.74 326.569 389.694 326.218 390.674 326.228 C 391.162 326.232 391.654 326.329 392.099 326.533 C 392.544 326.736 392.939 327.049 393.224 327.447 C 393.483 327.817 393.645 328.253 393.703 328.701 C 393.76 329.148 393.72 329.607 393.603 330.044 C 393.372 330.917 392.848 331.69 392.236 332.356 C 391.971 332.646 391.687 332.921 391.457 333.239 C 391.229 333.557 391.057 333.931 391.051 334.321 C 391.045 334.721 391.215 335.104 391.417 335.451 C 391.622 335.795 391.867 336.118 392.038 336.481 C 392.28 336.993 392.365 337.573 392.306 338.135 C 392.248 338.697 392.046 339.243 391.743 339.72 C 391.324 340.382 390.708 340.92 389.995 341.249 C 389.281 341.578 388.473 341.696 387.695 341.588 Z" style="fill: rgb(204, 204, 204); fill-opacity: 1; stroke: none; stroke-width: 0.264583px; stroke-linecap: butt; stroke-linejoin: miter; stroke-opacity: 1;" transform="matrix(-1, 0, 0, -1, 778.724915, 667.854675)"/>
  <path id="path1597" d="M 389.289 319.122 C 389.715 317.948 390.409 316.853 391.383 316.066 C 392.349 315.286 393.56 314.838 394.791 314.668 C 396.024 314.496 397.281 314.594 398.503 314.816 C 401.215 315.314 403.813 316.454 405.956 318.179 C 408.098 319.903 409.771 322.218 410.652 324.815 C 411.359 326.905 411.553 329.137 411.488 331.34 C 411.466 332.19 411.404 333.045 411.553 333.88 C 411.625 334.297 411.751 334.708 411.95 335.084 C 412.152 335.458 412.428 335.794 412.774 336.042 C 413.16 336.317 413.614 336.47 414.048 336.659 C 414.483 336.846 414.918 337.082 415.194 337.465 C 415.492 337.883 415.564 338.419 415.574 338.931 C 415.581 339.44 415.535 339.959 415.638 340.46 C 415.814 341.329 416.406 342.043 416.897 342.783 C 417.139 343.154 417.366 343.542 417.502 343.964 C 417.638 344.384 417.682 344.844 417.563 345.271 C 417.476 345.576 417.308 345.861 417.063 346.064 C 416.819 346.266 416.496 346.38 416.181 346.351 C 415.941 346.333 415.715 346.232 415.517 346.096 C 415.321 345.959 415.155 345.785 415.006 345.598 C 414.706 345.227 414.464 344.804 414.107 344.487 C 413.726 344.149 413.238 343.953 412.743 343.823 C 412.249 343.695 411.74 343.627 411.243 343.506 C 409.642 343.112 408.213 342.175 407.039 341.023 C 405.863 339.872 404.919 338.509 404.038 337.122 C 402.962 335.437 401.945 333.677 400.483 332.312 C 399.367 331.269 398.025 330.491 396.633 329.855 C 395.516 329.349 394.359 328.928 393.258 328.385 C 392.157 327.841 391.102 327.16 390.312 326.225 C 389.506 325.264 389.008 324.058 388.848 322.816 C 388.689 321.575 388.86 320.3 389.289 319.122 Z" style="fill: rgb(204, 204, 204); fill-opacity: 1; stroke: none; stroke-width: 0.264583px; stroke-linecap: butt; stroke-linejoin: miter; stroke-opacity: 1;" transform="matrix(-1, 0, 0, -1, 806.42157, 660.935852)"/>
  <path id="path1601" d="M 421.828 310.111 C 421.807 310.096 421.79 310.082 421.767 310.063 C 416.584 305.989 409.509 300 405.873 296.841 C 402.234 293.685 402.037 293.356 404.307 292.881 C 406.579 292.406 411.319 291.785 414.018 291.638 C 416.717 291.491 417.375 291.817 421.429 295.395 C 424.807 298.374 430.199 303.31 434.178 306.994 C 430.218 308.455 426.05 309.448 421.828 310.111 Z" style="fill: rgb(204, 204, 204); fill-opacity: 1; stroke: none; stroke-width: 0.264583px; stroke-linecap: butt; stroke-linejoin: miter; stroke-opacity: 1;" transform="matrix(-1, 0, 0, -1, 837.002441, 601.721252)"/>
  <circle r="2.061" cy="303.587" cx="41.054" id="circle1603" style="opacity: 1; vector-effect: none; fill: rgb(51, 51, 51); fill-opacity: 1; fill-rule: nonzero; stroke: none; stroke-width: 0.304271; stroke-linecap: butt; stroke-linejoin: miter; stroke-miterlimit: 4; stroke-dasharray: none; stroke-dashoffset: 0; stroke-opacity: 1;" transform="matrix(-1.005508, 0, 0, 1, 462.276123, 0.000457)"/>
  <circle style="opacity: 1; vector-effect: none; fill: rgb(51, 51, 51); fill-opacity: 1; fill-rule: nonzero; stroke: none; stroke-width: 0.304271; stroke-linecap: butt; stroke-linejoin: miter; stroke-miterlimit: 4; stroke-dasharray: none; stroke-dashoffset: 0; stroke-opacity: 1;" id="circle1605" cx="50.627" cy="295.782" r="2.061" transform="matrix(-1.005508, 0, 0, 1, 462.276123, 0.000457)"/>
  <circle r="2.849" cy="327.856" cx="36.153" id="circle1607" style="opacity: 1; vector-effect: none; fill: rgb(51, 51, 51); fill-opacity: 1; fill-rule: nonzero; stroke: none; stroke-width: 0.304271; stroke-linecap: butt; stroke-linejoin: miter; stroke-miterlimit: 4; stroke-dasharray: none; stroke-dashoffset: 0; stroke-opacity: 1;" transform="matrix(-1.005508, 0, 0, 1, 462.276123, 0.000457)"/>
  <circle style="opacity: 1; vector-effect: none; fill: rgb(51, 51, 51); fill-opacity: 1; fill-rule: nonzero; stroke: none; stroke-width: 0.304271; stroke-linecap: butt; stroke-linejoin: miter; stroke-miterlimit: 4; stroke-dasharray: none; stroke-dashoffset: 0; stroke-opacity: 1;" id="circle1609" cx="28.733" cy="317.825" r="2.849" transform="matrix(-1.005508, 0, 0, 1, 462.276123, 0.000457)"/>
  <circle r="0.993" cy="344.059" cx="52.138" id="circle1611" style="opacity: 1; vector-effect: none; fill: rgb(51, 51, 51); fill-opacity: 1; fill-rule: nonzero; stroke: none; stroke-width: 0.384363; stroke-linecap: butt; stroke-linejoin: miter; stroke-miterlimit: 4; stroke-dasharray: none; stroke-dashoffset: 0; stroke-opacity: 1;" transform="matrix(-1.005508, 0, 0, 1, 462.276123, 0.000457)"/>
  <circle style="opacity: 1; vector-effect: none; fill: rgb(51, 51, 51); fill-opacity: 1; fill-rule: nonzero; stroke: none; stroke-width: 0.384363; stroke-linecap: butt; stroke-linejoin: miter; stroke-miterlimit: 4; stroke-dasharray: none; stroke-dashoffset: 0; stroke-opacity: 1;" id="circle1613" cx="58.309" cy="341.484" r="0.993" transform="matrix(-1.005508, 0, 0, 1, 462.276123, 0.000457)"/>
  <circle r="0.993" cy="337.454" cx="62.776" id="circle1615" style="opacity: 1; vector-effect: none; fill: rgb(51, 51, 51); fill-opacity: 1; fill-rule: nonzero; stroke: none; stroke-width: 0.384363; stroke-linecap: butt; stroke-linejoin: miter; stroke-miterlimit: 4; stroke-dasharray: none; stroke-dashoffset: 0; stroke-opacity: 1;" transform="matrix(-1.005508, 0, 0, 1, 462.276123, 0.000457)"/>
  <path id="path1617" d="M 409.436 326.507 C 402.487 318.663 395.414 310.677 391.907 306.718 C 387.856 302.147 387.856 302.147 388.648 301.372 C 389.44 300.596 391.022 299.045 391.896 298.27 C 392.767 297.494 392.932 297.496 397.428 301.785 C 401.47 305.64 409.211 313.153 417.173 320.883 C 416.108 321.862 414.997 322.798 413.827 323.67 C 412.422 324.718 410.951 325.653 409.436 326.507 Z" style="fill: rgb(204, 204, 204); fill-opacity: 1; stroke: none; stroke-width: 0.264583px; stroke-linecap: butt; stroke-linejoin: miter; stroke-opacity: 1;" transform="matrix(-1, 0, 0, -1, 805.409729, 624.383423)"/>
  <circle r="2.946" cy="240.985" cx="303.185" id="circle1629" style="opacity: 1; vector-effect: none; fill-opacity: 1; fill-rule: nonzero; stroke: none; stroke-width: 0.304271; stroke-linecap: butt; stroke-linejoin: miter; stroke-miterlimit: 4; stroke-dasharray: none; stroke-dashoffset: 0; stroke-opacity: 1; fill: rgb(0, 93, 36);" transform="matrix(-1.005508, 0, 0, 1, 462.276123, 0.000457)"/>
  <path id="path1631" d="M 185.982 306.872 L 198.894 306.872 C 201.275 306.872 203.193 305.333 203.193 303.42 C 203.193 301.506 201.275 299.968 198.894 299.968 L 192.618 299.968 C 190.235 299.968 184.894 300.471 183.894 303.42 C 183.463 304.693 183.601 306.872 185.982 306.872 Z" style="opacity: 1; vector-effect: none; fill: rgb(51, 51, 51); fill-opacity: 1; fill-rule: nonzero; stroke: none; stroke-width: 0.280066; stroke-linecap: butt; stroke-linejoin: miter; stroke-miterlimit: 4; stroke-dasharray: none; stroke-dashoffset: 0; stroke-opacity: 1;" transform="matrix(-1, 0, 0, -1, 386.895264, 606.839966)"/>
  <path id="path1633" d="M 191.381 316.843 L 214.319 316.843 C 216.688 316.843 216.811 314.706 216.387 313.455 C 215.388 310.521 210.055 310.067 207.685 310.067 L 191.381 310.067 C 189.011 310.067 187.103 311.578 187.103 313.455 C 187.103 315.332 189.011 316.843 191.381 316.843 Z" style="opacity: 1; vector-effect: none; fill: rgb(51, 51, 51); fill-opacity: 1; fill-rule: nonzero; stroke: none; stroke-width: 0.304271; stroke-linecap: butt; stroke-linejoin: miter; stroke-miterlimit: 4; stroke-dasharray: none; stroke-dashoffset: 0; stroke-opacity: 1;" transform="matrix(-1, 0, 0, -1, 403.680389, 626.909973)"/>
  <circle r="2.082" cy="286.48" cx="327.056" id="circle1635" style="opacity: 1; vector-effect: none; fill-opacity: 1; fill-rule: nonzero; stroke: none; stroke-width: 0.304271; stroke-linecap: butt; stroke-linejoin: miter; stroke-miterlimit: 4; stroke-dasharray: none; stroke-dashoffset: 0; stroke-opacity: 1; fill: rgb(0, 93, 36);" transform="matrix(-1.005508, 0, 0, 1, 462.276123, 0.000457)"/>
  <circle style="opacity: 1; vector-effect: none; fill-opacity: 1; fill-rule: nonzero; stroke: none; stroke-width: 0.304271; stroke-linecap: butt; stroke-linejoin: miter; stroke-miterlimit: 4; stroke-dasharray: none; stroke-dashoffset: 0; stroke-opacity: 1; fill: rgb(0, 93, 36);" id="circle1637" cx="383.611" cy="282.946" r="2.082" transform="matrix(-1.005508, 0, 0, 1, 462.276123, 0.000457)"/>
  <circle r="3.191" cy="284.783" cx="66.877" id="circle1639" style="opacity: 1; vector-effect: none; fill: none; fill-opacity: 1; fill-rule: nonzero; stroke: none; stroke-width: 0.304271; stroke-linecap: butt; stroke-linejoin: miter; stroke-miterlimit: 4; stroke-dasharray: none; stroke-dashoffset: 0; stroke-opacity: 1;" transform="matrix(-1.005508, 0, 0, 1, 462.276123, 0.000457)"/>
  <path id="path1641" d="M 78.535 316.401 C 78.069 316.573 77.596 316.762 77.227 317.095 C 77.044 317.261 76.888 317.462 76.795 317.69 C 76.7 317.922 76.67 318.178 76.726 318.419 C 76.766 318.596 76.854 318.762 76.959 318.91 C 77.065 319.059 77.191 319.191 77.319 319.322 C 78.598 320.63 80.162 321.758 81.968 322.092 C 82.869 322.26 83.818 322.218 84.684 321.913 C 85.548 321.608 86.326 321.033 86.813 320.259 C 87.173 319.688 87.373 319.017 87.37 318.343 C 87.368 317.668 87.162 316.996 86.779 316.441 C 86.402 315.898 85.857 315.473 85.239 315.241 C 84.62 315.007 83.931 314.965 83.287 315.121 C 81.669 315.411 80.078 315.839 78.535 316.401 Z" style="fill: rgb(26, 26, 26); fill-opacity: 1; stroke: none; stroke-width: 0.264583px; stroke-linecap: butt; stroke-linejoin: miter; stroke-opacity: 1;" transform="matrix(-1, 0, 0, -1, 164.067917, 637.218079)"/>
  <circle r="1.457" cy="313.592" cx="363.367" id="circle1645" style="opacity: 1; vector-effect: none; fill: rgb(26, 26, 26); fill-opacity: 1; fill-rule: nonzero; stroke: none; stroke-width: 0.304271; stroke-linecap: butt; stroke-linejoin: miter; stroke-miterlimit: 4; stroke-dasharray: none; stroke-dashoffset: 0; stroke-opacity: 1;" transform="matrix(-1.005508, 0, 0, 1, 462.276123, 0.000457)"/>
  <path id="path1649" d="M 321.242 183.314 C 317.937 180.556 314.78 177.632 311.751 174.576 C 312.555 174.417 313.335 174.262 314.287 174.087 C 325.249 172.073 346.285 168.925 356.968 167.19 C 357.948 167.032 358.441 166.948 359.254 166.813 C 359.419 167.076 359.579 167.342 359.747 167.605 L 321.242 183.314 Z" style="fill: none; stroke: none; stroke-width: 0.264583px; stroke-linecap: butt; stroke-linejoin: miter; stroke-opacity: 1;" transform="matrix(-1, 0, 0, -1, 671.497986, 350.127014)"/>
  <path id="path1651" d="M 51.633 271.092 L 35.886 253.597 C 41.996 250.066 47.995 246.345 53.873 242.443 L 63.417 267.161 C 63.125 266.968 62.748 266.835 62.227 266.814 C 59.982 266.725 55.263 268.592 51.88 270.909 C 51.794 270.967 51.719 271.031 51.633 271.092 Z" style="fill: rgb(153, 153, 153); fill-opacity: 1; stroke: none; stroke-width: 0.264583px; stroke-linecap: butt; stroke-linejoin: miter; stroke-opacity: 1;" transform="matrix(-1, 0, 0, -1, 99.303001, 513.534973)"/>
  <path id="path1653" d="M 14.612 225.637 C 16.825 226.184 19.039 226.963 20.33 228.466 C 22.415 230.898 21.919 235.007 21.354 237.234 C 20.79 239.461 20.16 239.828 16.133 239.697 C 15.066 239.663 13.381 239.491 11.937 239.383 C 11.981 239.328 12.052 239.298 12.094 239.24 C 12.551 238.627 12.888 237.943 13.153 237.227 C 13.417 236.51 13.609 235.761 13.775 235.016 C 14.231 232.959 14.528 230.867 14.66 228.766 C 14.725 227.723 14.626 226.681 14.612 225.637 Z" style="fill: rgb(234, 66, 66); fill-opacity: 1; stroke: none; stroke-width: 0.264583px; stroke-linecap: butt; stroke-linejoin: miter; stroke-opacity: 1;" transform="matrix(-1, 0, 0, -1, 33.782948, 465.35733)"/>
  <path id="path1655" d="M 41.777 245.035 C 38.611 244.696 35.271 244.212 32.415 243.518 C 26.971 242.197 23.508 240.193 22.792 237.793 C 22.073 235.393 24.109 232.639 27.492 230.323 C 30.876 228.006 35.595 226.139 37.84 226.228 C 40.09 226.32 39.869 228.369 40.153 229.378 C 40.435 230.387 41.225 230.357 43.965 230.744 C 44.037 230.751 44.152 230.788 44.226 230.797 C 44.268 232.088 44.364 233.379 44.283 234.669 C 44.152 236.77 43.857 238.862 43.399 240.919 C 43.232 241.664 43.04 242.413 42.775 243.13 C 42.527 243.808 42.198 244.448 41.777 245.035 Z" style="fill: rgb(153, 153, 153); fill-opacity: 1; stroke: none; stroke-width: 0.264583px; stroke-linecap: butt; stroke-linejoin: miter; stroke-opacity: 1;" transform="matrix(-1, 0, 0, -1, 66.962456, 471.259949)"/>
  <path id="path1657" d="M 19.101 240.212 C 19.522 239.625 19.851 238.985 20.099 238.307 C 20.364 237.59 20.556 236.841 20.723 236.096 C 21.181 234.039 21.476 231.947 21.607 229.846 C 21.688 228.556 21.59 227.265 21.55 225.974 C 22.561 226.119 23.844 226.405 25.115 226.717 C 25.133 227.761 25.228 228.803 25.163 229.846 C 25.031 231.947 24.735 234.039 24.278 236.096 C 24.112 236.841 23.92 237.59 23.656 238.307 C 23.391 239.023 23.054 239.707 22.598 240.32 C 22.555 240.378 22.484 240.408 22.44 240.463 C 21.292 240.378 20.376 240.349 19.103 240.212 L 19.101 240.212 Z" style="fill: rgb(234, 162, 66); fill-opacity: 1; stroke: none; stroke-width: 0.264583px; stroke-linecap: butt; stroke-linejoin: miter; stroke-opacity: 1;" transform="matrix(-1, 0, 0, -1, 44.286453, 466.436981)"/>
  <rect transform="matrix(-0.930109, 0.367284, 0.370788, 0.928725, 38.061714, 960.761658)" ry="0.443" rx="0.443" y="-629.877" x="-583.873" height="3.688" width="26.676" id="rect1659" style="opacity: 1; vector-effect: none; fill: rgb(153, 153, 153); fill-opacity: 1; fill-rule: nonzero; stroke: none; stroke-width: 0.304271; stroke-linecap: butt; stroke-linejoin: miter; stroke-miterlimit: 4; stroke-dasharray: none; stroke-dashoffset: 0; stroke-opacity: 1;"/>
  <path id="path1661" d="M 353.315 153.815 C 353.112 154.306 352.754 154.733 352.301 155.017 C 351.852 155.304 351.309 155.444 350.777 155.418 C 350.242 155.391 349.719 155.195 349.3 154.865 C 348.878 154.538 348.566 154.076 348.414 153.568 C 348.351 153.355 348.313 153.133 348.205 152.942 C 348.125 152.806 348.015 152.691 347.892 152.593 C 347.769 152.491 347.637 152.406 347.506 152.318 C 346.359 151.529 345.447 150.441 344.714 149.262 C 343.207 146.84 342.426 144.032 342.061 141.208 C 341.545 137.225 341.834 133.108 343.175 129.32 C 344.516 125.531 346.94 122.086 350.228 119.755 C 350.712 119.411 351.219 119.089 351.765 118.853 C 353.024 118.304 354.441 118.222 355.812 118.296 C 359.78 118.51 363.688 119.993 366.698 122.572 C 369.709 125.148 371.782 128.821 372.291 132.738 C 372.78 136.537 371.801 140.466 369.784 143.727 C 367.769 146.99 364.754 149.593 361.329 151.344 C 358.829 152.623 356.104 153.462 353.315 153.815 Z" style="fill: rgb(153, 153, 153); fill-opacity: 1; stroke: none; stroke-width: 0.264583px; stroke-linecap: butt; stroke-linejoin: miter; stroke-opacity: 1;" transform="matrix(-1, 0, 0, -1, 714.235779, 273.693878)"/>
  <path id="path1665" d="M 370.079 154.323 C 370.058 154.272 370.033 154.219 370.018 154.169 C 369.954 153.956 369.918 153.734 369.81 153.543 C 369.73 153.407 369.62 153.292 369.497 153.194 C 369.374 153.094 369.24 153.007 369.111 152.919 C 367.964 152.13 367.052 151.042 366.319 149.865 C 364.812 147.444 364.033 144.633 363.667 141.809 C 363.15 137.826 363.439 133.711 364.78 129.921 C 366.123 126.134 368.547 122.689 371.833 120.357 C 372.023 120.222 372.219 120.096 372.414 119.972 C 372.414 119.98 372.416 119.985 372.414 119.993 C 372.005 126.688 371.091 140.072 370.554 147.767 C 370.225 152.49 370.192 152.809 370.079 154.323 Z" style="fill: rgb(249, 249, 249); stroke: none; stroke-width: 0.264583px; stroke-linecap: butt; stroke-linejoin: miter; stroke-opacity: 1;" transform="matrix(-1, 0, 0, -1, 735.840698, 274.294983)"/>
  <path id="path1667" d="M 348.815 156.659 C 348.463 156.734 348.082 156.671 347.772 156.488 C 347.462 156.306 347.226 156.001 347.127 155.656 C 347.026 155.311 347.063 154.93 347.226 154.61 C 347.389 154.29 347.678 154.035 348.017 153.913 C 348.344 153.794 348.704 153.796 349.05 153.818 C 349.398 153.838 349.748 153.872 350.091 153.814 C 350.26 153.786 350.427 153.734 350.584 153.667 C 351.113 153.446 351.561 153.074 351.99 152.694 C 352.417 152.317 352.844 151.924 353.349 151.653 C 354.015 151.3 354.812 151.179 355.545 151.36 C 356.28 151.539 356.941 152.023 357.298 152.686 C 357.57 153.19 357.665 153.784 357.604 154.355 C 357.545 154.926 357.341 155.477 357.051 155.975 C 356.868 156.293 356.649 156.587 356.466 156.908 C 356.285 157.226 356.137 157.573 356.113 157.939 C 356.093 158.238 356.159 158.537 356.182 158.838 C 356.195 158.987 356.198 159.139 356.172 159.287 C 356.149 159.436 356.099 159.581 356.015 159.707 C 355.862 159.93 355.594 160.07 355.324 160.07 C 355.051 160.07 354.785 159.93 354.632 159.707 L 348.815 156.659 Z" style="fill: rgb(153, 153, 153); fill-opacity: 1; stroke: none; stroke-width: 0.264583px; stroke-linecap: butt; stroke-linejoin: miter; stroke-opacity: 1;" transform="matrix(-1, 0, 0, -1, 704.692688, 311.346649)"/>
  <circle r="1.613" cy="157.498" cx="111.6" id="circle1671" style="opacity: 1; vector-effect: none; fill: rgb(51, 51, 51); fill-opacity: 1; fill-rule: nonzero; stroke: none; stroke-width: 0.304271; stroke-linecap: butt; stroke-linejoin: miter; stroke-miterlimit: 4; stroke-dasharray: none; stroke-dashoffset: 0; stroke-opacity: 1;" transform="matrix(-1.005508, 0, 0, 1, 462.276123, 0.000457)"/>
  <path id="path1677" d="M 342.139 165.231 C 337.793 167.119 333.074 168.118 328.334 168.177 C 322.087 168.255 315.815 166.765 310.358 163.738 C 308.754 162.849 307.175 161.791 306.168 160.265 C 305.437 159.156 305.048 157.843 304.953 156.521 C 304.856 155.197 305.05 153.864 305.413 152.588 C 306.146 150.037 307.548 147.738 308.821 145.408 C 309.728 143.75 310.578 142.055 311.196 140.269 C 312.333 136.982 312.644 133.414 312.113 129.978 L 316.837 128.112 C 318.292 133.916 318.146 140.111 316.362 145.826 C 316.242 146.21 316.111 146.598 316.061 146.999 C 316.007 147.401 316.038 147.824 316.221 148.186 C 316.432 148.599 316.819 148.892 317.2 149.157 C 319.847 150.996 322.935 152.2 326.134 152.628 C 330.305 153.189 334.611 152.345 338.326 150.384 C 338.056 151.721 337.839 153.075 337.843 154.437 C 337.848 156.045 338.053 157.646 338.495 159.192 C 338.939 160.739 339.625 162.223 340.528 163.557 C 340.963 164.203 341.603 164.668 342.139 165.231 Z" style="fill: rgb(153, 153, 153); fill-opacity: 1; stroke: none; stroke-width: 0.264583px; stroke-linecap: butt; stroke-linejoin: miter; stroke-opacity: 1;" transform="matrix(-1, 0, 0, -1, 647.0672, 296.291931)"/>
  <path id="path1691" d="M 305.201 144.233 C 304.768 143.37 304.406 142.471 304.139 141.545 C 303.697 139.999 303.492 138.398 303.487 136.79 C 303.486 136.186 303.531 135.583 303.602 134.983 L 306.871 134.412 C 308.022 136.123 308.801 138.081 309.093 140.119 C 309.242 141.156 309.26 142.212 309.169 143.256 L 305.201 144.233 Z" style="fill: rgb(153, 153, 153); fill-opacity: 1; stroke: none; stroke-width: 0.264583px; stroke-linecap: butt; stroke-linejoin: miter; stroke-opacity: 1;" transform="matrix(-1, 0, 0, -1, 612.711426, 278.644989)"/>
  <path id="path1687" d="M 305.703 143.113 L 303.653 143.514 L 303.332 144.298 C 303.343 144.434 303.316 144.57 303.26 144.693 C 303.201 144.813 303.109 144.919 302.995 144.997 C 302.885 145.074 302.753 145.121 302.618 145.132 C 302.482 145.144 302.345 145.116 302.221 145.058 C 302.02 144.965 301.87 144.791 301.728 144.618 C 300.841 143.533 300.06 142.35 299.528 141.056 C 298.994 139.761 298.709 138.354 298.815 136.96 C 298.908 135.736 299.316 134.516 300.099 133.571 C 300.2 133.452 300.304 133.338 300.427 133.242 C 300.549 133.145 300.687 133.067 300.838 133.031 C 301.003 132.995 301.18 133.005 301.337 133.069 C 301.494 133.13 301.635 133.236 301.728 133.376 L 303.601 133.009 C 303.542 133.322 303.343 133.597 303.307 133.912 C 303.103 135.66 303.241 137.445 303.739 139.133 C 304.157 140.554 304.823 141.898 305.689 143.102 C 305.693 143.106 305.697 143.11 305.701 143.113 L 305.703 143.113 Z" style="fill-opacity: 1; stroke: none; stroke-width: 0.264583px; stroke-linecap: butt; stroke-linejoin: miter; stroke-opacity: 1; fill: rgb(77, 77, 77);" transform="matrix(-1, 0, 0, -1, 604.496094, 278.143707)"/>
  <path id="path1689" d="M 271.644 150.638 C 271.64 150.635 271.636 150.631 271.63 150.625 C 270.766 149.423 270.099 148.077 269.68 146.658 C 269.184 144.97 269.047 143.183 269.249 141.437 C 269.287 141.122 269.483 140.847 269.542 140.534 L 295.443 135.478 C 295.552 135.279 295.744 135.124 295.964 135.063 C 296.193 134.998 296.449 135.033 296.652 135.157 C 296.854 135.281 297.002 135.49 297.047 135.723 C 297.923 135.767 298.785 136.076 299.486 136.599 C 300.189 137.119 300.731 137.852 301.025 138.675 C 301.317 139.497 301.359 140.406 301.144 141.249 C 300.927 142.095 300.457 142.874 299.804 143.457 C 299.609 143.632 299.398 143.789 299.207 143.964 C 299.014 144.142 298.835 144.34 298.722 144.576 C 298.595 144.842 298.553 145.15 298.41 145.408 C 298.246 145.701 297.949 145.915 297.616 145.982 C 297.285 146.046 296.928 145.961 296.664 145.753 L 271.644 150.638 Z" style="fill-opacity: 1; stroke: none; stroke-width: 0.264583px; stroke-linecap: butt; stroke-linejoin: miter; stroke-opacity: 1; fill: rgb(77, 77, 77);" transform="matrix(-1, 0, 0, -1, 570.43866, 285.668915)"/>
  <path id="path1693" d="M 339.04 172.237 C 338.203 172.11 337.454 172.004 336.675 171.889 C 339.133 165.81 339.853 159.05 338.713 152.599 L 340.989 151.67 C 341.718 158.565 341.052 165.598 339.04 172.237 Z" style="fill: rgb(51, 51, 51); fill-opacity: 1; stroke: none; stroke-width: 0.264583px; stroke-linecap: butt; stroke-linejoin: miter; stroke-opacity: 1;" transform="matrix(-1, 0, 0, -1, 677.950562, 323.907013)"/>
  <path id="path1695" d="M 344.632 170.073 C 344.184 169.586 343.719 169.114 343.213 168.683 C 342.314 167.913 341.328 167.252 340.289 166.683 C 341.502 166.328 342.663 165.799 343.7 165.08 C 345.323 163.954 346.652 162.407 347.52 160.639 C 348.389 158.869 348.795 156.879 348.69 154.912 C 348.603 153.264 348.138 151.648 347.378 150.183 L 348.485 149.732 C 349.887 152.354 350.584 155.35 350.442 158.319 C 350.25 162.242 348.597 166.079 345.872 168.921 C 345.48 169.329 345.064 169.708 344.632 170.073 Z" style="fill: rgb(51, 51, 51); fill-opacity: 1; stroke: none; stroke-width: 0.264583px; stroke-linecap: butt; stroke-linejoin: miter; stroke-opacity: 1;" transform="matrix(-1, 0, 0, -1, 690.749084, 319.804962)"/>
  <path id="path1697" d="M 326.695 176.393 L 325.777 174.096 L 343.032 167.056 L 344.031 169.557 C 344.004 169.565 343.978 169.569 343.954 169.577 L 326.695 176.393 Z" style="opacity: 1; vector-effect: none; fill: rgb(51, 51, 51); fill-opacity: 1; fill-rule: nonzero; stroke: none; stroke-width: 0.304271; stroke-linecap: butt; stroke-linejoin: miter; stroke-miterlimit: 4; stroke-dasharray: none; stroke-dashoffset: 0; stroke-opacity: 1;" transform="matrix(-1, 0, 0, -1, 669.808044, 343.449005)"/>
  <path id="path1699" d="M 317.837 139.358 C 316.1 137.98 313.972 137.088 311.759 136.882 C 311.555 136.862 311.348 136.85 311.145 136.81 C 310.943 136.772 310.741 136.706 310.572 136.589 C 310.416 136.483 310.292 136.337 310.199 136.172 C 310.106 136.008 310.048 135.829 310.011 135.646 C 309.939 135.279 309.961 134.902 309.981 134.527 C 310.245 129.752 310.13 124.96 309.785 120.189 C 309.099 110.742 307.51 101.358 305.044 92.208 C 305.409 91.748 305.947 91.428 306.527 91.324 C 307.098 91.219 307.704 91.327 308.205 91.618 C 309.843 105 311.922 118.324 314.436 131.57 C 314.438 131.586 314.443 131.603 314.449 131.617 C 314.452 131.634 314.46 131.645 314.474 131.659 C 314.481 131.666 314.494 131.673 314.506 131.679 C 314.519 131.684 314.535 131.684 314.548 131.687 C 314.577 131.687 314.601 131.684 314.628 131.673 C 316.79 131.188 319.05 131.152 321.23 131.55 C 320.129 132.552 319.203 133.739 318.607 135.094 C 318.021 136.429 317.779 137.902 317.839 139.358 L 317.837 139.358 Z" style="fill: rgb(153, 153, 153); fill-opacity: 1; stroke: none; stroke-width: 0.264583px; stroke-linecap: butt; stroke-linejoin: miter; stroke-opacity: 1;" transform="matrix(-1, 0, 0, -1, 626.274048, 230.642731)"/>
  <path id="path1701" d="M 300.806 103.731 C 298.367 103.603 295.953 102.986 293.755 101.926 C 290.947 100.573 288.461 98.451 287.012 95.703 C 286.288 94.33 285.832 92.811 285.727 91.264 C 285.623 89.717 285.871 88.142 286.495 86.721 C 287.308 84.867 288.733 83.322 290.388 82.148 C 292.043 80.977 293.926 80.154 295.849 79.5 C 297.263 79.018 298.72 78.616 300.213 78.549 C 301.709 78.481 303.248 78.766 304.506 79.569 C 305.398 80.138 306.119 80.949 306.663 81.855 C 307.209 82.759 307.58 83.758 307.857 84.777 C 308.8 88.245 308.629 92.003 307.374 95.374 C 306.121 98.743 303.792 101.707 300.806 103.731 Z" style="fill: rgb(153, 153, 153); fill-opacity: 1; stroke: none; stroke-width: 0.264583px; stroke-linecap: butt; stroke-linejoin: miter; stroke-opacity: 1;" transform="matrix(-1, 0, 0, -1, 594.161987, 182.270325)"/>
  <path id="path1675" d="M 335.053 152.521 C 335.452 150.647 335.869 148.802 336.144 146.749 C 336.389 144.941 336.5 142.944 336.642 140.989 C 339.751 141.416 343.621 141.987 348.172 142.688 L 348.172 152.801 C 342.959 152.712 338.225 152.622 335.053 152.521 Z" style="fill: rgb(180, 180, 180); fill-opacity: 1; stroke: none; stroke-width: 0.264583px; stroke-linecap: butt; stroke-linejoin: miter; stroke-opacity: 1;" transform="matrix(-1, 0, 0, -1, 683.224976, 293.790009)"/>
  <path id="path1673" d="M 352.143 153.34 C 351.79 153.329 350.984 153.323 350.684 153.312 C 347.69 153.198 347.494 153.066 347.203 152.111 C 346.914 151.157 346.54 149.401 346.587 147.469 C 346.637 145.539 347.115 143.445 347.533 142.333 C 347.953 141.218 348.316 141.085 351.258 141.445 C 351.777 141.507 353.065 141.719 353.732 141.81 C 353.59 143.763 353.479 145.761 353.234 147.568 C 352.959 149.621 352.542 151.468 352.143 153.342 L 352.143 153.34 Z" style="fill: rgb(234, 162, 66); fill-opacity: 1; stroke: none; stroke-width: 0.264583px; stroke-linecap: butt; stroke-linejoin: miter; stroke-opacity: 1;" transform="matrix(-1, 0, 0, -1, 700.315002, 294.608856)"/>
  <path id="path1681" d="M 342.104 146.901 C 340.482 147.35 338.801 147.571 337.145 147.266 C 334.648 146.805 332.325 145.458 330.692 143.525 C 332.041 139.357 335.104 135.77 339.015 133.766 C 339.143 134.014 339.339 134.22 339.456 134.469 C 340.388 136.416 341.092 138.47 341.552 140.577 C 341.869 142.025 342.068 143.498 342.15 144.976 C 342.189 145.619 342.112 146.259 342.104 146.901 Z" style="fill: rgb(180, 180, 180); fill-opacity: 1; stroke: none; stroke-width: 0.264583px; stroke-linecap: butt; stroke-linejoin: miter; stroke-opacity: 1;" transform="matrix(-1, 0, 0, -1, 672.852905, 281.173004)"/>
  <path id="path1683" d="M 330.674 147.768 C 330.684 147.126 330.756 146.483 330.72 145.843 C 330.638 144.365 330.439 142.892 330.122 141.444 C 329.662 139.337 328.958 137.283 328.026 135.336 C 327.909 135.087 327.714 134.879 327.585 134.633 C 327.596 134.63 327.599 134.625 327.607 134.622 C 327.801 134.522 327.995 134.427 328.201 134.361 C 328.409 134.294 328.625 134.258 328.841 134.277 C 329.092 134.297 329.333 134.4 329.546 134.534 C 329.756 134.669 329.942 134.838 330.124 135.014 C 331.521 136.367 332.549 138.077 333.157 139.922 C 333.763 141.764 333.95 143.735 333.777 145.666 C 333.761 145.862 333.735 146.058 333.68 146.247 C 333.622 146.434 333.529 146.615 333.384 146.749 C 333.295 146.825 333.192 146.886 333.085 146.942 C 332.339 147.354 331.499 147.539 330.676 147.768 L 330.674 147.768 Z" style="fill: rgb(51, 51, 51); fill-opacity: 1; stroke: none; stroke-width: 0.264583px; stroke-linecap: butt; stroke-linejoin: miter; stroke-opacity: 1;" transform="matrix(-1, 0, 0, -1, 661.423584, 282.039948)"/>
  <path id="path1567" d="M 47.516 304.316 C 47.104 304.283 46.696 304.187 46.331 303.998 C 45.964 303.812 45.642 303.531 45.431 303.179 C 45.23 302.84 45.138 302.44 45.144 302.045 C 45.15 301.651 45.249 301.26 45.408 300.9 C 45.728 300.176 46.274 299.58 46.828 299.014 C 50.115 295.659 53.996 292.948 57.858 290.265 C 58.905 289.537 59.962 288.803 60.87 287.908 C 61.778 287.013 62.54 285.936 62.886 284.711 C 62.961 284.439 63.017 284.159 63.025 283.875 C 63.034 283.594 62.994 283.305 62.886 283.045 C 62.774 282.779 62.593 282.545 62.377 282.354 C 62.159 282.164 61.906 282.017 61.639 281.905 C 61.104 281.682 60.525 281.6 59.952 281.519 C 52.333 280.424 44.778 278.943 37.194 277.63 C 26.571 275.791 15.895 274.279 5.22 272.769 C 4.429 272.657 3.632 272.545 2.885 272.261 C 2.14 271.977 1.441 271.506 1.031 270.824 C 0.739 270.337 0.61 269.757 0.64 269.189 C 0.669 268.621 0.854 268.066 1.151 267.58 C 1.742 266.607 2.747 265.933 3.824 265.549 C 5.286 265.029 6.877 265.002 8.432 264.993 C 23.566 264.903 38.685 265.792 53.808 266.382 C 61.166 266.67 68.531 266.884 75.869 267.492 C 82.014 268.003 88.352 268.86 93.6 272.074 C 94.672 272.731 95.697 273.49 96.484 274.467 C 97.269 275.444 97.802 276.656 97.791 277.908 C 97.779 278.919 97.412 279.908 96.849 280.753 C 96.285 281.595 95.534 282.3 94.718 282.906 C 93.629 283.715 92.427 284.355 91.228 284.99 C 78.124 291.907 64.75 298.37 50.877 303.596 C 49.795 304.004 48.668 304.41 47.516 304.316 Z" style="fill: rgb(153, 153, 153); fill-opacity: 1; stroke: none; stroke-width: 0.264583px; stroke-linecap: butt; stroke-linejoin: miter; stroke-opacity: 1;" transform="matrix(-1, 0, 0, -1, 98.426926, 569.316345)"/>
  <path id="path1856" d="M 185.891 52.491 C 183.881 57.776 181.028 62.743 177.47 67.147 C 176.486 68.361 175.455 69.533 174.461 70.737 C 165.324 81.823 159.871 95.571 157.018 109.623 C 150.485 141.759 157.474 176.399 175.965 203.543 L 235.516 175.127 C 226.882 170.203 220.144 162.084 216.915 152.724 C 213.686 143.362 213.997 132.838 217.77 123.681 C 218.916 120.901 220.374 118.226 221.079 115.305 C 222.043 111.316 221.537 107.107 220.515 103.133 C 219.496 99.159 217.974 95.327 216.867 91.375 C 215.454 86.314 214.728 81.065 213.008 76.098 C 212.147 73.614 211.036 71.204 209.521 69.051 C 208.007 66.898 206.08 65.007 203.786 63.707 C 201.926 62.655 199.817 61.983 198.22 60.568 C 196.648 59.171 195.738 57.203 194.631 55.417 C 194.076 54.526 193.458 53.662 192.686 52.946 C 191.916 52.229 190.981 51.664 189.95 51.442 C 188.533 51.14 186.981 51.543 185.891 52.491 Z" style="fill-opacity: 1; stroke: none; stroke-width: 0.264583px; stroke-linecap: butt; stroke-linejoin: miter; stroke-opacity: 1; fill: rgb(77, 77, 77);"/>
  <path id="path1860" d="M 184.689 73.127 C 182.35 75.457 180.684 78.4 179.608 81.515 C 178.535 84.627 178.04 87.916 177.849 91.202 C 177.466 97.776 178.281 104.373 177.883 110.945 C 177.86 111.333 177.831 111.724 177.883 112.108 C 177.995 112.952 178.479 113.708 179.078 114.315 C 179.675 114.922 180.392 115.4 181.079 115.902 C 185.618 119.194 189.266 123.551 193.586 127.121 C 195.745 128.908 198.089 130.505 200.676 131.595 C 203.265 132.684 206.109 133.254 208.899 132.951 C 209.506 132.885 210.108 132.778 210.705 132.652 C 216.166 131.486 221.212 128.481 224.824 124.247 C 228.436 120.011 230.592 114.57 230.856 109.022 C 223.122 105.411 216.76 98.975 213.262 91.223 C 211.424 87.149 210.36 82.756 208.473 78.702 C 207.527 76.675 206.373 74.73 204.877 73.065 C 203.382 71.398 201.533 70.015 199.427 69.239 C 196.909 68.311 194.09 68.292 191.509 69.028 C 188.929 69.765 186.585 71.237 184.689 73.127 Z" style="fill-opacity: 1; stroke: none; stroke-width: 0.264583px; stroke-linecap: butt; stroke-linejoin: miter; stroke-opacity: 1; fill: rgb(41, 181, 62);"/>
  <path id="path1884" d="M 268.385 275.844 C 266.215 278.836 263.482 281.418 260.364 283.415 C 258.784 284.428 257.095 285.298 255.68 286.532 C 254.545 287.52 253.599 288.738 253.022 290.127 C 252.447 291.516 252.255 293.075 252.578 294.545 C 252.796 295.53 253.248 296.47 253.93 297.219 C 254.86 298.236 256.168 298.841 257.494 299.221 C 258.822 299.604 260.197 299.787 261.54 300.111 C 267.525 301.556 272.436 305.663 277.446 309.237 C 285.196 314.77 294.117 319.386 303.637 319.479 C 305.632 319.498 307.689 319.3 309.447 318.366 C 310.029 318.057 310.572 317.666 311.018 317.181 C 311.466 316.696 311.809 316.113 311.976 315.475 C 312.141 314.837 312.121 314.146 311.875 313.534 C 311.627 312.922 311.149 312.397 310.541 312.132 C 310.092 311.937 309.593 311.887 309.102 311.887 C 308.615 311.885 308.125 311.929 307.634 311.91 C 305.796 311.834 304.095 310.853 302.739 309.61 C 301.381 308.368 300.3 306.862 299.118 305.455 C 296.782 302.676 294.034 300.263 291.688 297.492 C 289.341 294.723 287.362 291.468 286.982 287.869 C 286.794 286.067 287.02 284.225 287.637 282.525 L 268.385 275.846 L 268.385 275.844 Z" style="fill: rgb(51, 51, 51); fill-opacity: 1; stroke: none; stroke-width: 0.264583px; stroke-linecap: butt; stroke-linejoin: miter; stroke-opacity: 1;" transform="matrix(0.940985, -0.338448, 0.338448, 0.940985, -84.086044, 113.094254)"/>
  <path id="path1864" d="M 232.006 288.937 L 291.558 260.521 C 283.61 255.864 275.119 252.162 266.459 249.056 C 246.774 241.989 205.348 250.475 205.82 232.871 L 207.218 180.996 C 199.591 175.923 189.916 173.999 180.915 175.765 C 180.369 175.871 179.822 175.993 179.283 176.126 C 177.659 194.777 169.946 262.845 185.688 273.68 C 191.651 277.785 232.006 288.937 232.006 288.937 Z" style="fill: rgb(102, 102, 102); fill-opacity: 1; stroke: none; stroke-width: 0.142485px; stroke-linecap: butt; stroke-linejoin: miter; stroke-opacity: 1;" transform="matrix(-1, 0, 0, -1, 467.522217, 464.060486)"/>
  <path id="path1866" d="M 206.15 133.023 C 212.589 130.465 218.68 127.034 224.195 122.854 C 225.738 121.686 227.251 120.446 228.466 118.945 C 229.685 117.441 230.604 115.649 230.812 113.731 C 230.916 112.775 230.837 111.794 230.511 110.89 C 230.258 110.191 229.846 109.559 229.331 109.022 C 228.921 109.031 228.514 109.053 228.104 109.095 C 227.497 109.159 226.898 109.266 226.3 109.394 C 220.84 110.56 215.794 113.562 212.183 117.799 C 208.571 122.035 206.415 127.475 206.149 133.023 L 206.15 133.023 Z" style="fill: rgb(51, 51, 51); fill-opacity: 1; stroke: none; stroke-width: 0.142485px; stroke-linecap: butt; stroke-linejoin: miter; stroke-opacity: 1;" transform="matrix(-1, 0, 0, -1, 437.003967, 242.045013)"/>
  <path id="path1868" d="M 280.607 154.197 C 287.046 151.639 293.137 148.208 298.652 144.028 C 300.195 142.86 301.708 141.62 302.923 140.119 C 303.1 139.901 303.266 139.679 303.428 139.449 C 295.434 135.649 287.074 132.607 278.499 130.382 C 270.007 128.182 261.326 126.786 252.66 125.412 C 248.407 124.738 244.152 124.067 239.897 123.402 C 239.545 121.12 238.305 118.982 236.495 117.535 C 234.936 116.285 232.967 115.55 230.967 115.471 C 228.737 113.273 226.036 111.549 223.097 110.449 C 219.565 109.125 215.693 108.709 211.958 109.256 C 209.639 111.505 208.216 114.64 208.05 117.856 C 207.993 118.923 208.072 120.009 208.411 121.024 C 208.751 122.041 209.36 122.984 210.228 123.614 C 211.261 124.364 212.594 124.635 213.612 125.408 C 214.196 125.853 214.651 126.443 215.031 127.067 C 215.412 127.691 215.727 128.354 216.074 128.998 C 216.423 129.642 216.808 130.27 217.315 130.8 C 217.823 131.327 218.459 131.754 219.175 131.913 C 219.324 131.947 219.475 131.967 219.627 131.989 C 224.054 132.574 228.566 131.774 233.01 132.214 C 234.274 132.338 235.525 132.563 236.771 132.812 C 252.351 135.928 267.108 142.986 279.307 153.114 C 280.162 153.479 280.623 153.838 280.607 154.197 Z" style="fill: rgb(246, 152, 152); fill-opacity: 1; stroke: none; stroke-width: 0.142485px; stroke-linecap: butt; stroke-linejoin: miter; stroke-opacity: 1;" transform="matrix(-1, 0, 0, -1, 511.46109, 263.218719)"/>
  <path id="path1870" d="M 206.472 71.645 C 210.286 71.657 214.112 70.965 217.729 69.736 C 222.321 68.174 226.701 65.682 229.797 61.964 C 231.347 60.105 232.559 57.956 233.243 55.639 C 233.926 53.324 234.075 50.842 233.573 48.48 C 232.703 44.392 229.991 40.95 228.468 37.058 C 227.047 33.429 226.725 29.396 227.47 25.576 C 227.039 25.604 226.603 25.588 226.181 25.495 C 225.15 25.276 224.215 24.709 223.444 23.994 C 222.673 23.278 222.057 22.414 221.503 21.521 C 220.393 19.735 219.485 17.769 217.911 16.372 C 216.314 14.957 214.207 14.283 212.345 13.233 C 210.964 12.45 209.714 11.448 208.609 10.306 L 208.689 13.579 C 207.32 11.759 205.706 10.118 203.903 8.715 C 201.444 6.799 198.494 5.294 195.369 5.292 C 193.806 5.292 192.229 5.683 190.906 6.508 C 189.58 7.333 188.521 8.605 188.06 10.091 C 187.7 11.25 187.705 12.486 187.527 13.687 C 187.334 14.992 186.922 16.255 186.465 17.493 C 185.273 20.72 183.762 23.844 182.905 27.173 C 182.049 30.504 181.899 34.163 183.383 37.27 C 183.502 37.522 183.635 37.771 183.739 38.034 C 183.84 38.298 183.915 38.574 183.913 38.856 C 183.913 39.216 183.788 39.563 183.635 39.891 C 183.484 40.216 183.3 40.531 183.17 40.866 C 182.802 41.804 182.859 42.851 183.051 43.841 C 183.243 44.829 183.562 45.791 183.7 46.788 C 184.09 49.519 183.126 52.281 183.275 55.035 C 183.44 58.101 184.981 60.96 186.998 63.284 C 190.626 67.472 195.832 70.178 201.3 71.175 C 203.007 71.488 204.739 71.639 206.472 71.645 Z" style="fill: rgb(246, 152, 152); fill-opacity: 1; stroke: none; stroke-width: 0.142485px; stroke-linecap: butt; stroke-linejoin: miter; stroke-opacity: 1;" transform="matrix(-1, 0, 0, -1, 416.132568, 76.937157)"/>
  <path style="fill-opacity: 1; stroke: none; stroke-width: 0.264583px; stroke-linecap: butt; stroke-linejoin: miter; stroke-opacity: 1; fill: rgb(41, 181, 62);" d="M 182.583 4.722 C 188.755 0.229 196.542 -1.966 204.137 -1.353 C 211.731 -0.74 219.071 2.675 224.453 8.1 C 226.769 10.437 228.727 13.129 230.263 16.046 C 233.933 23.01 235.089 31.369 232.999 38.967 C 230.911 46.562 225.481 53.26 218.307 56.433 C 217.38 56.843 216.418 57.199 215.416 57.328 C 214.411 57.457 213.354 57.343 212.463 56.864 C 212.259 56.756 212.063 56.625 211.9 56.459 C 211.737 56.291 211.609 56.087 211.556 55.861 C 211.504 55.648 211.522 55.426 211.565 55.211 C 211.609 54.998 211.68 54.791 211.737 54.581 C 212.16 53.018 211.823 51.29 210.955 49.926 C 210.083 48.562 208.711 47.554 207.194 47.003 C 205.773 46.484 204.236 46.354 202.724 46.397 C 201.211 46.444 199.71 46.66 198.204 46.819 C 196.071 47.047 193.845 47.148 191.847 46.363 C 190.598 45.873 189.497 45.053 188.56 44.089 C 187.625 43.127 186.843 42.02 186.125 40.884 C 179.421 30.279 178.066 16.438 182.583 4.722 Z" id="path1872" transform="matrix(0, -1, 1, 0, 179.028671, 234.951904)"/>
  <circle transform="matrix(0, -1, -1.005508, 0, 318.993408, -131.135071)" style="opacity: 1; vector-effect: none; fill: none; fill-opacity: 1; fill-rule: nonzero; stroke-width: 0.281436; stroke-linecap: butt; stroke-linejoin: miter; stroke-miterlimit: 4; stroke-dasharray: none; stroke-dashoffset: 0; stroke-opacity: 1; stroke: rgb(0, 93, 36);" id="circle1876" cx="-160.617" cy="106.53" r="6.63"/>
  <circle transform="matrix(0, -1, -1.005508, 0, 318.993408, -131.135071)" r="4.127" cy="106.53" cx="-160.617" id="circle1878" style="opacity: 1; vector-effect: none; fill: none; fill-opacity: 1; fill-rule: nonzero; stroke-width: 0.281436; stroke-linecap: butt; stroke-linejoin: miter; stroke-miterlimit: 4; stroke-dasharray: none; stroke-dashoffset: 0; stroke-opacity: 1; stroke: rgb(0, 93, 36);"/>
  <circle transform="matrix(0, -1, -1.005508, 0, 321.558868, -121.617798)" style="opacity: 1; vector-effect: none; fill-opacity: 1; fill-rule: nonzero; stroke: none; stroke-width: 0.0547001; stroke-linecap: butt; stroke-linejoin: miter; stroke-miterlimit: 4; stroke-dasharray: none; stroke-dashoffset: 0; stroke-opacity: 1; fill: rgb(0, 93, 36);" id="circle1880" cx="-163.632" cy="105.722" r="1.288"/>
  <circle transform="matrix(0, -1, -1.005508, 0, 304.985016, -117.065979)" r="1.288" cy="110.944" cx="-165.074" id="circle1882" style="opacity: 1; vector-effect: none; fill-opacity: 1; fill-rule: nonzero; stroke: none; stroke-width: 0.0547001; stroke-linecap: butt; stroke-linejoin: miter; stroke-miterlimit: 4; stroke-dasharray: none; stroke-dashoffset: 0; stroke-opacity: 1; fill: rgb(0, 93, 36);"/>
  <path id="path1685" d="M 292.754 156.214 C 292.673 155.687 292.59 155.157 292.477 154.635 C 292.239 153.535 291.928 152.45 291.558 151.387 C 292.122 151.054 292.721 150.779 293.351 150.594 C 294.925 150.137 296.597 150.181 298.24 150.179 C 305.208 150.166 312.268 149.189 318.642 146.388 C 321.456 145.149 324.115 143.561 326.54 141.675 C 326.56 141.195 326.71 140.721 326.969 140.316 C 327.226 139.909 327.59 139.573 328.018 139.346 C 328.443 139.119 328.928 139.005 329.41 139.018 C 329.892 139.03 330.371 139.167 330.786 139.414 C 331.188 139.656 331.527 140.001 331.772 140.399 C 332.177 141.057 332.324 141.874 332.146 142.627 C 331.969 143.378 331.467 144.053 330.786 144.423 C 330.277 144.699 329.677 144.804 329.106 144.719 C 324.429 147.753 319.332 150.14 314 151.789 C 312.597 152.223 311.179 152.604 309.755 152.966 C 304.16 154.386 298.479 155.458 292.754 156.212 L 292.754 156.214 Z" style="fill: rgb(180, 180, 180); fill-opacity: 1; stroke: none; stroke-width: 0.264583px; stroke-linecap: butt; stroke-linejoin: miter; stroke-opacity: 1;" transform="matrix(-1, 0, 0, -1, 623.778564, 295.231018)"/>
  <rect style="opacity: 1; vector-effect: none; fill-opacity: 1; fill-rule: nonzero; stroke: none; stroke-width: 0.304271; stroke-linecap: butt; stroke-linejoin: miter; stroke-miterlimit: 4; stroke-dasharray: none; stroke-dashoffset: 0; stroke-opacity: 1; fill: rgb(156, 234, 66);" id="rect1916" width="98.269" height="116.323" x="-144.826" y="80.727" rx="2.531" ry="2.531" transform="matrix(-1, 0, 0, 1, 0, 0)"/>
  <path style="opacity: 1; vector-effect: none; fill-opacity: 1; fill-rule: nonzero; stroke: none; stroke-width: 0.304271; stroke-linecap: butt; stroke-linejoin: miter; stroke-miterlimit: 4; stroke-dasharray: none; stroke-dashoffset: 0; stroke-opacity: 1; fill: rgb(46, 199, 0);" d="M 57.135 112.214 C 51.275 112.214 46.555 107.522 46.555 101.693 L 46.555 80.727 L 144.826 80.727 L 144.826 101.693 C 144.826 107.522 140.105 112.214 134.246 112.214 L 57.135 112.214 Z" id="rect1918" transform="matrix(-1, 0, 0, -1, 191.381012, 192.940979)"/>
  <rect style="opacity: 1; vector-effect: none; fill-opacity: 1; fill-rule: nonzero; stroke: none; stroke-width: 0.304271; stroke-linecap: butt; stroke-linejoin: miter; stroke-miterlimit: 4; stroke-dasharray: none; stroke-dashoffset: 0; stroke-opacity: 1; fill: rgb(0, 93, 36);" id="rect1923" width="9.184" height="18.267" x="-100.281" y="102.006" rx="0.583" ry="0.583" transform="matrix(-1, 0, 0, 1, 0, 0)"/>
</svg>